<svg id="Слой_1" xmlns="http://www.w3.org/2000/svg" viewBox="0 0 223.2 193.6"><style>.st2{fill:#004b8f}</style><g id="Слой_x0020_1"><path d="M9.9 9.1c12.5-.1 25 0 37.4 0C58 23.9 70.5 37.5 80 53.2c6.3 10.5 11.5 22.5 10.9 35-.7 11.8-6.9 22.6-14.7 31.3 2-6 .6-12.4-1.7-18-2.3-5.5-5.4-10.7-8.9-15.5-6.3-9.1-12.8-18-19.3-27-12-16.6-24.2-33.3-36.4-49.9zm44.9 131c6-6.6 12.9-12.5 19.7-18.3-3.3 5.2-5.9 11-7.6 17-.8 3.1-1.5 6.4-.9 9.6.5 2.7 2.7 4.9 5.1 6.2 4.5 2.4 9.7 3.1 14.8 3.6-1.3 4.3-1.6 9 0 13.2 1.8 5.8 6 10.5 11.3 13.5H69.4c-5.8 0-11.8-1.4-16.6-5-5.5-4-9.2-10.8-8.9-17.7.7-8.5 5.3-16 10.9-22.1z" fill="#fff"/><path d="M9.4 6.7H48c-.5.3-1 .5-1.5.7-1.6-.6-3.3-.4-5-.4H8.8l.6-.3z" fill="#a8a9ad"/><path class="st2" d="M48 6.7h.4C59.2 22 72.1 35.8 81.8 51.9 88.1 62.3 93.3 74 93.1 86.4 93 99 86.8 110.8 78.6 120c-2.4 2.4-3.9 5.5-5.4 8.4-2.7 5.5-5 11.4-5.3 17.5-.2 2.3 1 4.6 2.9 5.9 4.6 3.2 10.4 3.5 15.7 4.3 2.1.6 1.2 3.1.9 4.5-2.4 8.8 3 18.1 10.7 22.3 2 .9 1.1 4.3-1.1 4-8.5.1-17 0-25.5 0-5 .1-10.2-.4-14.9-2.4-8.9-3.6-15.4-12.8-15-22.5.6-7.6 4.3-14.6 9-20.5 6.7-8.3 15.1-15 23-22.1 1.9-2.9 1.6-6.6 1.1-9.9-1.9-10-8-18.3-13.7-26.5-16.4-23.1-33.3-46-50.1-69-1-1.5-2.3-2.9-3.1-4.6-.3-1 .3-2 1-2.6 10.9-.1 21.8 0 32.7 0 1.7 0 3.4-.2 5 .4.5 0 1-.2 1.5-.5zM9.9 9.1c12.2 16.6 24.3 33.3 36.4 50 6.5 9 13 17.9 19.3 27 3.5 4.8 6.6 9.9 8.9 15.4 2.3 5.6 3.7 12 1.7 18 7.8-8.7 14-19.4 14.7-31.3.7-12.5-4.6-24.5-10.9-35-9.5-15.7-22-29.3-32.6-44.1-12.5 0-25-.1-37.5 0zm44.9 131c-5.6 6.2-10.2 13.6-11 22.1-.3 6.9 3.4 13.7 8.9 17.7 4.7 3.6 10.8 5 16.6 5h27.8c-5.2-3-9.4-7.7-11.3-13.5-1.6-4.3-1.3-8.9 0-13.2-5-.5-10.2-1.2-14.8-3.6-2.4-1.3-4.6-3.5-5.1-6.2-.6-3.2.1-6.5.9-9.6 1.7-6 4.3-11.7 7.6-17-6.7 5.8-13.6 11.6-19.6 18.3z" id="_759730048"/><path class="st2" d="M68.3 22.8h37.8c9.9 12.6 20.2 25 27.2 39.5 4.5 9.3 7.3 19.7 5.7 29.9-1.6 10.4-7.3 19.8-14.2 27.5 2-6.1.5-12.6-1.9-18.3-2.7-6.8-7.1-12.8-11.2-18.8-14.4-20-29-39.9-43.4-59.8zm33.1 119.9c6.6-8.2 14.9-14.7 22.6-21.7-4.1 6.8-7.6 14.1-8.8 21.9-.6 3.5-.3 7.6 2.5 10.1 4.6 4 11.1 4.9 17 5.6-1.5 4.8-1.5 9.9.5 14.6 2.1 5.6 6.5 10.1 11.7 13h-28.5c-6.3 0-12.8-1.7-17.7-5.8-5.3-4.4-8.8-11.3-8.2-18.3.8-7.3 4.4-13.8 8.9-19.4z"/><path d="M123.8 35.4h38.6c6.9 9 13.5 18.4 18.2 28.8 4 8.9 6.4 18.8 4.7 28.6-1.8 10.3-7.4 19.4-14.3 27.1 2-5.6.8-11.8-1.2-17.2-2-5.1-4.7-9.8-7.8-14.3-12.5-17.9-25.4-35.4-38.2-53zm25.6 105.1c6.3-7.1 13.6-13.2 20.7-19.4-3.6 5.7-6.4 11.9-8.1 18.5-.7 3-1.2 6.2-.6 9.2.8 3.2 3.5 5.4 6.4 6.7 4.4 2 9.3 2.7 14.1 3.1 11.2 0 22.4-.1 33.6 0v27.5h-50.9c-5.9 0-11.9-1.5-16.7-5-5.8-4.2-9.6-11.2-9.3-18.3.7-8.5 5.3-16.1 10.8-22.3z" fill="red"/></g></svg>