<svg id="Слой_1" xmlns="http://www.w3.org/2000/svg" viewBox="0 0 473.1 467.9"><style>.st0{fill:#f70}</style><g id="Слой_x0020_1"><path class="st0" d="M218.7 8.7c13.5-2.5 27.4-2.1 40.9-.3l15.2 51.3 20.2 5.8 41.2-36.8 32.1 18.7-11.7 53.5 14.4 14.4 19.2-3.6c11.6-2.2 22.9-6 34.6-8.1 6 11.7 16 22.3 18.4 35.4l-35.7 38.2c1.6 6.9 3.4 13.7 5.4 20.6l51.8 15.4c.3 13.5.2 27 .1 40.5l-51.2 16.8-6.5 20.5 36.4 39.5c-6.3 11.3-12.8 22.4-19.3 33.6L370.7 352l-14 15.6 11.1 52.6c-11 6.7-22.1 13.2-33.6 19l-39.3-37-20 7.1c-6.7 16.2-10.1 33.6-15.8 50.3-13 .2-26.1.9-39.1-.1-2.2-2-2.6-5.2-3.7-7.8l-11.8-45.1-21.7-4.5-39.4 35.9-33.3-19.3 12.4-53.4-14.7-14.6-54 11.6-18.6-33.6 36.9-39.6-8-18.9-51.8-16.9.2-16.9.2-19.7 52.9-19.1c1.6-6.3 3.3-12.6 5.1-18.8l-37.4-39.9 10.2-17.8 10.1-17.5 53.9 11L120 101l-10.9-53 34.2-20 41.2 37 18.5-4.8 15.7-51.5zm-8.5 86.6c-43.1 8.5-80.9 38.6-99.4 78.3-15.3 32.5-17.7 71-5.9 104.9 13.6 41.6 47.8 75.6 89.2 89.4 25.2 8.3 52.5 10 78.3 3.5 41.5-7.9 76.7-38.2 94.6-75.8 11.6-25.3 16.6-54.1 12.1-81.8-6-43.9-34.3-84-73.6-104.5-28.6-15.8-63.1-20.8-95.3-14z"/><path class="st0" d="M183.3 120.5c28.8-11.7 61.6-17 91.8-7.4 1.6.5 3.2 1.1 4.7 1.7-.7 2.8-1.4 5.6-2 8.4-30.1-8.4-48.1-9.8-83.2 2.5.5 4.8.9 9.6 1.8 14.3 14.7 72.4 30.2 145.9 44.6 218.4-50.3.5-92-21.4-113.9-65.7-5.4-10.9-9.7-22.8-11.8-34.8-3.4-20.1-4-31.7.7-51.3 7.3-30.3 26.8-62.1 53.2-77.1 1.3-.8 2.7-1.5 4.1-2.1.8-.4 1.6-.7 2.5-1.1l1.4 7.8c-1.1.9-2.7 1.8-4.3 2.8-31.5 19.6-49.4 55.8-51 92.2 22.6.5 45.2.1 67.8.2l1.9 9.2c-22.7.4-46.6.2-69.3.1.3 57.2 50.2 108.8 107.3 111.2-14.6-76.6-31.9-152.7-46.3-229.3z"/><path class="st0" d="M274 229.6c5.4-37 8.1-74.4 14.8-111.1 14.8 7.4 29.2 16.3 40.7 28.5 19.4 20.3 30.9 47.2 34.3 74.9.3 2.8.5 5.5.6 8.2.2 9.2-1.8 32.9-5.6 41-.2.5-.4.9-.7 1.2l-9.1 1.9c.1-.5.3-.9.4-1.4 3.2-10.7 5.9-21.9 5.8-33.6l-35.5-.3c-12.5-.1-24.9 0-37.4.4l-13.8 116.1-9.6 2.2c3.1-39.7 10.4-78.9 13.4-118.6-11 0-22 0-33 .1L237 230c12-.5 25-.3 37-.4zm21.9-97.1c-5.1 32.3-8.1 64.9-12.7 97.2l72.1-.1c-2.3-39.6-24.3-77.8-59.4-97.1zm-191.1 96.6h18.7v9.3h-18.7z"/><path class="st0" d="M355.9 229.7h16.7v9.3h-16.7z"/></g></svg>