<svg id="Слой_1" xmlns="http://www.w3.org/2000/svg" viewBox="0 0 178 178"><style>.st0{fill:#f70}</style><path class="st0" d="M96.1 143.4c-.4.4.4.1-.8.5l-6.8.4c-2.4 0-4.9-.4-7.1-.6-4.8-.5-9.3-1.9-13.2-3.5-2.1-.9-3.8-1.7-5.5-2.6-1.4-.8-4.1-2.7-5.2-3.2l-11.4 11.4c-1.6 1.6-1.6 1.3-1.7 4l-.2 17.3 22.5 9.1 13.1-14.1c4.9.3 11.7.8 16.7.1.7-.1 1.4-.3 1.8.1l13.2 13.6 22.8-9.2-.5-19.6c3.5-2 10.4-9.5 12.9-12.9l19.5.4 9.2-22.8-14.2-13.2c-.1-2.7.4-6 .4-9.1 0-11-2.5-7.7 2.8-12.5l10.5-10.1-9.2-22.9-16.8.5c-2.9.1-2.5-.3-4.2 1.5s-10.2 10.5-11.5 11.4c.5 1.7 2.4 4 3.3 5.7 1 1.9 2.1 4 2.9 6.2 11 28.9-2.7 59.2-29.2 70.4-2.4 1.2-11 4.2-14.1 3.7z"/><path d="M44.3 121.2c-.7-1.3-1.7-2.6-2.4-3.8-6.1-10.1-8.7-22.7-7.3-34.6 3-24.9 23.6-45.2 48.5-47.7 7.7-.8 14.3-.1 21.2 1.9 9.6 2.8 15.1 7.3 16.1 7.6 3.7-3.6 7.5-7.6 11.5-11.6 1.7-1.7 1.5-1.4 1.5-4.3l.2-16.6-22.5-9.2c-1.2.8-8.6 8.9-10.3 10.8-.9 1-2.1 3-3.4 3.1-5.9-.5-11.8-.6-17.7.1-.1 0-.3-.1-.4-.2l-1.2-1c-.4-.4-.8-.8-1-1.1L66 3.1l-22.4 9.3c-.6 2.4.3 16.2.4 19.6-3.7 2.4-10.5 9.4-12.9 13.1l-8.2-.2-11.2-.3-9.2 23 14.2 13.7v.1c-.1.9-1 3-.8 8.8 0 2.2.8 6.8.7 8.5-.1 1-1.3 1.8-2 2.5L2.8 112.5l9.3 22.8 16.9-.5c2 0 2.7-.3 4.2-1.8 1.8-2.2 10.3-10.3 11.1-11.8zm48-6.6c-.2.2.2.1-.4.2l-3.1.2c-1.1 0-2.3-.2-3.3-.3-2.2-.2-4.3-.9-6.1-1.6-1-.4-1.8-.8-2.6-1.2-.6-.4-1.9-1.3-2.4-1.5-.6.4-4.4 4.4-5.3 5.3-.7.7-.7.6-.8 1.8-.1 1.8-.3 6.8-.1 8l10.5 4.2 6.1-6.6c2.3.2 5.4.4 7.8 0 1.2-.2 1.4.3 2.9 2.1 1.1 1.3 2.8 2.7 4 4.3.9-.1 4.4-1.7 5.4-2.1 1.7-.7 3.6-1.6 5.2-2.2.3-1.7-.1-7-.2-9.1 1.6-.9 4.8-4.4 6-6l9.1.2 4.3-10.6c-1.2-1.2-2.2-2-3.3-3l-3.3-3.1c0-1.3.2-2.8.2-4.2 0-5.1-1.2-3.6 1.3-5.8l4.9-4.7c-.1-.8-1.7-4.3-2.1-5.3-.6-1.4-1.8-3.8-2.2-5.3l-7.8.3c-1.4 0-1.2-.1-2 .7-.8.8-4.7 4.9-5.3 5.3.2.8 1.1 1.9 1.5 2.6.5.9 1 1.9 1.3 2.9 5.1 13.4-1.2 27.5-13.6 32.8-1.1.5-5.2 2-6.6 1.7z" fill="#262626"/><path class="st0" d="M68.2 104.3c-.3-.6-.8-1.2-1.1-1.8-2.8-4.7-4-10.6-3.4-16.1 1.4-11.6 11-21 22.6-22.2 3.6-.4 6.7 0 9.9.9 4.5 1.3 7 3.4 7.5 3.5 1.7-1.7 3.5-3.5 5.3-5.4.8-.8.7-.7.7-2 0-.9 0-1.7.1-2.6.1-1.3.2-3.9 0-5.1l-10.5-4.3c-.6.4-4 4.1-4.8 5-.4.5-1 1.4-1.6 1.5-.5.1-3.2-.2-4.1-.2-2 0-4 .5-4.6 0l-.3-.3-.5-.5-5.2-5.4-10.3 4.4c-.3 1.1.1 7.5.2 9.1-1.7 1.1-4.9 4.4-6 6.1l-9-.2c-.5 1-4.2 10.1-4.3 10.7 1.4 1.5 3.1 2.9 4.5 4.2 3.1 3 1.7.6 1.7 6.3 0 1 .4 3.2.3 3.9 0 .5-.6.9-.9 1.2-1.5 1.4-4.4 4-5.5 5.3.1.9.9 2 1.2 2.6.1.3.4 1 .5 1.4.8 2.6 1.8 4 2.6 6.6 1.8-.1 3.6-.1 5.5-.2 3.1-.1 3.3.2 4.3-.9.9-1.1 4.8-4.8 5.2-5.5z"/></svg>