<svg xmlns="http://www.w3.org/2000/svg" viewBox="0 0 492.7 441.4"><style>.st1{fill:#fff}</style><path fill="#666" stroke="#000" stroke-miterlimit="10" d="M0 0h492.7v441.4H0z" id="Слой_2"/><g id="Слой_1"><g id="Слой_x0020_1"><path class="st1" d="M237.5 9.9h4.8c.3 34.6.3 69.3.3 103.9.3 24.9-9.6 49.2-24.8 68.7-6.6 8.7-16 14.7-25.4 20-7.6 3.9-15.2 8-23.7 9.6-10.4 2.1-21.1 3-31.7 3.4-25.8.1-51.5-.2-77.3-.5 0-3 .1-6 .1-9 20.2-.1 40.3 0 60.5 0 14.3-.1 28.9.7 43-2.5 14.7-3.3 28.9-9.6 40.5-19.3 8.4-7.8 14.3-17.9 19.6-28 5.2-10.6 9.8-22 10.1-34 1.6-37.3.4-74.7-.1-112 1.3-.2 2.7-.3 4.1-.3zm14.7 0h3.8c1.6.1 3.3.1 4.9.2-.1 31.9-1 63.8-.4 95.8.3 10.7-.2 21.6 3.1 31.9 4.8 15.3 12.7 29.5 22.6 42 8.8 9.8 20.9 16 33.1 20.4 13.7 5.2 28.6 6 43.1 5.9 24.1 0 48.1-.1 72.2 0 .1 3 .1 6 .1 9-25.7.3-51.4.7-77 .5-10.4-.4-20.9-1.2-31.2-3.2-8.3-1.5-16-5.4-23.4-9.3-8.3-4.5-16.5-9.5-23-16.4-13.7-15.4-23-34.7-26.9-55-2.1-10.2-1.4-20.7-1.5-31.1.1-30.3.2-60.5.5-90.7z"/><path class="st1" d="M377.9 76.6c21.1-7 42-14.8 63-22.2-1.5 3.7-2.6 7.6-4.5 11.1-15.4 6.2-31.3 11.2-47 16.7-35.2 11.7-71.7 20.9-109 21.5-.6 6.5-.4 13-.5 19.5-.1 15.4 7.7 29.8 17.7 41.1 13.3 14.9 33.5 22.1 53.2 22.6 19.4.2 38.8.5 58.2.1 0 2.9 0 5.7-.1 8.6-19 0-38-.1-57-.1-21.8.5-44.1-7.7-59.3-23.7-13.2-13.3-22.3-31.8-21.2-50.9.4-19.8-.1-39.6.7-59.3 2.8 0 5.7 0 8.5.1-.1 10.9-.3 21.7-.2 32.5 33.2-.2 66-7.1 97.5-17.6zm-324.3-21c3.7 1.9 7.7 3.3 11.7 4.6 14.1 5 28.1 10 42.2 15 0-.4-.1-1.3-.1-1.7.2.5.5 1.3.6 1.8 34.1 12 69.8 20.2 106.2 20.4.1-11.4.1-22.8-.3-34.2h8.8c0 20.2.7 40.5.6 60.7.7 16.7-6.9 32.6-17.3 45.2-14.4 17.5-36.9 27.3-59.4 27.9-18.5.1-37 .1-55.6.2-.2-2.9-.3-5.7-.3-8.6 17 .1 34.1 0 51.1-.1 17-.2 34.3-4.8 47.7-15.6 11.9-9.7 20.8-23.3 24.2-38.3 1.8-9 .5-18.3.6-27.4-35.3-.6-70-8.9-103.4-19.6-17.8-5.7-35.3-12.2-53-18.3-1.7-4-3.3-7.9-4.3-12z"/><path class="st1" d="M60.7 78.2c23.9 6.7 47.5 14.1 71.5 20.3 23.5 5.7 47.1 12.7 71.5 12.4-13.9 5.4-24.4 16.4-35.7 25.6-12.4 11.9-21.8 26.9-28.7 42.6-18.2-.3-36.3-2.9-54.5-3.9-.7-3.7-1.3-7.3-1.6-11 18.5 1.6 36.9 3.9 55.4 5.3 0-1.9-.1-3.8-.1-5.8-19-2.9-38-6.1-57-9-.7-3.5-1.4-7.1-1.9-10.6 19.4 3.2 38.9 6.3 58.3 9.3-.1-1.9-.1-3.8-.1-5.7-20-4.3-40-8.6-59.9-13.1-.7-3.7-1.4-7.3-2.4-11 20.7 4 41.4 8.4 62.2 12.4.1-2.1.2-4.3.3-6.4-21.6-5.3-43.2-10.1-64.8-15.4-1.3-4-2.6-8-3.7-12.1 22.8 5.5 45.5 11.4 68.4 16.8.1-2.4.1-4.8.1-7.3-24.2-7.7-48.8-14-73.2-21.3-1.1-4-2.7-8-4.1-12.1zM363.8 98c23.5-6 46.6-13.2 69.9-19.7-1.7 4.1-2.6 8.4-4.4 12.4-24.2 7.1-48.7 13.6-72.8 21v7.2c22.7-4.9 45.2-10.9 67.8-16.6.3 1.4.7 2.7 1.1 4.1-.5.2-1.5.7-2 1-.7 2.3-1.3 4.6-2 7-21.5 5.2-43.1 10.3-64.7 15.3.1 2.2.1 4.5.1 6.7 20.6-4.3 41.2-8.2 61.7-12.5-.5 3.7-1.3 7.3-2 10.9-20 4.8-40.3 8.7-60.3 13.4.1 1.8.1 3.7.2 5.5 19.5-3.1 39-6.2 58.4-9.4-.6 3.5-1.3 7.1-2 10.6-19 3.1-38 6-57 9.3 0 1.9-.1 3.8-.1 5.6 18.6-1.8 37.1-3.7 55.7-5.4-.4 3.7-1 7.3-1.7 11-18.1 1-36.2 3.6-54.3 3.9-7.7-15.6-16.4-31.1-29.4-42.9-11.1-9.1-21.4-19.8-35-25.3 24.9-.2 48.9-7 72.8-13.1zm-116.9 55.8c3.8 6.1 6.2 13 10.4 18.9 13.1 21.1 33.8 36.9 56.9 45.6-7 .7-14 .5-21 .2-2.8-.1-4.7-2.4-6.9-3.7-15.7-10.9-31.1-23.9-39.2-41.7-.7-6.3-.6-12.9-.2-19.3zm.4 32.7c6.3 8.1 13.5 15.6 21 22.6 3.7 3.2 7.3 6.6 11.7 8.8-4.1 1.4-8.6.8-12.9.5-7.5-5-13.3-12-20-18.1-.2-4.6 0-9.2.2-13.8zm0 21.7c5.2 2.6 9.4 7.1 11.5 12.4l-11.7-.3c.1 4.2.3 8.4.3 12.6-5.1-2.8-9.9-6.6-12.5-11.9 3.9-.1 7.8-.3 11.7-.7.3-4.1.4-8.1.7-12.1zm-67.5 12.2c6.7-.1 13.4-.4 20 .2 17.3 7.7 30.2 22.6 40.9 37.8 2 3.3 5.2 6.4 5 10.6.2 6.2.2 12.4-.5 18.5-8.6-22.1-23.4-41.9-43.3-55-6.8-4.9-14.6-8.3-22.1-12.1zm33.5.4c4.1 0 8.1-.2 12.1-.2 1.8-.3 2.8 1.5 4 2.5 5.4 5.7 11.4 11.1 15.8 17.7 1 4.1.7 8.5-.1 12.7-8.5-12.8-20-23-31.8-32.7z"/><path class="st1" d="M10.6 225.6c41.8.3 83.5-.4 125.3-.2 13.3.4 26.7 1.4 39.5 5.1 12 4.7 23.6 10.8 33.6 18.8 8.3 7.1 14.4 16.2 19.7 25.6 8.3 15.4 13.8 32.5 13.8 50.1 0 35.2 0 70.4-.2 105.6-3 .1-6.1 0-9.1-.1.7-37.9 1.7-75.9.1-113.9-1.2-14.4-7.4-27.8-14.5-40.1-4.9-8-10.1-16.2-17.7-21.9-9.5-7.3-20.6-12.5-32.1-15.7-15-4.7-31-3.9-46.5-3.8h-112c.1-3.2.1-6.3.1-9.5zm311.3 3.9c16.1-3.7 32.7-4.4 49.1-4.2 37.4 0 74.8.6 112.2.2 0 3.2 0 6.3-.2 9.5-37.3.1-74.7.1-112 0-15.1 0-30.6-.8-45.2 3.5-12.8 3.6-25.2 9.2-35.4 17.8-5.9 5-10.1 11.6-14.2 18-6.4 10.7-12 22.2-14.7 34.5-1.6 6.8-1.1 13.9-1.6 20.9-.9 33.6 0 67.3.6 100.9-3 .1-6 .1-9 .2-.4-34-.2-68.1-.3-102.2-.6-24.5 8.7-48.6 23.2-68.1 7.9-11.1 19.7-18.5 31.6-24.5 5.1-2.3 10.2-5.2 15.9-6.5z"/><path class="st1" d="M59.7 244.2c29.4 0 58.7 0 88.1.1 22.1.5 44 10.4 58.4 27.3 9.6 11.3 16.7 25.3 17.6 40.3-.1 22.1-.1 44.2-.5 66.3-2.9.1-5.7.1-8.6.1-.1-11.3.1-22.6.2-33.9-21.8-.1-43.6 2.7-64.7 7.9-23.2 5.3-45.6 13.5-68 21.5-9.3 3.6-19 6.3-28.2 10.2 1.1-3.9 2.6-7.6 4-11.3 50.7-18.3 102.5-37.3 157-38.2.1-9.9 1.3-20-1-29.7-5.2-18-17.3-34.2-34-42.9-12.4-6.6-26.7-9.2-40.6-9-26.6-.1-53.2-.2-79.8 0 0-3 0-5.9.1-8.7zm231.2 24.6c14.7-15.6 36.1-24.3 57.4-24.5 28.8-.1 57.6-.1 86.5-.1 0 2.8.1 5.6.1 8.5-24.4-.3-48.9-.1-73.3-.1-10.4 0-20.9.1-31 2.9-15.7 3.9-30.1 13.2-39.2 26.6-6 8.5-10.8 18.3-12 28.7-.5 7.8-.1 15.6 0 23.4 54.4 1 106 20 156.5 38.1 1.5 4.3 4.1 8.4 4.1 13.1-.8-.7-1.4-1.5-1.8-2.6-38.5-13.3-76.6-29.1-117-35.5-13.8-2-27.7-3.3-41.6-3.2 0 11.3.2 22.6.5 33.9h-8.8c0-20.5-.4-41-.6-61.6-.6-17.7 8.1-34.8 20.2-47.6z"/><path class="st1" d="M84.8 263.6c18.1-1.1 36.2-3.4 54.3-4.1 7.3 15.6 16.3 30.8 29 42.7 11.3 9.3 21.9 20.1 35.6 25.7-11.7-.3-23.2 1.3-34.7 3.5-36.5 7.9-72.4 18.6-108.2 29.1 1.3-4.1 2.8-8.1 4-12.3 24.3-7.2 49-13.6 73.2-21.3 0-2.4-.1-4.8-.1-7.3C115 325 92.3 331 69.5 336.4c1.2-4 2.5-8 3.6-12 21.6-5.3 43.3-10.1 64.9-15.4-.1-2.1-.1-4.3-.3-6.4-20.7 4.1-41.4 8.2-62.1 12.4.9-3.8 1.6-7.7 2.6-11.5 20-3.5 39.8-8.8 59.8-12.6 0-2-.1-3.9-.1-5.9-19.4 3.3-38.9 6.4-58.4 9.4.7-3.5 1.4-6.9 2.1-10.4 18.9-3.1 37.9-6.3 56.9-9 .1-2 .1-4 .2-5.9-18.7 1.5-37.2 4-55.9 5.2.7-3.5 1.3-7.1 2-10.7zm240.1 39.2c13.5-11.8 22-28 30.2-43.7 18 1.9 36.1 3.1 54.1 4.7.4 3.6.9 7.2 1.6 10.8-18.6-1.5-37.2-3.7-55.8-5.3.1 2 .1 4 .2 5.9 19 2.7 37.9 6 56.9 9 .7 3.5 1.4 7 2 10.5-19.5-3-38.9-6.1-58.4-9.4 0 2-.1 3.9 0 5.9 20 4.3 40 8.5 60 13.1.7 3.7 1.6 7.3 2.4 11-20.7-4.1-41.4-8.3-62.2-12.4-.1 2.2-.2 4.3-.3 6.4 21.6 5.3 43.3 10.2 64.8 15.4 1.4 3.9 2.6 8 3.6 12-22.8-5.4-45.5-11.5-68.3-16.8-.1 2.4-.1 4.8-.1 7.3 24.2 7.6 48.8 14.2 73.2 21.2 1.2 4.2 2.7 8.2 4 12.4-24.4-7.1-48.7-14.4-73.3-20.8-22.8-5.7-45.8-12.2-69.5-12 13.6-5.6 23.9-16.1 34.9-25.2z"/></g></g></svg>