<svg xmlns="http://www.w3.org/2000/svg" viewBox="0 0 214.6 181.8"><linearGradient id="a" gradientUnits="userSpaceOnUse" x1="10097.697" y1="-9512.328" x2="11313.637" y2="-15606.518" gradientTransform="matrix(.02835 0 0 -.02835 -206.827 -263.422)"><stop offset="0" stop-color="#1f3e73"/><stop offset=".31" stop-color="#244170"/><stop offset=".541" stop-color="#a2aec0"/><stop offset=".58" stop-color="#26426f"/><stop offset="1" stop-color="#244170"/></linearGradient><path d="M40.3 161.5c6.3.1 14.2-.3 16.5-.3l50.7-84.3 22.1 35c.8 1.4 2.4 4.2 3.3 5l23.4-38.5 39.2 59.8c1.6 2.5 2.2 5 2.2 6.4 1.1 16.5-11.3 20.6-22.9 20.6l-81.5-.1-6.3 12.5c29.3-.2 59-.4 88.2-.1 22 .3 40.9-16.2 32.2-41.2-1.5-4.3-4.7-8.5-7.1-12.3l-44.1-67.6-23.6 36.8-25.3-36.8L49.5 149c-11 0-19.4 2.6-10.6-11.9l60.5-99c.8-1.2 1.4-2.3 2.4-3.4 2.9-3.1 5.8-3.5 9-.4 1.1 1.1 2 2.3 2.9 3.6l18.2 25.6 5.6-9.1-15.4-22.3c-9.8-14.2-20.3-18.4-31.6-.9L26.8 134.8c-.7 1-1.2 2.1-1.7 3.2-5.1 11.6.6 23.2 15.2 23.5zm8.2 15.5c3.8-.1 7.3-.1 10.5-.1 4.2-.1 6.8-.4 8.6-3.3l1.1-1.8 38.7-64.1 25.5 38.7 23.5-38.7c3.1 4.6 24.9 36.7 25.2 38.9.2 1.3-.5 2.2-2.1 2.5h-76.9c-2.1 4.4-5 8.5-7.2 12.9h63.7c5.4 0 11.3-.1 16.7-.3 3.5-.1 6.7-.5 8.8-1.5 8.1-3.7 11.4-13.6 6-22.2l-34.2-53.8-23.5 39.2-25.4-39.5-40.9 68.4-7.8 12-7.9.4h-.6c-13.2.3-32.5.4-31.2-20.5v-1.1c.2-1.6.8-4.2 2.4-6.9 19-30.4 38.7-65.1 58.8-95.6 4.3-6.5 10.8-17.9 16.8-22.4C115.3 5 126.9 34 139.5 50.6l5.7-9.9c-4.1-5.3-19.6-30.2-25.5-33.7-11.4-6.7-25.5-5.2-33.9 7.7L12.6 127.2c-16.9 26-.3 45.1 21.3 49.2 5.1.9 9.5.7 14.6.6z" fill="url(#a)"/></svg>