<svg id="Слой_1" xmlns="http://www.w3.org/2000/svg" viewBox="0 0 1181.9 179"><style>.st0{fill:#262626}.st1{fill:#f70}</style><g id="Слой_x0020_1"><path class="st0" d="M438.9 123.8c.4-.8.1-61.3.2-67.8l.1-23.2c6-1.4 17.3 1.7 22.6 4.9 2.6 1.5 3 1.8 5 3.6 2.6 2.3 3.8 3.5 5.8 6.7.9 1.4 1.6 2.9 2.3 4.7 1.2 3.2 2.2 8.6 2 12.1-.5 6-2.2 11.2-5.3 15.8-1.7 2.5-4.5 5.4-6.9 7.2-.8.6-1.1.9-2 1.4-.7.4-1.6 1.1-2.3 1.3.2 1 11 18.5 13.3 22.1.5.8 1.3 2.6 2.1 3.1 1.6-1.2 3.6-2.1 5.2-3.3.9-.7 1.6-1.2 2.5-1.9 2.3-1.8 6.3-5.4 8-7.4.5-.5.5-.7 1-1.2.7-.7 1.5-2 2.1-2.4.7.5 2.6 3.2 3.7 4.3 2 2.3 4 3.9 6.3 6 .7.6 1.5 1.3 2.3 1.8l10.1 6.1c3.8 1.9 8 3.1 12.2 4.2 1.5.4 5.4 1.2 6.9 1.2.9-.8 10.7-20.1 12.7-23.8l3.9-7.4v-.1l-.1-.4c-.9.2-1.3.4-2.1.7-10.4 3-21.3-.5-28.9-8.1-13.2-13.1-9.9-37.3 7.7-46.1 17.4-8.7 37.2.6 42 18.5l16.9-32c-.4-.2-1.6-1.7-2.1-2.2-1.9-1.9-4.8-4.5-6.9-6.1-2.4-1.8-8.3-5.5-10.8-6.5-1-.4-2-.9-3-1.3-3.7-1.3-5.9-2.1-9.9-3-3.4-.8-11.4-1.8-15.9-1.3-6.7.7-11.5 1.3-17.8 3.8-1 .4-2 .7-3.1 1.2-3.4 1.6-8 4.1-11 6.3-1.7 1.3-3.2 2.4-4.8 3.9-1.2 1.1-3 2.4-4.4 4.2-.7.9-1.2 1.5-2 2.4l-1.4 1.8c-.4.4 0 .3-.7.5-.3-1.1-2.5-3.1-3.3-4.1-7.3-8.2-16-13.6-26.5-17.1C458 4.7 453.1 4 445.5 4h-44.1v120.2c2.7-.3 35.8 0 37.5-.4zm466-1.2c0 .5.1.7.7.7h46.6c.5 0 .7-.1.7-.7V74.4h22.3v48.2c0 .5.1.7.7.7h46.6c.5 0 .7-.1.7-.7V3.7h-48v42.5h-22.3V3.7h-48v118.9zM768.2 38c.2 1.4 9.9 18.4 11.5 21.4 9.6 17.8 19.8 35.4 29.2 53.1.9 1.8 1.9 3.5 2.9 5.3.4.7 2.6 4.9 3.1 5.4v-7.8c0-1.8-.3-2.3.7-3.1.5-.4.5-.3 1-.8l3.2-2.7c.4-.3.6-.6.9-.9l3.2-2.7c3.2-2.6 9.9-8.8 12.5-10.9l6.4-5.4v34.5h46.6V3.7h-46.6v41.4c0 3.2.3 2.8-1.7 4.3l-9.8 7.9c-2.1 1.6-15.3 12.8-16.7 13.1 0-2.9.2-5.2.2-7.9V3.7h-46.9l.3 34.3zM264 4.4v118.9c0 .9 1.8.9 2.7.9h33.9V33.9h43.2v90h34.8V3.7H264.7c-.5 0-.7.1-.7.7zM702.5 53c-.2 1.3-3.9 7.6-4.7 9.2-1.4 2.7-13.8 26.1-14.4 26.7-.4 1.2-2.1 4.1-2.7 5.3-1 1.8-1.8 3.5-2.8 5.2l-13.2 24.8 39.3-.9 18.7-33.9 7.6-13.6 7.5 12.9c.7 1.2 2.2 3.4 2.3 4.6.8.7 1.6 2.5 2.2 3.6l15.2 26.4h38L729.3 3l-14.1 26.6c-.3.5-.6 1-.9 1.6L702.5 53zm386.2 18.6c1-.5 8.9 0 10.9-.2l-.3-23h-10.7c0-14.2-.1-28.5 0-42.7 0-1.9.3-1.6-3.7-1.6-2.1 0-3.3-.3-5.2-.2H1069c-3.8 0-6.8-.2-10.5-.2h-10.7v115.2c0 2.7-.5 4.1.7 4.3h7.5c1 0 1.1-.2 2.3-.2h30.2l.2-51.4zm23-23.6c-.1 4.1 0 8.2 0 12.3 0 2.4-.3 10.7.2 12.5l18.4 40.9c.4 1 .9 2 1.4 3.1l2.9 6.4h40.7c0-1.7-8.2-17.1-9.4-20.1l-19.5-39.7c-.5-1-1.6-3-1.9-4 1.4-2 2.7-5 3.8-6.9 3.1-5.1 6.5-11.9 9.7-17.3l5.8-10.4c.7-1.2 1.3-2.2 2-3.5.4-.7.6-1 1-1.7.4-.8.6-1.2 1-1.8l6.7-12.2c.4-.7.7-.9.8-1.9h-40.9l-13.9 27.6c-1 2-1.8 3.7-2.8 5.6-.4.6-5.4 10.6-6 11.1z"/><path class="st1" d="M609.7 25.3c-.3 1.2-5.4 10.6-6.3 12.4l-44.8 85.5h17.5l22.5.1.1-.2v-.3l.2-.2c.3-.8.5-.8.8-1.5l38.9-75.5c1.8-3.7 2.5-3.6 1.5-5.5-.7-1.3-2.5-4.3-2.7-5.5l-4-7.6c-.7-1.2-1.3-2.4-2-3.7L621.3 4.1c-.8.2-.6.2-1 1l-9.1 17.5c-.6 1-.9 1.9-1.5 2.7zm54.7 0c-.3 1.1-3.8 8-4.6 9.6l-27.1 56.2 16.3 32.6c1-.8 17.5-31.1 21-37.6 1.7-3.2 3.8-6.9 5.6-10.1l7.7 12.9c.6-.6 13-24 14.4-26.7.8-1.6 4.5-7.9 4.7-9.2l-5.2-9.2c-.6-1-1.1-2-1.7-3.1L681 14.5c-.3-.6-.5-1-.9-1.6l-4.3-7.7c-.5-.8-.3-1.1-1.2-1.3-.3 1.2-1.9 4-2.5 5.2-.4.9-.7 1.7-1.2 2.7l-6.5 13.5zm39.6 97.9h37.1c-.1-1-5.7-10.9-6.4-12l-2.2-4.2c-.8-.6-4.2-7.3-5.1-8.8-1-1.9-4.5-7.6-4.8-9l-18.6 34z"/><path class="st0" d="M264.4 143.1v-3.7h20.7v3.7h-8.4v34h-3.9v-34h-8.4zm26.3-3.7h21.7v3.7h-17.9v11.8h17.7v3.7h-17.7v14.9h17.7v3.7h-21.5v-37.8zm26.3 0h4.4l9.1 14.6 9.1-14.6h4.5l-11.3 18.2 12.1 19.5h-4.5l-9.8-15.9-9.9 15.9h-4.5l12.1-19.5-11.3-18.2zm34.1 0h3.8v15.8h19.3v-15.8h3.8v37.7h-3.8v-18.2h-19.3v18.2h-3.8v-37.7zm54.1-1c5.8 0 10.5 1.9 14.4 5.7s5.8 8.5 5.8 14.1c0 5.5-1.9 10.2-5.8 14.1-3.9 3.9-8.6 5.8-14.1 5.8-5.6 0-10.3-1.9-14.2-5.8-3.9-3.8-5.8-8.4-5.8-13.9 0-3.6.9-7 2.6-10.1 1.8-3.1 4.2-5.5 7.2-7.3 3.1-1.7 6.4-2.6 9.9-2.6zm.2 3.7c-2.8 0-5.4.7-8 2.2-2.5 1.4-4.5 3.4-5.9 5.9s-2.1 5.2-2.1 8.2c0 4.5 1.6 8.2 4.7 11.3s6.9 4.6 11.3 4.6c2.9 0 5.7-.7 8.2-2.1 2.5-1.4 4.5-3.4 5.9-5.8 1.4-2.4 2.1-5.2 2.1-8.2s-.7-5.7-2.1-8.1c-1.4-2.4-3.4-4.4-5.9-5.8-2.6-1.4-5.3-2.2-8.2-2.2zm58.4 35h-4.1l-12.6-29.2-12.8 29.2h-4.1l16.5-37.7h.9l16.2 37.7zm24.4-38.7c5.8 0 10.5 1.9 14.4 5.7s5.8 8.5 5.8 14.1c0 5.5-1.9 10.2-5.8 14.1-3.9 3.9-8.6 5.8-14.1 5.8-5.6 0-10.3-1.9-14.2-5.8-3.9-3.8-5.8-8.4-5.8-13.9 0-3.6.9-7 2.6-10.1 1.8-3.1 4.2-5.5 7.2-7.3 3.1-1.7 6.4-2.6 9.9-2.6zm.2 3.7c-2.8 0-5.4.7-8 2.2-2.5 1.4-4.5 3.4-5.9 5.9s-2.1 5.2-2.1 8.2c0 4.5 1.6 8.2 4.7 11.3s6.9 4.6 11.3 4.6c2.9 0 5.7-.7 8.2-2.1 2.5-1.4 4.5-3.4 5.9-5.8 1.4-2.4 2.1-5.2 2.1-8.2s-.7-5.7-2.1-8.1c-1.4-2.4-3.4-4.4-5.9-5.8-2.6-1.4-5.3-2.2-8.2-2.2zm31.4 35H516v-37.7h19v3.7h-15.2v34zm50.5 0h-4v-29l-25 29h-.9v-37.7h3.8v29.4l25.2-29.4h.9v37.7zm39.1 0h-4v-29l-25 29h-.9v-37.7h3.8v29.4l25.2-29.4h.9v37.7zm36.8 0l5.2-37.7h.8l15.4 30.9 15.3-30.9h.6l5.4 37.7h-3.7l-3.8-27-13.4 27h-1l-13.6-27.2-3.6 27.2h-3.6zm50.2-37.7h21.7v3.7h-17.9v11.8h17.7v3.7h-17.7v14.9h17.7v3.7h-21.5v-37.8zm24.5 3.7v-3.7h20.7v3.7h-8.4v34h-3.9v-34h-8.4zm41.7-3.7l17.7 37.7h-4.1l-5.9-12.4h-16.4l-5.9 12.4h-4.2l17.9-37.7h.9zm-.4 7.9l-6.5 13.7h13l-6.5-13.7zm54.7 29.8h-4.1l-12.6-29.2-12.8 29.2h-4.1l16.5-37.7h.9l16.2 37.7zm24.4-38.7c5.7 0 10.5 1.9 14.4 5.7s5.8 8.5 5.8 14.1c0 5.5-1.9 10.2-5.8 14.1-3.9 3.9-8.6 5.8-14.1 5.8-5.6 0-10.4-1.9-14.2-5.8-3.9-3.8-5.8-8.4-5.8-13.9 0-3.6.9-7 2.6-10.1 1.8-3.1 4.2-5.5 7.2-7.3 3.1-1.7 6.4-2.6 9.9-2.6zm.2 3.7c-2.8 0-5.5.7-8 2.2-2.5 1.4-4.5 3.4-5.9 5.9s-2.1 5.2-2.1 8.2c0 4.5 1.6 8.2 4.7 11.3 3.1 3.1 6.9 4.6 11.3 4.6 2.9 0 5.7-.7 8.2-2.1 2.5-1.4 4.5-3.4 5.9-5.8 1.4-2.4 2.1-5.2 2.1-8.2s-.7-5.7-2.1-8.1c-1.4-2.4-3.4-4.4-5.9-5.8-2.6-1.4-5.3-2.2-8.2-2.2zm45.7-3.7c5.7 0 10.5 1.9 14.4 5.7s5.8 8.5 5.8 14.1c0 5.5-1.9 10.2-5.8 14.1-3.9 3.9-8.6 5.8-14.1 5.8-5.6 0-10.3-1.9-14.2-5.8-3.9-3.8-5.8-8.4-5.8-13.9 0-3.6.9-7 2.6-10.1 1.8-3.1 4.2-5.5 7.2-7.3 3.1-1.7 6.4-2.6 9.9-2.6zm.2 3.7c-2.8 0-5.5.7-8 2.2-2.5 1.4-4.5 3.4-5.9 5.9s-2.1 5.2-2.1 8.2c0 4.5 1.6 8.2 4.7 11.3 3.1 3.1 6.9 4.6 11.3 4.6 2.9 0 5.7-.7 8.2-2.1 2.5-1.4 4.5-3.4 5.9-5.8 1.4-2.4 2.1-5.2 2.1-8.2s-.7-5.7-2.1-8.1c-1.4-2.4-3.4-4.4-5.9-5.8-2.7-1.4-5.3-2.2-8.2-2.2zm27.6 35v-37.7h19v3.7h-15.2v12.1h1.8c4.7 0 8.1.4 10.3 1.2 2.1.9 3.8 2.2 5 3.9 1.2 1.8 1.8 3.8 1.8 6 0 2.9-1.1 5.4-3.2 7.5-2.2 2.2-5.2 3.3-9 3.3H915zm3.9-18.2v14.5h4.6c2.7 0 4.8-.3 6-.8 1.3-.5 2.3-1.4 3.1-2.5s1.1-2.4 1.1-3.8c0-1.7-.5-3.2-1.6-4.5s-2.4-2-4-2.4-4-.6-7.1-.6h-2.1v.1zm26.4-19.5h7.5c4.3 0 7.3.2 8.8.5 2.2.5 3.9 1.6 5.3 3.3 1.4 1.6 2.1 3.7 2.1 6.2s-.7 4.6-2 6.2c-1.3 1.6-3.2 2.7-5.5 3.3-1.7.4-5 .6-9.7.6h-2.7V177h-3.8v-37.6zm3.8 3.7v12.8l6.4.1c2.6 0 4.5-.2 5.7-.7s2.2-1.2 2.8-2.3 1-2.2 1-3.5-.3-2.4-1-3.5-1.6-1.8-2.7-2.2c-1.1-.5-3-.7-5.6-.7h-6.6zm43-3.7l17.7 37.7h-4.1l-5.9-12.4h-16.4l-5.9 12.4h-4.2l17.9-37.7h.9zm-.5 7.9l-6.5 13.7h13l-6.5-13.7zm24 29.8v-37.7h19v3.7h-15.2v12.1h1.8c4.7 0 8.1.4 10.3 1.2 2.1.9 3.8 2.2 5 3.9 1.2 1.8 1.8 3.8 1.8 6 0 2.9-1.1 5.4-3.3 7.5-2.2 2.2-5.2 3.3-9 3.3h-10.4zm3.8-18.2v14.5h4.6c2.7 0 4.8-.3 6-.8 1.3-.5 2.3-1.4 3.1-2.5.8-1.1 1.1-2.4 1.1-3.8 0-1.7-.5-3.2-1.6-4.5-1.1-1.2-2.4-2-4.1-2.4-1.6-.4-4-.6-7.1-.6h-2v.1zm44.5-20.5c5.7 0 10.5 1.9 14.4 5.7s5.8 8.5 5.8 14.1c0 5.5-1.9 10.2-5.8 14.1-3.9 3.9-8.6 5.8-14.1 5.8-5.6 0-10.4-1.9-14.2-5.8s-5.8-8.4-5.8-13.9c0-3.6.9-7 2.6-10.1 1.8-3.1 4.2-5.5 7.2-7.3 3.1-1.7 6.4-2.6 9.9-2.6zm.2 3.7c-2.8 0-5.5.7-8 2.2-2.5 1.4-4.5 3.4-5.9 5.9s-2.1 5.2-2.1 8.2c0 4.5 1.6 8.2 4.7 11.3s6.9 4.6 11.3 4.6c2.9 0 5.7-.7 8.2-2.1 2.5-1.4 4.5-3.4 5.9-5.8 1.4-2.4 2.1-5.2 2.1-8.2s-.7-5.7-2.1-8.1c-1.4-2.4-3.4-4.4-5.9-5.8-2.6-1.4-5.3-2.2-8.2-2.2zm23.9 1v-3.7h20.7v3.7h-8.4v34h-3.9v-34h-8.4zm26.2-3.7h3.9v14.1l15.2-14.1h5.1l-18.3 16.9 19.7 20.8h-5.1l-16.7-17.6v17.6h-3.9v-37.7h.1zm61.1 37.7h-3.9v-29l-25 29h-.9v-37.7h3.8v29.4l25.2-29.4h.9l-.1 37.7z"/><path class="st1" d="M99.6 144.1c-.4.4.4.1-.8.5l-6.8.4c-2.4 0-4.9-.4-7.1-.6-4.8-.5-9.3-1.9-13.2-3.5-2.1-.9-3.8-1.7-5.5-2.6-1.4-.8-4.1-2.7-5.2-3.2l-11.4 11.4c-1.6 1.6-1.6 1.3-1.7 4l-.2 17.3 22.5 9.1 13.1-14.1c4.9.3 11.7.8 16.7.1.7-.1 1.4-.3 1.8.1l13.2 13.6 22.8-9.2-.5-19.6c3.5-2 10.4-9.5 12.9-12.9l19.5.4 9.2-22.8-14.1-13.2c-.1-2.7.4-6 .4-9.1 0-11-2.5-7.7 2.8-12.5l10.5-10.1-9.3-22.8-16.8.5c-2.9.1-2.5-.3-4.2 1.5-1.7 1.8-10.2 10.5-11.5 11.4.5 1.7 2.4 4 3.3 5.7 1 1.9 2.1 4 2.9 6.2 11 28.9-2.7 59.2-29.2 70.4-2.4 1.1-11 4.2-14.1 3.6z"/><path class="st0" d="M47.8 121.9c-.7-1.3-1.7-2.6-2.4-3.8-6.1-10.1-8.7-22.7-7.3-34.6 3-24.9 23.6-45.2 48.5-47.7 7.7-.8 14.3-.1 21.2 1.9 9.6 2.8 15.1 7.3 16.1 7.6 3.7-3.6 7.5-7.6 11.5-11.6 1.7-1.7 1.5-1.4 1.5-4.3l.2-16.6-22.5-9.2c-1.2.8-8.6 8.9-10.3 10.8-.9 1-2.1 3-3.4 3.1-5.9-.5-11.8-.6-17.7.1-.1 0-.3-.1-.4-.2l-1.2-1c-.4-.4-.8-.8-1-1.1L69.5 3.9l-22.4 9.3c-.6 2.4.3 16.2.4 19.5-3.7 2.4-10.5 9.4-12.9 13.1l-8.2-.2-11.2-.3-9.2 23L20.2 82v.1c-.1.9-1 3-.8 8.8 0 2.2.8 6.8.7 8.5-.1 1-1.3 1.8-2 2.5L6.3 113.2l9.3 22.8 16.9-.5c2 0 2.7-.3 4.2-1.8 1.8-2.2 10.3-10.3 11.1-11.8zm48-6.6c-.2.2.2.1-.4.2l-3.1.2c-1.1 0-2.3-.2-3.3-.3-2.2-.2-4.3-.9-6.1-1.6-1-.4-1.8-.8-2.6-1.2-.6-.4-1.9-1.3-2.4-1.5-.6.4-4.4 4.4-5.3 5.3-.7.7-.7.6-.8 1.8-.1 1.8-.3 6.8-.1 8l10.5 4.2 6.1-6.6c2.3.2 5.4.4 7.8 0 1.2-.2 1.4.3 2.9 2.1 1.1 1.3 2.8 2.7 4 4.3.9-.1 4.4-1.7 5.4-2.1 1.7-.7 3.6-1.6 5.2-2.2.3-1.7-.1-7-.2-9.1 1.6-.9 4.8-4.4 6-6l9.1.2 4.3-10.6c-1.2-1.2-2.2-2-3.3-3l-3.3-3.1c0-1.3.2-2.8.2-4.2 0-5.1-1.2-3.6 1.3-5.8l4.9-4.7c-.1-.8-1.7-4.3-2.1-5.3-.6-1.4-1.8-3.8-2.2-5.3l-7.8.3c-1.4 0-1.2-.1-2 .7s-4.7 4.9-5.3 5.3c.2.8 1.1 1.9 1.5 2.6.5.9 1 1.9 1.3 2.9 5.1 13.4-1.2 27.5-13.6 32.8-1.1.5-5.2 2-6.6 1.7z"/><path class="st1" d="M71.7 105c-.3-.6-.8-1.2-1.1-1.8-2.8-4.7-4-10.6-3.4-16.1 1.4-11.6 11-21 22.6-22.2 3.6-.4 6.7 0 9.9.9 4.5 1.3 7 3.4 7.5 3.5 1.7-1.7 3.5-3.5 5.3-5.4.8-.8.7-.7.7-2 0-.9 0-1.7.1-2.6.1-1.3.2-3.9 0-5.1l-10.5-4.3c-.6.4-4 4.1-4.8 5-.4.5-1 1.4-1.6 1.5-.5.1-3.2-.2-4.1-.2-2 0-4 .5-4.6 0l-.3-.3-.5-.5-5.2-5.4-10.3 4.4c-.3 1.1.1 7.5.2 9.1-1.7 1.1-4.9 4.4-6 6.1l-9-.2c-.5 1-4.2 10.1-4.3 10.7 1.4 1.5 3.1 2.9 4.5 4.2 3.1 3 1.7.6 1.7 6.3 0 1 .4 3.2.3 3.9 0 .5-.6.9-.9 1.2-1.5 1.4-4.4 4-5.5 5.3.1.9.9 2 1.2 2.6.1.3.4 1 .5 1.4.8 2.6 1.8 4 2.6 6.6 1.8-.1 3.6-.1 5.5-.2 3.1-.1 3.3.2 4.3-.9.9-1.1 4.8-4.8 5.2-5.5z"/></g></svg>