<svg xmlns="http://www.w3.org/2000/svg" viewBox="0 0 853 219"><path fill="#666" stroke="#000" stroke-miterlimit="10" d="M0 0h853v219H0z"/><linearGradient id="a" gradientUnits="userSpaceOnUse" x1="32241.398" y1="24989.029" x2="32183.398" y2="18941.859" gradientTransform="translate(-526.636 -507.89) scale(.02835)"><stop offset="0" stop-color="#c7c7c7"/><stop offset=".439" stop-color="#e0e0e0"/><stop offset="1" stop-color="#c6c6c6"/></linearGradient><path d="M183.5 197.6h-51.1v-125H92.3v51c0 20.9-1.1 36.3-3.3 46.2-2.2 9.8-7.5 17.1-15.6 21.7-8.2 4.6-21.4 6.9-39.6 6.9-5.6 0-12-.6-19.2-1.8V163h7.7c6.9 0 11.8-1.5 14.7-4.6 2.9-3 4.3-8.6 4.3-16.8V31.9h142.4v165.7h-.2zm15.7-82.7c0-27 7.5-48.1 22.6-63.2s36.1-22.6 63-22.6c27.6 0 48.8 7.4 63.8 22.2 14.9 14.8 22.4 35.6 22.4 62.2 0 19.4-3.3 35.2-9.8 47.6-6.5 12.4-16 22-28.3 28.9-12.4 6.9-27.7 10.3-46.1 10.3-18.7 0-34.1-3-46.4-8.9-12.2-6-22.2-15.4-29.8-28.3-7.6-12.7-11.4-28.9-11.4-48.2zm51.2.1c0 16.7 3.1 28.7 9.4 36 6.2 7.3 14.7 10.9 25.5 10.9 11 0 19.6-3.6 25.6-10.7 6.1-7.2 9.1-20 9.1-38.6 0-15.6-3.2-27-9.4-34.1-6.3-7.2-14.9-10.8-25.7-10.8-10.3 0-18.7 3.7-24.9 10.9-6.5 7.4-9.6 19.5-9.6 36.4zm136.1-83.1H454l25.7 100.9 25.8-100.9h67.2v165.7h-41.9V71.3l-32.3 126.3h-38L428.4 71.3v126.3h-41.9V31.9zm200.8 83c0-27 7.5-48.1 22.6-63.2s36.1-22.6 63-22.6c27.6 0 48.8 7.4 63.8 22.2 14.9 14.8 22.4 35.6 22.4 62.2 0 19.4-3.2 35.2-9.8 47.6-6.5 12.4-16 22-28.3 28.9s-27.7 10.3-46.1 10.3c-18.7 0-34.1-3-46.4-8.9-12.2-6-22.2-15.4-29.8-28.3-7.5-12.7-11.4-28.9-11.4-48.2zm51.2.1c0 16.7 3.1 28.7 9.3 36 6.3 7.3 14.7 10.9 25.5 10.9 11 0 19.6-3.6 25.6-10.7 6.1-7.2 9.1-20 9.1-38.6 0-15.6-3.2-27-9.5-34.1-6.3-7.2-14.9-10.8-25.7-10.8-10.3 0-18.7 3.7-24.9 10.9-6.3 7.4-9.4 19.5-9.4 36.4z" fill="url(#a)"/><linearGradient id="b" gradientUnits="userSpaceOnUse" x1="46774.629" y1="20067.273" x2="46712.527" y2="18723.424" gradientTransform="translate(-526.636 -507.89) scale(.02835)"><stop offset="0" stop-color="#c7c7c7"/><stop offset=".439" stop-color="#e0e0e0"/><stop offset="1" stop-color="#c6c6c6"/></linearGradient><path d="M791.9 39.7v-9.8c.5-.1 3 0 3.7 0 1.1 0 2.3.1 3.3.4 2 .6 2.9 2 2.9 4.5 0 5.3-4.2 4.9-8.1 4.9-.5 0-1.2.1-1.8 0zm-9.8 21.2h9.8V46.5c1-.1 2.5 0 3.5 0 3.1.2 4.5 2 5.9 4.8l3.5 7.2.6 1.2c.2.4.4.9.6 1.2h10.4c0-.3-4.7-9.6-4.9-10-.8-1.7-1.7-3.4-2.7-4.7-2.4-2.9-3.9-2.7-4.4-3.1.3-.1.9-.3 1.2-.5 3-1.2 5.1-3.3 5.8-6.7.4-2.1.3-4.5-.3-6.4-1.8-6-9-6.7-14.7-6.7h-10.7c-1.2 0-2.5-.1-3.6 0v38.1z" fill="url(#b)"/><linearGradient id="c" gradientUnits="userSpaceOnUse" x1="46783.848" y1="20619.154" x2="46684.277" y2="18227.984" gradientTransform="translate(-526.636 -507.89) scale(.02835)"><stop offset="0" stop-color="#c7c7c7"/><stop offset=".439" stop-color="#e0e0e0"/><stop offset="1" stop-color="#c6c6c6"/></linearGradient><path d="M796.6 11.2c5.6-.4 11.5 1.2 16.1 3.6 2.3 1.2 3.9 2.4 5.9 4l1 .9c.3.3.7.6 1 1l.9 1c.1.1.3.4.5.6 1.7 2.1 3 3.8 4.3 6.5 2.1 4.4 2.9 7.5 3.2 12.5.3 4.4-.7 9.4-2.3 13.4-2.4 6-7.2 11.7-12.7 14.9-4.6 2.7-9.1 4.3-15 4.6-4.7.3-9.6-.7-13.4-2.3-4-1.7-6.9-3.7-9.6-6.2-9-8.3-12.8-22.1-7.7-35 2.8-7 8.4-12.9 15.2-16.3 4.2-2 8-2.9 12.6-3.2zM832 43.9c.7-19.2-14.3-34.5-32.6-35.2-9.4-.3-18.4 3.2-24.6 9.3-1 1-2.2 2.2-3.1 3.3l-.9 1.2c-3.7 5-6.4 12.1-6.6 18.8-.1 2.7.1 5.3.6 7.9.5 2.3 1.1 4.6 2 6.5 1.5 3.4 2.6 5.2 4.7 8 1.3 1.7 3.7 4.2 5.3 5.3l1.2.9c1.5 1.2 3.3 2.3 5.3 3.2 4 1.9 8.5 3.2 13.6 3.4 19.1.7 34.4-14.2 35.1-32.6z" fill="url(#c)"/></svg>