<svg id="Слой_1" xmlns="http://www.w3.org/2000/svg" viewBox="0 0 250.4 193"><style>.st0{fill:#0306d6}</style><path class="st0" d="M181.9 10.8c10.3-1.8 21.1 0 30.4 4.7.2 9 .2 18 0 27-2-2.3-4.1-4.6-6.7-6.3-6.2-4.1-13.9-5.6-21.2-4.1-6.6 1.5-13.4 4.4-17.2 10.3-5.2 8-6.8 18.4-3.4 27.4-6.4 4.4-13.1 8.5-19.6 12.8-5.2 3.3-10.3 6.7-15.5 9.9-3.7-6.3-7.7-12.3-11.5-18.6-2.8 1.6-5.4 3.5-8.2 5.2-1.6-1.9-2.7-4.1-4.1-6.1-4.8 2.8-9.4 6.1-14.2 9-2.4 1.7-5 3.1-7.3 4.9 1.4 2 2.6 4.1 3.9 6.2-15.1 9.8-30.2 19.5-45.3 29.3-10 6.4-20.1 13.2-30.4 19.6 0-7.8-.1-15.6 0-23.4 10.4-6.6 20.7-13.4 31.1-20 7.7-5.2 15.7-10 23.4-15.2-1.3-2.1-2.6-4.2-4-6.2C73.5 69.7 85 62.4 96.5 55c2.7-1.8 5.4-3.6 8.2-5.2 3 4.6 5.9 9.3 9 13.8 2.5-1.5 4.9-3.2 7.4-4.6 2.8 4.2 5.3 8.5 8.1 12.7 3.9-2.2 7.4-5 11.5-7.1-.1-2.8-.2-5.6 0-8.4.6-9.3 3.9-18.4 9.5-25.9 7.4-10.4 19.1-17.5 31.7-19.5zm12.9 76.5c6.9-1 13.1-5 17.5-10.3.1 8.9.2 17.8 0 26.6-5.9 2.7-12.1 4.6-18.6 5.2-4 .1-8.1.3-12-.5-4.3-.7-8.3-2.2-12.3-3.6-4.6 3.1-9.3 6-13.9 9 2.4 4.1 5 8 7.5 11.9.2.4.6.8.3 1.2-1.8 1.4-4 2.2-5.8 3.7-.1.1-.2.4-.3.5 1.8 3.1 3.9 6 5.8 9.1.7 1.4 1.2 2.8 2.1 4.1-5.6 3.9-11.5 7.4-17.2 11.2-8.1 5.2-16.1 10.4-24.2 15.6-.6.3-1.3 1.1-1.9.4-1.9-1.9-3.2-4.3-4.5-6.7-2.1 1-3.9 2.3-5.8 3.5-8.4 5.4-16.7 10.7-25 16.2-.9.6-1.9.4-2.9.4-11.3-.1-22.6.1-33.8-.1 15.2-10 30.5-19.7 45.8-29.6 7.5-4.8 15-9.8 22.6-14.5 1.6 2.3 3 4.7 4.7 7 6.8-4.5 13.8-8.8 20.6-13.4-1.4-2.4-2.9-4.7-4.4-7.1 2.7-1.9 5.5-3.5 8.2-5.4-3.2-5.4-6.7-10.5-9.8-15.9 12-7.9 24.1-15.6 36.2-23.4 6.1 4.2 13.8 6.3 21.1 4.9z" id="Слой_x0020_1"/><path class="st0" d="M189.9 12.2c26.1 0 47.4 21.3 47.4 47.4S216 107 189.9 107c-7.5 0-14.8-1.8-21.5-5.2 1.6-.7 3.1-1.6 4.6-2.8 1.9-1.5 6.3-5.4 9-10.4 2.6.7 5.3 1.1 8 1.1 16.6 0 30.1-13.5 30.1-30.1S206.6 29.5 190 29.5 159.9 43 159.9 59.6c0 1.1.1 2.3.2 3.4-1.7.4-3.3 1.5-4.4 2.9-1 1.4-1.5 3-1.4 4.6-.7.1-1.4.3-2.1.5-1.1.3-2.1.8-3 1.5-.2-.4-.4-.8-.5-1.2-1.1-2.4-3-3.7-5.4-3.8-.4-2.6-.7-5.3-.7-8-.1-26.1 21.1-47.3 47.3-47.3m0-2c-27.3 0-49.4 22.1-49.4 49.4 0 3.5.4 6.9 1.1 10.2.5-.2 1-.3 1.5-.3 1.5 0 2.9.8 3.7 2.6.4.9 1 2.2 1.7 3.7 1.1-1.3 2.6-2.3 4.2-2.9 1.3-.4 2.7-.6 4.1-.6-.1-.4-.3-.7-.4-1.1-.9-3.2 2.2-6.5 5.2-6.5.3 0 .5 0 .8.1-.3-1.7-.5-3.5-.5-5.3 0-15.5 12.6-28.1 28.1-28.1 15.5 0 28.1 12.6 28.1 28.1 0 15.5-12.6 28.1-28.1 28.1-3.2 0-6.2-.5-9-1.5-1.9 4.5-5.8 8.6-9.2 11.3-2.9 2.4-5.8 3.5-8.6 3.7 7.7 5 16.9 7.9 26.7 7.9 27.3 0 49.4-22.1 49.4-49.4-.1-27.3-22.2-49.4-49.4-49.4z"/></svg>