<svg id="Слой_1" xmlns="http://www.w3.org/2000/svg" viewBox="0 0 248.2 135.4"><style>.st1{fill:#fff}</style><g id="Слой_x0020_1"><path fill="#19519e" d="M5.1 2.3h238.6v131.2H5.1z"/><g id="_2442401088"><path class="st1" d="M218.1 26.1V22h1.5c.5 0 1 0 1.4.1.8.3 1.2.9 1.2 1.9 0 2.2-1.8 2-3.4 2-.2.1-.5.1-.7.1zm-4.2 8.9h4.1v-6h1.5c1.3.1 1.9.9 2.5 2l1.5 3c.1.2.1.3.3.5.1.2.1.3.2.5h4.4c0-.1-2-4-2-4.2-.4-.7-.7-1.4-1.2-2-1-1.2-1.6-1.2-1.8-1.3.1-.1.4-.2.5-.2 1.2-.5 2.1-1.4 2.4-2.8.2-.9.1-1.9-.1-2.7-.8-2.5-3.7-2.8-6.2-2.8h-6l-.1 16z"/><path class="st1" d="M220 14.2c2.4-.1 4.8.5 6.7 1.5 1 .5 1.6 1 2.5 1.7l.4.4.4.4.4.4c.1.1.1.2.2.2.7.9 1.3 1.6 1.8 2.7.9 1.8 1.2 3.1 1.4 5.2.1 1.8-.3 3.9-1 5.6-1 2.5-3 4.9-5.3 6.2-1.9 1.2-3.8 1.8-6.3 1.9-2 .1-4-.3-5.6-1-1.7-.7-2.9-1.6-4-2.6-3.8-3.5-5.4-9.2-3.2-14.6 1.2-2.9 3.5-5.4 6.3-6.8 1.8-.7 3.4-1.1 5.3-1.2zm14.8 13.7c.3-8-6-14.5-13.7-14.7-3.9-.1-7.7 1.3-10.3 3.9-.4.4-1 .9-1.3 1.4-.1.2-.3.3-.4.5-1.6 2.1-2.7 5.1-2.7 7.9 0 1.2 0 2.2.3 3.3.2 1 .5 1.9.8 2.7.6 1.4 1.1 2.2 2 3.4.5.7 1.6 1.7 2.2 2.2.2.1.3.3.5.4.7.5 1.4 1 2.2 1.3 1.6.8 3.5 1.4 5.7 1.4 8 .2 14.5-6 14.7-13.7z"/></g><path class="st1" d="M61.3 66.4c.1.2 2.8.4 3.2.5l9.6 1.2c12.6 1.5 25.2 3.1 37.7 4.5.1 0 .3 0 .4.1l.3.1c.2 1.2.2 2.5.2 3.7L61.4 70v4.2l50.8 6c.1.5-.8 3.1-1 3.6l-49.9-6c0 .2 0 .5-.1.7 0 .7.1 1.9 0 2.6-.1.5 0 .4.4.4l20.8 2.4c2.2.3 4.3.4 6.4.7.5.1 1 .1 1.6.2 2.9.4 5.8.7 8.8 1 .3 0 .6.1.8.1 2.1.3 4.3.5 6.4.7l2.4.3c.3 0 .6.1.9.1 0 .3-.5 1.3-.6 1.6-.7 1.4-1.6 2.9-2.7 4-.3.3-.4.5-.7.7l-1 .9c-.2.2-.4.3-.6.5-.9.7-1.8 1.2-2.7 1.7-.9.5-2.1 1-3.1 1.4-2.4.8-4.5 1.4-7.2 1.7-1.2.2-2.4.3-3.6.3-.3 0-.3.1-.5.1h-1.1c-.3.1-.6.1-1 .1-.8 0-1.4-.1-2.2-.1-.7 0-1.4-.1-2.1-.1-.3 0-.7-.1-1-.1l-3-.3c-.7-.1-1.3-.2-1.9-.3-1.9-.3-3.6-.7-5.4-1.2-2.2-.5-4.3-1.2-6.3-2.1l-1.2-.5c-.3-.1-.5-.2-.8-.3-.3-.1-.4-.2-.7-.3-.3-.1-.5-.3-.8-.4-.3-.1-.5-.3-.7-.4-1.6-.8-3.3-1.9-4.8-3-1.3-.9-2.4-2-3.5-3.1-.1-.1-.1-.2-.2-.3l-1.9-2c-3.3-3.2-9.2-8.6-14.7-6.9-1 .3-2.1 1-2.7 1.8l-.3.3-.2.3c-.9 1.7-1.1 2.9-1.3 4.8v.4c0 .2 0 .4.1.6.1 2.4.8 4.9 1.8 7 .4.9.9 1.7 1.4 2.5.7 1.1 1.5 2.2 2.4 3.2l2.8 2.7c.5.5 1 .8 1.6 1.2.5.3.8.6 1.2.9 1.8 1.2 3.6 2.4 5.5 3.3 1.8.9 2.8 1.3 4.6 2.1l1.6.6c.6.2 1.1.4 1.7.5.8.2 1.7.6 2.6.7l3.6.8c.3.1.6.1 1 .2 1.1.1 2.8.4 4 .5l2 .1c1.2.2 5.4 0 6.5 0l2-.2c1.7-.2 3.3-.4 4.9-.7 2.2-.4 4.2-.9 6.3-1.5l1.2-.4c.2-.1.3-.1.4-.1 1.1-.4 2.2-.8 3.2-1.2.5-.2 1-.4 1.6-.7 1.5-.7 3-1.5 4.4-2.3 1.8-1 3.7-2.2 5.3-3.6.4-.4.8-.7 1.2-1 .1-.1.2-.1.3-.2l.3-.3c.7-.5 2.2-2.1 2.8-2.8.1-.1.1-.2.2-.3 1.1-1.3 1.7-2 2.7-3.4.2-.2.3-.4.5-.7l1.3-2.1c.3-.5.5-1 .8-1.4.5-1 .9-2 1.4-3 .4-1 .9-2.2 1.1-3.3.3-1.2.6-2.4.8-3.6.2-1.3.4-2.7.4-4.1 0-.7.1-1.4.1-2.2-.1-1.4-.1-2.8-.3-4.1-.1-.7-.1-1.3-.3-1.9l-15.4-2c-2.3-.3-4.6-.5-6.9-.9l-5.2-.7c-1.1-.1-2.3-.3-3.4-.5-1.2-.1-2.3-.3-3.5-.4l-6.9-.9c-3.5-.5-6.9-.8-10.3-1.3-.6-.1-1.1-.1-1.7-.2-.5-.1-1.2-.2-1.8-.2 0 .8.1 1.7.1 2.4v1.9c.1.8.1.9.1 1.2zm107.9 15.3c.2-.3.1-1.1.1-1.5l1.1-37.1c0-.8.3-12.4.4-12.8 1.1-.2 2.5-.3 3.7-.3l-1.6 51.6c.3-.1.6-.1 1-.1s.7-.1 1-.1c.8 0 1.3-.1 2.1-.1l1.6-51.1c1.2.1 2.6.5 3.6.8l-1.6 50.2c1 0 1.9-.1 3-.1.8 0 .6-.1.7-.9.1-.7 0-1.6 0-2.3 0-.3.1-.4.1-.7v-1.6c.1-1.2.2-4.8.2-6 0-1 .1-2 .1-3l.1-1.5c0-.6.1-1 .1-1.5 0-2 .1-3.9.1-6 0-.5.1-.9.1-1.5l.1-1.5c0-2.1.1-4 .1-6.1l.1-3c.1-.4 0-1.1 0-1.5l.1-1.5c0-1 .1-2 .1-3 0-.6.1-.9.1-1.5l.1-5.2c0-.7-.1-.7 1.3-.1 1.6.7 2.7 1.3 4 2.2 2.2 1.7 3.9 3.8 5.3 6.2.7 1.2 1.8 3.4 2.2 4.8.4 1.4.9 2.7 1.2 4.2.5 2.4.9 4.9 1.1 7.4 0 .5 0 1 .1 1.4.1.5.1 1 .1 1.5 0 .3 0 .4.1.7v.8c0 1.4-.2 4.3-.3 5.8-.3 2.6-.7 4.9-1.2 7.3-.1.3-.1.4-.2.6-.2.8-.4 1.7-.7 2.4-.3 1-.6 2-.9 2.9-.5 1.3-1 2.6-1.6 3.8-1 2.1-2.2 3.9-3.6 5.6-.1.2-.2.3-.4.4-.5.7-1.9 1.9-2.6 2.8l-.4.4-.2.2-.2.2-.7.9c-.2.3-.5.6-.7.9-.4.6-.9 1.2-1.2 1.8-.4.7-.8 1.3-1.1 2-.6 1.1-1 2.1-1.3 3.3-.7 2.4-.6 5.4 1.2 7.3l.4.4c.2.2.2.3.4.4 1.5 1.1 2.7 1.4 4.5 1.7.3.1 1.1.1 1.4.1l1.4-.1c1-.1 2.2-.3 3.1-.7l3.8-1.6c1.3-.8 2.5-1.7 3.7-2.7l.7-.7c2.7-2.6 4.7-5.7 6.4-9 1.3-2.6 2.4-5.5 3.2-8.3.1-.3.1-.4.1-.7.5-1.5 1.4-6.2 1.4-7.8 0-.9.1-1.9.2-2.9s0-5.1-.1-6.1c-.1-1.9-.3-3.8-.6-5.5l-1-5.1c-.5-2.5-2.5-7.9-3.6-10.3-.2-.4-.3-.7-.5-1.1-.5-1-1-2-1.6-3-.2-.3-.4-.7-.6-1-1.2-2.3-2.9-4.4-4.5-6.4-.5-.6-1-1.1-1.4-1.6-.7-.9-1.5-1.6-2.3-2.4l-1.6-1.5c-1.1-1-2.3-1.8-3.5-2.7-1-.7-2.2-1.5-3.3-2l-1-.5c-.5-.3-1-.5-1.6-.7-2.2-1-4.6-1.7-7.1-2.2-.9-.2-1.7-.3-2.6-.4-.7-.1-1.4-.2-2.1-.2-.4 0-.5 0-.7-.1h-2.3c-.8 0-1.6.1-2.3.1-1.6.1-3.1.5-4.7.7-.4.1-.3 0-.4.4 0 .3-.1.4-.1.7v.8c-.1.5 0 1-.1 1.5l-.1 3c0 .3-.1.4-.1.7v.8c0 .3-.1.3-.1.7l-.1 1.4c0 1.3-.1 2.5-.1 3.8 0 .3 0 .4-.1.7v.8c0 .3-.1.4-.1.7l-.1 2.3c0 1.2-.1 2.5-.2 3.7l-.1 2.3c0 .6-.1.9-.1 1.5 0 1.8-.2 4.1-.2 6 0 1.8-.2 4.1-.2 6 0 1.8-.2 4.2-.2 6 0 2-.2 4-.2 5.9l-.1 1.5v.7c0 .3-.1.4-.1.7v.8c0 .3-.1.4-.1.7 0 .6-.1 1-.1 1.5.8 0 1.6-.1 2.4-.2l3-.3zM30.3 46.6l3-.6L44 44.3c1.2-.2 2.9-.4 4-.4.2 0 .6 0 .9-.1l4.1-.3h.9c2.2-.1 4.6-.1 6.8.1l1.9.1c2.4.3 4.7.6 7.1 1.2 1.8.4 3.7 1 5.4 1.8l1 .5c.1.1.2.1.3.2.7.3 1.4.7 2 1.1l4.4 2.7c3.1 2.1 6.2 4.1 9.5 6 2.6 1.5 5.6 3 8.6 3.8 2.2.5 4.8.7 6.9-.1.9-.3 1.8-.9 2.5-1.4.4-.3.7-.6 1-1 .7-.9 1.1-1.4 1.4-2.5.7-2 .2-4.3-.6-6.1-.7-1.5-1.5-2.9-2.4-4.3l-1.4-1.9c-.6-.8-1.4-1.7-2.1-2.4l-3.7-3.5c-1-1-2.2-1.9-3.3-2.7-.1-.1-.2-.1-.3-.2-2.2-1.5-3.4-2.4-5.8-3.6l-1.5-.8c-3.1-1.5-8.5-3.3-11.7-3.8-2-.3-3.8-.6-5.9-.8-2-.1-3-.2-5.2-.2-3.6 0-6.7.4-10 1-1 .2-2 .5-3 .7-2 .5-3.8 1.1-5.6 1.8-.2.1-.4.1-.7.3L45 31.7c-.8.4-1.6.9-2.3 1.4-2.4 1.5-5 3.6-6.9 5.6l-.2.3c-.1.2-.3.3-.5.5-.1.1-.1.1-.2.3l-.6.7c-1 1.2-1.4 1.8-2.4 3.2-.5.7-.9 1.6-1.4 2.3 0 .1-.2.3-.2.6zM128 70c0 1.3-.1 2.7.1 4v.5c0 .2 0 .7.1.9 0 .3.1.7.1 1 .1 1.8.4 3.7.8 5.4.3 1.4.6 2.8 1 4.2l.5 1.6c.2.5.3 1 .5 1.6.8 2.1 1.4 3.7 2.5 5.8 1.6 3.3 3.5 6 5.8 8.8l.9 1.1.5.5c.6.7 2.1 2.2 2.9 2.8.1.1.1.1.3.2.2.2.4.3.6.5.7.7 1.6 1.2 2.4 1.8l1.9 1.2c.7.4 1.3.7 2 1.1.3.1 1.2.7 1.5.7-.3-1.2-.7-2.4-1-3.5l-1.8-7.3c-.1-.3-.1-.6-.2-.9l-1.2-5.6c-.1-.3-.1-.6-.2-1s-.1-.6-.1-1c-.1-.3-.1-.7-.2-1l-.3-2c-.1-.7-.2-1.3-.2-2-.1-.7-.1-1.4-.2-2.1v-.6c-.4-4-.1-11.1.9-14.7.2-.9.4-1.8.7-2.7.3-.8.6-1.7 1-2.5s.8-1.6 1.1-2.3l.6-1.1 1.8-3.3 4.5-8.4.3-.6c.5-1.2 1-2.4 1.5-3.7.1-.2.1-.4.2-.6.1-.2.1-.4.2-.7.3-.8.5-1.8.7-2.7l.3-1.5c.6-4.2-.8-8-4.4-10.2-1.9-1.2-4-1.1-6.2-.5-1.2.3-2.4 1-3.4 1.7-1.1.7-1.9 1.4-2.8 2.1l-1.2 1-2.4 2.4-1.8 2.2c-.3.4-.6.7-.9 1.1-.2.2-.3.3-.4.5-.1.2-.3.4-.4.6-1.9 2.7-2.9 4.3-4.5 7.5-1.8 4-2.9 8-3.6 12.4-.1.5-.1 1.1-.2 1.8-.1.6-.1 1.2-.2 1.8L128 70z"/></g></svg>