<svg id="Слой_1" xmlns="http://www.w3.org/2000/svg" viewBox="0 0 258.3 257.9"><style>.st1{fill:#fff}</style><g id="Слой_x0020_1"><radialGradient id="SVGID_1_" cx="10273.846" cy="-10914.153" r="5655.48" gradientTransform="matrix(.0315 0 0 -.0315 -208.868 -259.21)" gradientUnits="userSpaceOnUse"><stop offset="0" stop-color="#5badf0"/><stop offset="1" stop-color="#0062bd"/></radialGradient><path d="M129.6 4.9C198.3 4.9 254 60.6 254 129.3s-55.7 124.4-124.4 124.4S5.3 198 5.3 129.3 61 4.9 129.6 4.9z" fill="url(#SVGID_1_)"/><path class="st1" d="M65.4 66.6c1.3-.1 2.6-.1 3.8 0 .9.1 1.8.5 2.5 1 5.1 3.3 11 5.3 17 6.3 6.7 1.1 13.5 1.1 20.4 1.3 28.3.7 56.6.9 84.8 1.3-.4.7-.7 1.4-1.1 2-2-.1-4.1 0-6.2 0H77.8c-.7 0-1.4 0-1.9-.4-.4-.3-.7-.7-1-1.1-2.8-3-5.7-6-8.4-9.2-.4-.2-.8-.7-1.1-1.2zm14.7 24.5h102.7c.9 0 1.9-.1 2.9.1-.4.7-.8 1.4-1.1 2.1-2.8-.1-5.6 0-8.4 0-30.7.1-61.3.1-92 0h-2.9c-.4-.7-.8-1.4-1.2-2.2zm6.6 11.9c.9-.1 1.7-.1 2.6-.1h42.2c16 0 32 0 48 .1-.4.7-.8 1.4-1.2 2.2-24.5.2-48.9 0-73.4.1-4.8 0-9.5.1-14.3 0-.9 0-1.7-.1-2.6.1-.5-.9-.9-1.7-1.3-2.4zm5.4 9.9h81.8c-.4.7-.7 1.4-1.1 2.1-25.5.2-51.1.2-76.6.2-.9 0-1.8 0-2.7.1-.5-.8-.9-1.6-1.4-2.4zm4.6 8.3h72.6c-.4.7-.8 1.5-1.2 2.2-.9-.1-1.8-.1-2.7 0-20.7.3-41.4 0-62.2.1-1.8 0-3.5.1-5.3-.1-.3-.7-.8-1.4-1.2-2.2zm6.1 7.5c20.8.1 41.6-.2 62.3.1-.4.7-.7 1.4-1.1 2.1h-47.7c-4.4 0-8.7 0-13.1-.1-.4 0-.8 0-1.2.1-.4-.7-.8-1.4-1.2-2.2h2zm1.6 6.5h57.2c-.3.7-.7 1.3-1.1 2h-55c-.3-.7-.7-1.3-1.1-2zm6.2 6c15.9-.1 31.8-.1 47.7.1l-1.2 2.1h-48.2l-1.2-2.1c1-.2 2-.1 2.9-.1zm.1 5.4c1.2-.1 2.3-.1 3.5-.1h38.7c.8 0 1.6 0 2.4.1-.4.8-.8 1.5-1.2 2.3-1.7-.1-3.3-.1-5-.1h-28.6c-2.8 0-5.7 0-8.5.1-.5-.8-.9-1.6-1.3-2.3zm2.6 4.7c1.2.1 2.4 0 3.5 0 12 .1 23.9-.1 35.9.1-.4.8-.9 1.5-1.2 2.3h-25.4c-3.8 0-7.6.1-11.4 0-.5-.8-1-1.6-1.4-2.4zm2.7 4.8c3-.1 6.1-.1 9.1-.1h22c1 0 2 0 3 .1l-1.2 2.1c-10.6 0-21.2.1-31.8 0-.4-.7-.8-1.4-1.1-2.1zm2.2 4.2c9.8-.1 19.7 0 29.6-.1-.4.7-.8 1.4-1.2 2.2-9.1 0-18.2.1-27.2-.1-.4-.7-.8-1.3-1.2-2zm2.2 3.9c6.3 0 12.6-.1 18.8 0 2.2 0 4.3.1 6.4 0-.5.8-.9 1.5-1.3 2.3-6.8-.1-13.6 0-20.4-.1-.8 0-1.6-.1-2.4 0-.3-.7-.7-1.4-1.1-2.2zm2 3.7c3.5-.1 7 0 10.5 0s7.1-.1 10.7 0c-.4.7-.8 1.5-1.2 2.3-1.4-.1-2.8 0-4.2 0h-14.5c-.5-.8-.9-1.6-1.3-2.3zm2 3.6c.9-.1 1.8-.1 2.7-.1h11.8c.9 0 1.8 0 2.7.1l-1.2 2.1c-4 .1-8 .1-12 .1-1 0-1.9 0-2.9-.1-.3-.7-.7-1.4-1.1-2.1zm1.8 3.2c1.6.1 3.3 0 4.9 0h8.8c-.4.7-.8 1.5-1.2 2.2-3.7-.1-7.5-.1-11.2 0-.5-.7-.9-1.5-1.3-2.2zm1.7 3h10.3c-.4.7-.8 1.5-1.2 2.2h-7.9c-.5-.7-.8-1.4-1.2-2.2z" id="_941506384"/><g id="_2.svg"><path class="st1" d="M68.3 191.6L80.8 179l5.2 4.2c1 .9 1.8 1.7 2.2 2.5.4.8.5 1.6.4 2.4-.2.9-.5 1.5-1.1 2.1-.5.5-1.2.9-2 1.1-.8.2-1.6.2-2.6-.1.6.9.9 1.8.8 2.7-.1.9-.5 1.7-1.2 2.5-.6.6-1.3 1-2.1 1.3-.8.3-1.5.4-2.2.3-.7-.1-1.4-.3-2.1-.6-.8-.4-1.6-.9-2.5-1.6l-5.3-4.2zm9.1-5.8l3 2.4c.8.7 1.4 1.1 1.9 1.3.6.3 1.2.3 1.7.2.5-.1 1-.4 1.5-.8.4-.4.7-.9.7-1.4.1-.5 0-1-.3-1.4-.3-.5-.9-1.1-1.9-1.9l-2.8-2.2-3.8 3.8zm-5.8 5.8l3.5 2.8c.6.5 1 .8 1.3 1 .5.3 1 .5 1.4.5.5.1.9 0 1.4-.1.5-.2.9-.5 1.3-.9.5-.5.7-1 .8-1.6.1-.6-.1-1.1-.4-1.6-.3-.5-.9-1.1-1.8-1.9l-3.2-2.6-4.3 4.4z" id="PathID_1"/><path class="st1" d="M88.3 206l7.6-15.5 2.3.9-3.1 6.3 8.9 3.6 3-6.3 2.3.9-7.6 15.5-2.2-.9 3.6-7.4-8.9-3.5-3.6 7.3z" id="PathID_3"/><path class="st1" d="M115.7 197.8l2.2.2-1.5 13.4 11.4-12.5 2.5.2-1.9 16.9-2.3-.2 1.5-13.3-11.4 12.4-2.4-.2z" id="PathID_5"/><path class="st1" d="M136.9 198.9l2.2-.4 3.2 13.1 6.5-15 2.5-.5 3.9 16.6-2.2.4-3.1-13.1-6.6 15-2.4.5z" id="PathID_7"/><path class="st1" d="M166.5 208.6l-9.4-14.7 6.1-3.2c1.1-.6 1.9-.9 2.6-1.1.9-.3 1.7-.4 2.4-.3.8 0 1.5.3 2.2.7.7.4 1.3 1 1.8 1.7.8 1.2 1 2.6.7 3.9-.3 1.3-1.6 2.6-3.9 3.8l-4.1 2.2 3.8 6-2.2 1zm-2.8-8.8l4.2-2.2c1.4-.7 2.2-1.5 2.5-2.2s.2-1.6-.4-2.4c-.4-.6-.9-1-1.6-1.3-.6-.3-1.2-.3-1.9-.1-.4.1-1.1.4-2.1.9l-4.1 2.2 3.4 5.1z" id="PathID_9"/><path class="st1" d="M185.9 197.1l-8.8-16.3 1.8-1.8 18.9 6.4-1.9 1.9-5.6-2-5.4 5.2 2.8 4.8-1.8 1.8zm-1.9-8.3l4.3-4.2-5.1-1.9c-1.6-.6-2.8-1.1-3.8-1.5.7.9 1.4 1.9 2 2.9l2.6 4.7z" id="PathID_11"/></g><path class="st1" d="M24.6 131.4v-4.3c0-1.2.1-2 .1-3.1l.2-3c.2-2 .3-3.8.6-5.8.1-1 .3-1.8.4-2.8.4-2.7 1-5.4 1.6-8.1.5-1.8.9-3.3 1.4-5 .5-1.7 1-3.3 1.6-4.9 1.5-4.6 3.6-9.1 5.8-13.5.2-.4.3-.7.6-1 .2-.3.3-.7.5-1 2.3-4 4.7-8 7.5-11.8l2.8-3.6c1.2-1.5 2.6-2.9 3.7-4.4.7-1 2-2 2.8-3l7.4-6.9 5.8-4.6c3.4-2.6 7.1-4.8 10.8-7 2.4-1.4 5-2.6 7.5-3.8 2.7-1.4 6.3-2.8 9.2-3.7.9-.3 1.6-.6 2.4-.8.8-.3 1.6-.5 2.4-.8 4.3-1.4 11.4-2.8 16-3.4 6-.8 10.3-.9 16.4-.9 1.2 0 2 .1 3.1.1 1.5 0 7.3.6 8.8.8 1 .1 1.8.2 2.8.4 4.1.6 9.2 1.7 13.1 3 .9.3 1.6.5 2.4.8 5.5 1.8 10.8 4.1 15.9 6.6l7.1 4.1c3.1 1.9 6.6 4.3 9.5 6.6 1.4 1.2 3.1 2.3 4.4 3.7l1.7 1.5c.6.5 1 1.1 1.7 1.6 0 0 .1 0 .1.1l.3.2h.1l2.8 2.9c.5.6 1.1 1 1.6 1.6l.9 1 .1.1 3.5 4.1c1.9 2.4 3.7 4.9 5.5 7.4 1.7 2.6 3.3 5.2 4.9 8 3.6 6.4 6.3 13.3 8.5 20.4.8 2.5 1.4 5.1 2 7.7 1 4.7 1.6 9.2 2 14 .3 3.4.3 7.1.3 10.7 0 1.2-.1 2-.1 3.1 0 .7-.1.9-.1 1.5-.1 3.9-.9 8.9-1.6 12.8-.1.9-.4 1.8-.5 2.6-.7 3.4-1.7 6.8-2.7 10.1-1.8 5.7-4 10.6-6.6 15.9-.2.4-.3.7-.6 1l-3.5 6.1c-.2.3-.4.7-.6 1-1.2 2.1-3.7 5.6-5.3 7.6-.5.6-.9 1.2-1.4 1.8l-1.5 1.8c-1.4 1.8-3 3.4-4.6 5-.1.1-.1.1-.1.2l-.1.1s-.1 0-.1.1l-.2.2s0 .1-.1.1c-1.1 1.2-2.4 2.3-3.5 3.4l-3.4 3c-.2.2-.2.2-.4.3-1.8 1.6-3.8 3.1-5.8 4.6-.6.5-1.2.9-1.9 1.4-1.2.9-2.5 1.8-3.8 2.6-1.4.8-2.6 1.8-4 2.5l-3.1 1.7c-2.1 1.1-4.3 2.2-6.5 3.2-.4.2-.8.3-1.1.5-3.8 1.7-7.8 3.2-11.8 4.3-.8.2-1.6.5-2.5.7L152 232c-.5.1-.8.2-1.3.3-8.4 1.7-14.5 2.1-23.2 2.1-1.2 0-2-.1-3.1-.1-1.6 0-7.7-.7-8.8-.8-1-.1-1.8-.3-2.8-.4-6.2-.9-12.2-2.6-18-4.6-1.6-.5-3.1-1.2-4.6-1.8l-3.3-1.4c-2.6-1.1-5.2-2.3-7.5-3.7l-7.1-4.2c-2.3-1.4-4.5-3.1-6.6-4.7-3-2.2-6-4.8-8.6-7.5l-2.5-2.4v-.1l-.1-.1c-1.1-1.3-2.6-2.6-3.7-4l-1.5-1.7c-.5-.6-1-1.1-1.4-1.7-1.8-2.3-4.6-5.9-6.1-8.4-1-1.7-2.2-3.3-3.1-5l-5.4-10.7c-.7-1.5-1.3-2.9-1.9-4.5-1.7-4.9-3.4-9.8-4.4-15-.6-2.7-1-5.4-1.4-8.2-.6-4-1-7.9-1-12zm-4.2-4.9c0 6.9.1 11 1 17.9.3 1.8.6 3.9.9 5.7l1.2 5.5c.3 1.6.9 3.6 1.4 5.2.7 2.1 1.3 4.2 2.1 6.2.2.5.3.8.5 1.2.1.4.3.8.4 1.2l3.6 8.1c1 2.2 2.2 4.4 3.5 6.5l2.5 4.1c.5.7.9 1.3 1.3 2l7.9 10.4 7.3 7.7c1.1 1 2.4 2.1 3.5 3.1.3.3.6.5.9.8.2.2.3.2.5.4l1.3 1.1c.4.3.6.5.9.7l3.7 2.9c2 1.4 3.9 2.8 5.9 4.1.7.5 1.3.9 2 1.3 2.4 1.5 5 2.7 7.5 4.1l5.7 2.7c2.4 1 4.8 1.9 7.2 2.8 1.6.6 3.4 1.1 5 1.6 2.6.9 5.3 1.5 7.9 2.1 6.3 1.4 14.2 2.5 20.8 2.5 7.4 0 10.4-.1 17.8-1 2.8-.3 5.6-.8 8.4-1.5.9-.2 1.8-.5 2.8-.7 2.6-.5 5.2-1.4 7.7-2.2l7.3-2.7c2.7-1.1 5.4-2.3 8-3.6l.6-.3c.2-.1.3-.2.6-.3l2.7-1.4c2-1.1 3.9-2.2 5.7-3.4 3.7-2.4 7.2-4.9 10.6-7.7.3-.3.6-.5.9-.8l2.6-2.3c.4-.3.5-.5.9-.8 1.2-1 6.2-6.1 6.9-6.9l.3-.3.2-.2c1.5-1.5 4.2-4.8 5.3-6.4l4.2-5.8c.5-.7.9-1.3 1.3-2l5.4-9.5c.2-.4.4-.7.6-1.1.2-.4.4-.7.5-1.1l1.6-3.4c.3-.7.7-1.5 1-2.3.3-.7.7-1.6.9-2.4.3-.9.6-1.6.9-2.5 3-9 5.2-17.7 5.9-27.3.3-4 .3-8.1.3-12.1 0-2.2-.2-4.2-.3-6.3 0-.9-.2-2.1-.3-3-1-8.3-2.8-16.6-5.6-24.3-1.2-3.3-2.4-6.4-3.8-9.5-3.1-6.6-6.8-13-11.1-18.8-.3-.3-.5-.6-.7-.9-.3-.4-.4-.6-.7-1-1.3-1.8-3-3.9-4.5-5.5l-2.4-2.6c-.3-.3-.4-.6-.8-.9l-1.7-1.7c-1.1-1.2-2.5-2.6-3.7-3.6l-2.2-1.9c-.9-.8-1.8-1.6-2.7-2.3-1.9-1.5-3.7-3-5.7-4.3-1.4-.9-2.6-1.8-4-2.6l-3.1-1.9c-3.2-1.9-6.5-3.6-9.8-5.2l-4.6-2c-10.3-4.1-21-6.9-32.2-7.7-4-.3-8.1-.3-12.1-.3-9.7 0-24.9 2.8-33.6 6.2-.4.2-.8.3-1.2.4-.4.1-.7.3-1.2.5-2.4.9-4.8 1.9-7.1 2.9l-6.5 3.3c-3.5 2-7 4.1-10.3 6.4-2.4 1.7-7.8 5.8-10.1 8.1-.4.4-.5.5-.9.8-.3.2-.5.5-.8.8-.3.3-.6.5-.9.8l-3.3 3.3c-1.1 1.1-2 2.4-3.1 3.5L46 59c-.3.4-.4.5-.7.9-.3.4-.5.6-.7.9-2.5 3.1-4.8 6.3-6.9 9.7-.5.7-.9 1.3-1.3 2l-2.5 4.2c-.4.7-.8 1.4-1.2 2.2-.1.2-.1.3-.2.5l-3 6.3c-.3.8-.7 1.5-1 2.3l-1.4 3.6c-1.8 4.6-3.1 9.4-4.1 14.2-.6 2.8-1.2 5.6-1.5 8.5-.3 2-.8 5.5-.8 7.4 0 .7-.1 1-.1 1.6-.1 1.1-.2 2-.2 3.2z"/><path d="M252.1 107.7c.4 0 .1.8.2 1.2 1.1 6.6 1.7 13.5 1.7 20.4 0 68.7-55.7 124.4-124.4 124.4-52.2 0-96.9-32.2-115.4-77.9-.4-1-.8-2.1-1.2-3.1-.1-.3-.6-.7-.3-.9 52.5-42.4 129.7-65.7 239.4-64.1z" fill="#0012b8" fill-opacity=".141"/></g></svg>