<?xml version="1.0" standalone="no"?>
<!DOCTYPE svg PUBLIC "-//W3C//DTD SVG 20010904//EN"
 "http://www.w3.org/TR/2001/REC-SVG-20010904/DTD/svg10.dtd">
<svg version="1.0" xmlns="http://www.w3.org/2000/svg"
 width="700.000000pt" height="700.000000pt" viewBox="0 0 700.000000 700.000000"
 preserveAspectRatio="xMidYMid meet">
<metadata>
Created by potrace 1.11, written by Peter Selinger 2001-2013
</metadata>
<g transform="translate(0.000000,700.000000) scale(0.100000,-0.100000)"
fill="#000000" stroke="none">
<path d="M4298 6817 c-75 -74 -241 -252 -319 -342 -24 -27 -62 -69 -85 -93
l-42 -42 -133 6 c-171 9 -316 9 -452 1 -59 -4 -111 -8 -115 -9 -28 -8 -53 16
-477 458 l-80 83 -437 -182 c-241 -100 -440 -189 -443 -197 -6 -14 -6 -325 0
-430 1 -30 5 -116 9 -191 l7 -137 -43 -31 c-109 -80 -352 -327 -435 -443 -26
-35 -39 -46 -56 -43 -18 3 -290 11 -664 19 -42 1 -74 -3 -77 -9 -3 -8 -335
-838 -353 -881 -4 -10 108 -124 277 -284 94 -89 283 -275 281 -277 -27 -32
-44 -283 -29 -423 4 -36 10 -101 14 -145 3 -44 8 -82 9 -83 15 -16 -42 -84
-187 -223 -94 -90 -213 -204 -265 -254 l-93 -90 31 -75 c17 -41 84 -208 150
-370 66 -162 126 -308 133 -325 7 -16 22 -52 32 -78 l19 -48 185 6 c555 16
541 15 579 35 40 21 445 434 488 497 14 21 12 27 -30 90 -24 37 -55 88 -68
113 -13 25 -28 52 -34 60 -17 23 -101 216 -129 298 -49 140 -94 350 -111 522
-5 58 -6 321 0 380 5 52 13 116 19 146 2 12 7 39 10 59 23 143 96 358 180 530
186 379 483 702 839 912 123 73 148 85 297 151 105 46 351 113 469 127 30 4
63 9 75 12 52 13 444 11 536 -3 303 -46 589 -148 845 -303 55 -34 103 -61 107
-61 9 0 489 485 502 507 6 10 11 65 12 123 2 138 6 599 5 626 -1 14 -11 26
-28 32 -126 50 -432 174 -448 182 -11 5 -99 41 -195 80 -96 39 -182 74 -192
80 -13 7 -31 -6 -90 -63z"/>
<path d="M6267 5263 c-1 -1 -115 -5 -252 -8 -138 -4 -257 -11 -266 -16 -10 -5
-127 -119 -262 -255 -219 -218 -245 -248 -237 -268 4 -12 37 -69 72 -127 103
-166 166 -310 222 -506 19 -65 37 -134 40 -153 3 -19 10 -59 16 -89 20 -104
25 -187 25 -391 0 -195 -4 -236 -40 -425 -40 -206 -160 -502 -285 -697 -89
-142 -229 -312 -329 -402 -19 -17 -45 -42 -59 -55 -45 -44 -238 -185 -323
-236 -139 -82 -439 -211 -536 -229 -10 -2 -38 -9 -63 -16 -69 -19 -81 -21
-140 -26 -30 -3 -66 -9 -80 -14 -47 -17 -360 -28 -445 -15 -16 2 -55 7 -85 10
-30 3 -66 7 -80 10 -13 2 -42 7 -65 11 -103 15 -322 80 -425 126 -147 66 -199
94 -284 147 -52 32 -102 62 -113 65 -26 8 -508 -474 -519 -519 -4 -16 -8 -194
-8 -394 l-1 -365 155 -63 c85 -34 155 -63 155 -63 0 0 128 -52 284 -114 l284
-115 30 32 c16 18 57 61 90 97 160 173 297 319 347 371 l55 57 85 -7 c103 -10
566 -6 598 4 19 6 35 -6 110 -82 460 -473 451 -464 469 -453 10 5 59 26 108
45 50 20 99 40 110 45 11 5 79 32 150 61 72 28 144 57 160 64 17 7 101 41 188
76 l158 63 -6 250 c-3 138 -8 312 -10 386 l-4 135 37 25 c80 54 275 246 390
385 69 83 98 108 113 99 3 -2 170 -6 371 -10 l365 -6 35 88 c57 143 159 397
169 419 5 11 42 103 83 204 l73 184 -65 61 c-36 33 -98 91 -136 127 -39 36
-83 77 -97 90 -14 13 -79 73 -144 134 l-117 109 8 156 c9 196 9 248 -1 390
-14 186 -17 175 51 237 32 31 144 137 248 237 104 99 199 191 211 202 l23 21
-180 451 -181 451 -124 -2 c-69 -1 -125 -3 -126 -4z"/>
<path d="M2990 5026 c-41 -18 -91 -39 -110 -48 -19 -8 -74 -32 -122 -53 -87
-37 -88 -38 -89 -74 -1 -46 2 -201 5 -266 l3 -50 -92 -87 c-50 -48 -102 -103
-116 -122 l-24 -36 -179 2 -179 3 -29 -70 c-16 -38 -37 -88 -47 -110 -10 -22
-28 -69 -41 -105 -13 -36 -26 -69 -30 -75 -4 -5 -10 -22 -13 -36 -7 -26 14
-48 203 -217 l46 -40 -6 -69 c-6 -69 -4 -184 4 -238 5 -27 -7 -41 -125 -156
l-131 -126 30 -59 c16 -33 34 -75 41 -94 7 -19 34 -86 59 -148 l47 -112 120 4
c66 2 144 5 174 5 l54 1 96 97 c53 54 107 110 120 125 l23 27 -36 60 c-48 78
-89 180 -117 288 -20 74 -23 113 -23 248 0 145 3 168 28 250 85 279 272 505
521 628 225 111 430 132 702 73 67 -14 224 -82 275 -117 14 -11 32 -19 40 -19
17 0 238 223 239 241 6 68 11 235 10 299 l-1 45 -58 24 c-31 13 -70 29 -87 36
-109 47 -258 105 -267 105 -12 0 -100 -89 -190 -191 l-49 -56 -177 0 -177 0
-119 123 c-66 68 -122 123 -125 123 -3 -1 -40 -16 -81 -33z"/>
<path d="M4878 4315 c-1 -1 -76 -6 -166 -9 l-163 -6 -115 -115 c-63 -63 -114
-120 -114 -127 0 -7 9 -26 21 -43 46 -69 90 -173 119 -285 23 -86 29 -141 31
-255 1 -200 -51 -374 -167 -550 -143 -219 -362 -366 -632 -425 -85 -19 -283
-21 -377 -5 -102 18 -263 82 -360 145 l-31 19 -113 -113 c-83 -83 -114 -122
-120 -147 -4 -19 -8 -101 -10 -184 l-2 -150 208 -83 208 -83 54 58 c29 32 82
90 117 128 l63 70 181 -1 c177 -1 181 -2 201 -25 65 -76 203 -219 212 -219 9
0 397 159 406 166 4 4 1 233 -4 310 -3 43 0 53 18 65 26 17 140 129 185 182
l32 38 178 -4 178 -5 82 203 c45 111 82 206 82 211 0 5 -24 30 -52 56 -29 25
-86 77 -126 115 l-73 68 -1 172 -1 173 69 65 c38 37 93 89 123 116 47 44 53
54 47 80 -3 16 -40 110 -82 209 -68 156 -91 198 -106 185z"/>
</g>
</svg>
