<?xml version="1.0" encoding="utf-8"?>
<!-- Generator: Adobe Illustrator 22.0.1, SVG Export Plug-In . SVG Version: 6.00 Build 0)  -->
<svg version="1.1" id="Слой_1" xmlns="http://www.w3.org/2000/svg" xmlns:xlink="http://www.w3.org/1999/xlink" x="0px" y="0px"
	 viewBox="0 0 223.2 193.6" style="enable-background:new 0 0 223.2 193.6;" xml:space="preserve">
<style type="text/css">
	.st0{fill:#FFFFFF;}
	.st1{fill:#A8A9AD;}
	.st2{fill:#004B8F;}
	.st3{fill:#FF0000;}
</style>
<g id="Слой_x0020_1">
	<path class="st0" d="M9.9,9.1c12.5-0.1,25,0,37.4,0C58,23.9,70.5,37.5,80,53.2c6.3,10.5,11.5,22.5,10.9,35
		c-0.7,11.8-6.9,22.6-14.7,31.3c2-6,0.6-12.4-1.7-18C72.2,96,69.1,90.8,65.6,86c-6.3-9.1-12.8-18-19.3-27
		C34.3,42.4,22.1,25.7,9.9,9.1L9.9,9.1z"/>
	<path class="st0" d="M54.8,140.1c6-6.6,12.9-12.5,19.7-18.3c-3.3,5.2-5.9,11-7.6,17c-0.8,3.1-1.5,6.4-0.9,9.6
		c0.5,2.7,2.7,4.9,5.1,6.2c4.5,2.4,9.7,3.1,14.8,3.6c-1.3,4.3-1.6,9,0,13.2c1.8,5.8,6,10.5,11.3,13.5c-9.2,0-18.5,0-27.8,0
		c-5.8,0-11.8-1.4-16.6-5c-5.5-4-9.2-10.8-8.9-17.7C44.6,153.7,49.2,146.2,54.8,140.1L54.8,140.1z"/>
	<path class="st1" d="M9.4,6.7H48c-0.5,0.3-1,0.5-1.5,0.7c-1.6-0.6-3.3-0.4-5-0.4c-10.9,0-21.7,0-32.7,0L9.4,6.7z"/>
	<g id="_759730048">
		<path class="st2" d="M48,6.7h0.4C59.2,22,72.1,35.8,81.8,51.9c6.3,10.4,11.5,22.1,11.3,34.5C93,99,86.8,110.8,78.6,120
			c-2.4,2.4-3.9,5.5-5.4,8.4c-2.7,5.5-5,11.4-5.3,17.5c-0.2,2.3,1,4.6,2.9,5.9c4.6,3.2,10.4,3.5,15.7,4.3c2.1,0.6,1.2,3.1,0.9,4.5
			c-2.4,8.8,3,18.1,10.7,22.3c2,0.9,1.1,4.3-1.1,4c-8.5,0.1-17,0-25.5,0c-5,0.1-10.2-0.4-14.9-2.4c-8.9-3.6-15.4-12.8-15-22.5
			c0.6-7.6,4.3-14.6,9-20.5c6.7-8.3,15.1-15,23-22.1c1.9-2.9,1.6-6.6,1.1-9.9c-1.9-10-8-18.3-13.7-26.5c-16.4-23.1-33.3-46-50.1-69
			c-1-1.5-2.3-2.9-3.1-4.6c-0.3-1,0.3-2,1-2.6c10.9-0.1,21.8,0,32.7,0c1.7,0,3.4-0.2,5,0.4C47,7.2,47.5,7,48,6.7L48,6.7L48,6.7z
			 M9.9,9.1c12.2,16.6,24.3,33.3,36.4,50c6.5,9,13,17.9,19.3,27c3.5,4.8,6.6,9.9,8.9,15.4c2.3,5.6,3.7,12,1.7,18
			c7.8-8.7,14-19.4,14.7-31.3c0.7-12.5-4.6-24.5-10.9-35C70.5,37.5,58,23.9,47.4,9.1C34.9,9.1,22.4,9,9.9,9.1L9.9,9.1L9.9,9.1z
			 M54.8,140.1c-5.6,6.2-10.2,13.6-11,22.1c-0.3,6.9,3.4,13.7,8.9,17.7c4.7,3.6,10.8,5,16.6,5c9.3,0,18.5,0,27.8,0
			c-5.2-3-9.4-7.7-11.3-13.5c-1.6-4.3-1.3-8.9,0-13.2c-5-0.5-10.2-1.2-14.8-3.6c-2.4-1.3-4.6-3.5-5.1-6.2c-0.6-3.2,0.1-6.5,0.9-9.6
			c1.7-6,4.3-11.7,7.6-17C67.7,127.6,60.8,133.4,54.8,140.1L54.8,140.1z"/>
	</g>
	<path class="st2" d="M68.3,22.8c12.6,0,25.2,0,37.8,0c9.9,12.6,20.2,25,27.2,39.5c4.5,9.3,7.3,19.7,5.7,29.9
		c-1.6,10.4-7.3,19.8-14.2,27.5c2-6.1,0.5-12.6-1.9-18.3c-2.7-6.8-7.1-12.8-11.2-18.8C97.3,62.6,82.7,42.7,68.3,22.8L68.3,22.8z"/>
	<path class="st2" d="M101.4,142.7c6.6-8.2,14.9-14.7,22.6-21.7c-4.1,6.8-7.6,14.1-8.8,21.9c-0.6,3.5-0.3,7.6,2.5,10.1
		c4.6,4,11.1,4.9,17,5.6c-1.5,4.8-1.5,9.9,0.5,14.6c2.1,5.6,6.5,10.1,11.7,13c-9.5,0-19,0-28.5,0c-6.3,0-12.8-1.7-17.7-5.8
		c-5.3-4.4-8.8-11.3-8.2-18.3C93.3,154.8,96.9,148.3,101.4,142.7L101.4,142.7z"/>
	<path class="st3" d="M123.8,35.4c12.9,0,25.7,0,38.6,0c6.9,9,13.5,18.4,18.2,28.8c4,8.9,6.4,18.8,4.7,28.6
		c-1.8,10.3-7.4,19.4-14.3,27.1c2-5.6,0.8-11.8-1.2-17.2c-2-5.1-4.7-9.8-7.8-14.3C149.5,70.5,136.6,53,123.8,35.4L123.8,35.4z"/>
	<path class="st3" d="M149.4,140.5c6.3-7.1,13.6-13.2,20.7-19.4c-3.6,5.7-6.4,11.9-8.1,18.5c-0.7,3-1.2,6.2-0.6,9.2
		c0.8,3.2,3.5,5.4,6.4,6.7c4.4,2,9.3,2.7,14.1,3.1c11.2,0,22.4-0.1,33.6,0c0,9.2,0,18.3,0,27.5c-17,0-33.9,0-50.9,0
		c-5.9,0-11.9-1.5-16.7-5c-5.8-4.2-9.6-11.2-9.3-18.3C139.3,154.3,143.9,146.7,149.4,140.5L149.4,140.5z"/>
</g>
</svg>
