<?xml version="1.0" encoding="utf-8"?>
<!-- Generator: Adobe Illustrator 22.0.1, SVG Export Plug-In . SVG Version: 6.00 Build 0)  -->
<svg version="1.1" id="Слой_1" xmlns="http://www.w3.org/2000/svg" xmlns:xlink="http://www.w3.org/1999/xlink" x="0px" y="0px"
	 viewBox="0 0 473.1 467.9" style="enable-background:new 0 0 473.1 467.9;" xml:space="preserve">
<style type="text/css">
	.st0{fill:#FF7700;}
</style>
<g id="Слой_x0020_1">
	<g>
		<path class="st0" d="M218.7,8.7c13.5-2.5,27.4-2.1,40.9-0.3l15.2,51.3l20.2,5.8l41.2-36.8l32.1,18.7l-11.7,53.5l14.4,14.4
			l19.2-3.6c11.6-2.2,22.9-6,34.6-8.1c6,11.7,16,22.3,18.4,35.4l-35.7,38.2c1.6,6.9,3.4,13.7,5.4,20.6l51.8,15.4
			c0.3,13.5,0.2,27,0.1,40.5l-51.2,16.8l-6.5,20.5l36.4,39.5c-6.3,11.3-12.8,22.4-19.3,33.6L370.7,352l-14,15.6l11.1,52.6
			c-11,6.7-22.1,13.2-33.6,19l-39.3-37l-20,7.1c-6.7,16.2-10.1,33.6-15.8,50.3c-13,0.2-26.1,0.9-39.1-0.1c-2.2-2-2.6-5.2-3.7-7.8
			l-11.8-45.1l-21.7-4.5L143.4,438l-33.3-19.3l12.4-53.4l-14.7-14.6l-54,11.6l-18.6-33.6l36.9-39.6l-8-18.9l-51.8-16.9l0.2-16.9
			l0.2-19.7l52.9-19.1c1.6-6.3,3.3-12.6,5.1-18.8l-37.4-39.9l10.2-17.8l10.1-17.5l53.9,11l12.5-13.6l-10.9-53l34.2-20l41.2,37
			l18.5-4.8L218.7,8.7L218.7,8.7z M210.2,95.3c-43.1,8.5-80.9,38.6-99.4,78.3c-15.3,32.5-17.7,71-5.9,104.9
			c13.6,41.6,47.8,75.6,89.2,89.4c25.2,8.3,52.5,10,78.3,3.5c41.5-7.9,76.7-38.2,94.6-75.8c11.6-25.3,16.6-54.1,12.1-81.8
			c-6-43.9-34.3-84-73.6-104.5C276.9,93.5,242.4,88.5,210.2,95.3z"/>
	</g>
	<path class="st0" d="M183.3,120.5c28.8-11.7,61.6-17,91.8-7.4c1.6,0.5,3.2,1.1,4.7,1.7c-0.7,2.8-1.4,5.6-2,8.4
		c-30.1-8.4-48.1-9.8-83.2,2.5c0.5,4.8,0.9,9.6,1.8,14.3c14.7,72.4,30.2,145.9,44.6,218.4c-50.3,0.5-92-21.4-113.9-65.7
		c-5.4-10.9-9.7-22.8-11.8-34.8c-3.4-20.1-4-31.7,0.7-51.3c7.3-30.3,26.8-62.1,53.2-77.1c1.3-0.8,2.7-1.5,4.1-2.1
		c0.8-0.4,1.6-0.7,2.5-1.1l1.4,7.8c-1.1,0.9-2.7,1.8-4.3,2.8c-31.5,19.6-49.4,55.8-51,92.2c22.6,0.5,45.2,0.1,67.8,0.2l1.9,9.2
		c-22.7,0.4-46.6,0.2-69.3,0.1c0.3,57.2,50.2,108.8,107.3,111.2C215,273.2,197.7,197.1,183.3,120.5z"/>
	<g>
		<path class="st0" d="M274,229.6c5.4-37,8.1-74.4,14.8-111.1c14.8,7.4,29.2,16.3,40.7,28.5c19.4,20.3,30.9,47.2,34.3,74.9
			c0.3,2.8,0.5,5.5,0.6,8.2c0.2,9.2-1.8,32.9-5.6,41c-0.2,0.5-0.4,0.9-0.7,1.2l-9.1,1.9c0.1-0.5,0.3-0.9,0.4-1.4
			c3.2-10.7,5.9-21.9,5.8-33.6l-35.5-0.3c-12.5-0.1-24.9,0-37.4,0.4l-13.8,116.1l-9.6,2.2c3.1-39.7,10.4-78.9,13.4-118.6
			c-11,0-22,0-33,0.1L237,230C249,229.5,262,229.7,274,229.6L274,229.6z M295.9,132.5c-5.1,32.3-8.1,64.9-12.7,97.2l72.1-0.1
			C353,190,331,151.8,295.9,132.5z"/>
	</g>
	<rect x="104.8" y="229.1" class="st0" width="18.7" height="9.3"/>
	<rect x="355.9" y="229.7" class="st0" width="16.7" height="9.3"/>
</g>
</svg>
