<?xml version="1.0" encoding="utf-8"?>
<!-- Generator: Adobe Illustrator 22.0.1, SVG Export Plug-In . SVG Version: 6.00 Build 0)  -->
<svg version="1.1" id="Слой_1" xmlns="http://www.w3.org/2000/svg" xmlns:xlink="http://www.w3.org/1999/xlink" x="0px" y="0px"
	 viewBox="0 0 178 178" style="enable-background:new 0 0 178 178;" xml:space="preserve">
<style type="text/css">
	.st0{fill:#FF7700;}
	.st1{fill:#262626;}
</style>
<g>
	<path class="st0" d="M96.1,143.4c-0.4,0.4,0.4,0.1-0.8,0.5l-6.8,0.4c-2.4,0-4.9-0.4-7.1-0.6c-4.8-0.5-9.3-1.9-13.2-3.5
		c-2.1-0.9-3.8-1.7-5.5-2.6c-1.4-0.8-4.1-2.7-5.2-3.2l-11.4,11.4c-1.6,1.6-1.6,1.3-1.7,4l-0.2,17.3l22.5,9.1l13.1-14.1
		c4.9,0.3,11.7,0.8,16.7,0.1c0.7-0.1,1.4-0.3,1.8,0.1l13.2,13.6l22.8-9.2l-0.5-19.6c3.5-2,10.4-9.5,12.9-12.9l19.5,0.4l9.2-22.8
		l-14.2-13.2c-0.1-2.7,0.4-6,0.4-9.1c0-11-2.5-7.7,2.8-12.5l10.5-10.1L165.7,44l-16.8,0.5c-2.9,0.1-2.5-0.3-4.2,1.5
		s-10.2,10.5-11.5,11.4c0.5,1.7,2.4,4,3.3,5.7c1,1.9,2.1,4,2.9,6.2c11,28.9-2.7,59.2-29.2,70.4C107.8,140.9,99.2,143.9,96.1,143.4z"
		/>
	<path class="st1" d="M44.3,121.2c-0.7-1.3-1.7-2.6-2.4-3.8c-6.1-10.1-8.7-22.7-7.3-34.6c3-24.9,23.6-45.2,48.5-47.7
		c7.7-0.8,14.3-0.1,21.2,1.9c9.6,2.8,15.1,7.3,16.1,7.6c3.7-3.6,7.5-7.6,11.5-11.6c1.7-1.7,1.5-1.4,1.5-4.3l0.2-16.6l-22.5-9.2
		c-1.2,0.8-8.6,8.9-10.3,10.8c-0.9,1-2.1,3-3.4,3.1c-5.9-0.5-11.8-0.6-17.7,0.1c-0.1,0-0.3-0.1-0.4-0.2l-1.2-1
		c-0.4-0.4-0.8-0.8-1-1.1L66,3.1l-22.4,9.3C43,14.8,43.9,28.6,44,32c-3.7,2.4-10.5,9.4-12.9,13.1l-8.2-0.2l-11.2-0.3l-9.2,23
		l14.2,13.7c0,0,0,0,0,0.1c-0.1,0.9-1,3-0.8,8.8c0,2.2,0.8,6.8,0.7,8.5c-0.1,1-1.3,1.8-2,2.5L2.8,112.5l9.3,22.8l16.9-0.5
		c2,0,2.7-0.3,4.2-1.8C35,130.8,43.5,122.7,44.3,121.2z"/>
	<path class="st1" d="M92.3,114.6c-0.2,0.2,0.2,0.1-0.4,0.2l-3.1,0.2c-1.1,0-2.3-0.2-3.3-0.3c-2.2-0.2-4.3-0.9-6.1-1.6
		c-1-0.4-1.8-0.8-2.6-1.2c-0.6-0.4-1.9-1.3-2.4-1.5c-0.6,0.4-4.4,4.4-5.3,5.3c-0.7,0.7-0.7,0.6-0.8,1.8c-0.1,1.8-0.3,6.8-0.1,8
		l10.5,4.2l6.1-6.6c2.3,0.2,5.4,0.4,7.8,0c1.2-0.2,1.4,0.3,2.9,2.1c1.1,1.3,2.8,2.7,4,4.3c0.9-0.1,4.4-1.7,5.4-2.1
		c1.7-0.7,3.6-1.6,5.2-2.2c0.3-1.7-0.1-7-0.2-9.1c1.6-0.9,4.8-4.4,6-6l9.1,0.2l4.3-10.6c-1.2-1.2-2.2-2-3.3-3l-3.3-3.1
		c0-1.3,0.2-2.8,0.2-4.2c0-5.1-1.2-3.6,1.3-5.8l4.9-4.7c-0.1-0.8-1.7-4.3-2.1-5.3c-0.6-1.4-1.8-3.8-2.2-5.3l-7.8,0.3
		c-1.4,0-1.2-0.1-2,0.7c-0.8,0.8-4.7,4.9-5.3,5.3c0.2,0.8,1.1,1.9,1.5,2.6c0.5,0.9,1,1.9,1.3,2.9c5.1,13.4-1.2,27.5-13.6,32.8
		C97.8,113.4,93.7,114.9,92.3,114.6z"/>
	<path class="st0" d="M68.2,104.3c-0.3-0.6-0.8-1.2-1.1-1.8c-2.8-4.7-4-10.6-3.4-16.1c1.4-11.6,11-21,22.6-22.2
		c3.6-0.4,6.7,0,9.9,0.9c4.5,1.3,7,3.4,7.5,3.5c1.7-1.7,3.5-3.5,5.3-5.4c0.8-0.8,0.7-0.7,0.7-2c0-0.9,0-1.7,0.1-2.6
		c0.1-1.3,0.2-3.9,0-5.1l-10.5-4.3c-0.6,0.4-4,4.1-4.8,5c-0.4,0.5-1,1.4-1.6,1.5c-0.5,0.1-3.2-0.2-4.1-0.2c-2,0-4,0.5-4.6,0
		l-0.3-0.3c-0.2-0.2-0.4-0.4-0.5-0.5l-5.2-5.4l-10.3,4.4c-0.3,1.1,0.1,7.5,0.2,9.1c-1.7,1.1-4.9,4.4-6,6.1l-9-0.2
		c-0.5,1-4.2,10.1-4.3,10.7c1.4,1.5,3.1,2.9,4.5,4.2c3.1,3,1.7,0.6,1.7,6.3c0,1,0.4,3.2,0.3,3.9c0,0.5-0.6,0.9-0.9,1.2
		c-1.5,1.4-4.4,4-5.5,5.3c0.1,0.9,0.9,2,1.2,2.6c0.1,0.3,0.4,1,0.5,1.4c0.8,2.6,1.8,4,2.6,6.6c1.8-0.1,3.6-0.1,5.5-0.2
		c3.1-0.1,3.3,0.2,4.3-0.9C63.9,108.7,67.8,105,68.2,104.3z"/>
</g>
</svg>
