<?xml version="1.0" encoding="utf-8"?>
<!-- Generator: Adobe Illustrator 22.0.1, SVG Export Plug-In . SVG Version: 6.00 Build 0)  -->
<svg version="1.1" xmlns="http://www.w3.org/2000/svg" xmlns:xlink="http://www.w3.org/1999/xlink" x="0px" y="0px"
	 viewBox="0 0 492.7 441.4" style="enable-background:new 0 0 492.7 441.4;" xml:space="preserve">
<style type="text/css">
	.st0{fill:#666666;stroke:#000000;stroke-miterlimit:10;}
	.st1{fill:#FFFFFF;}
</style>
<g id="Слой_2">
	<rect class="st0" width="492.7" height="441.4"/>
</g>
<g id="Слой_1">
	<g id="Слой_x0020_1">
		<path class="st1" d="M237.5,9.9h4.8c0.3,34.6,0.3,69.3,0.3,103.9c0.3,24.9-9.6,49.2-24.8,68.7c-6.6,8.7-16,14.7-25.4,20
			c-7.6,3.9-15.2,8-23.7,9.6c-10.4,2.1-21.1,3-31.7,3.4c-25.8,0.1-51.5-0.2-77.3-0.5c0-3,0.1-6,0.1-9c20.2-0.1,40.3,0,60.5,0
			c14.3-0.1,28.9,0.7,43-2.5c14.7-3.3,28.9-9.6,40.5-19.3c8.4-7.8,14.3-17.9,19.6-28c5.2-10.6,9.8-22,10.1-34
			c1.6-37.3,0.4-74.7-0.1-112C234.7,10,236.1,9.9,237.5,9.9L237.5,9.9z M252.2,9.9h3.8c1.6,0.1,3.3,0.1,4.9,0.2
			c-0.1,31.9-1,63.8-0.4,95.8c0.3,10.7-0.2,21.6,3.1,31.9c4.8,15.3,12.7,29.5,22.6,42c8.8,9.8,20.9,16,33.1,20.4
			c13.7,5.2,28.6,6,43.1,5.9c24.1,0,48.1-0.1,72.2,0c0.1,3,0.1,6,0.1,9c-25.7,0.3-51.4,0.7-77,0.5c-10.4-0.4-20.9-1.2-31.2-3.2
			c-8.3-1.5-16-5.4-23.4-9.3c-8.3-4.5-16.5-9.5-23-16.4c-13.7-15.4-23-34.7-26.9-55c-2.1-10.2-1.4-20.7-1.5-31.1
			C251.8,70.3,251.9,40.1,252.2,9.9L252.2,9.9z"/>
		<path class="st1" d="M377.9,76.6c21.1-7,42-14.8,63-22.2c-1.5,3.7-2.6,7.6-4.5,11.1c-15.4,6.2-31.3,11.2-47,16.7
			c-35.2,11.7-71.7,20.9-109,21.5c-0.6,6.5-0.4,13-0.5,19.5c-0.1,15.4,7.7,29.8,17.7,41.1c13.3,14.9,33.5,22.1,53.2,22.6
			c19.4,0.2,38.8,0.5,58.2,0.1c0,2.9,0,5.7-0.1,8.6c-19,0-38-0.1-57-0.1c-21.8,0.5-44.1-7.7-59.3-23.7
			c-13.2-13.3-22.3-31.8-21.2-50.9c0.4-19.8-0.1-39.6,0.7-59.3c2.8,0,5.7,0,8.5,0.1c-0.1,10.9-0.3,21.7-0.2,32.5
			C313.6,94,346.4,87.1,377.9,76.6L377.9,76.6z M53.6,55.6c3.7,1.9,7.7,3.3,11.7,4.6c14.1,5,28.1,10,42.2,15c0-0.4-0.1-1.3-0.1-1.7
			c0.2,0.5,0.5,1.3,0.6,1.8c34.1,12,69.8,20.2,106.2,20.4c0.1-11.4,0.1-22.8-0.3-34.2h8.8c0,20.2,0.7,40.5,0.6,60.7
			c0.7,16.7-6.9,32.6-17.3,45.2c-14.4,17.5-36.9,27.3-59.4,27.9c-18.5,0.1-37,0.1-55.6,0.2c-0.2-2.9-0.3-5.7-0.3-8.6
			c17,0.1,34.1,0,51.1-0.1c17-0.2,34.3-4.8,47.7-15.6c11.9-9.7,20.8-23.3,24.2-38.3c1.8-9,0.5-18.3,0.6-27.4
			c-35.3-0.6-70-8.9-103.4-19.6c-17.8-5.7-35.3-12.2-53-18.3C56.2,63.6,54.6,59.7,53.6,55.6L53.6,55.6z"/>
		<path class="st1" d="M60.7,78.2c23.9,6.7,47.5,14.1,71.5,20.3c23.5,5.7,47.1,12.7,71.5,12.4c-13.9,5.4-24.4,16.4-35.7,25.6
			c-12.4,11.9-21.8,26.9-28.7,42.6c-18.2-0.3-36.3-2.9-54.5-3.9c-0.7-3.7-1.3-7.3-1.6-11c18.5,1.6,36.9,3.9,55.4,5.3
			c0-1.9-0.1-3.8-0.1-5.8c-19-2.9-38-6.1-57-9c-0.7-3.5-1.4-7.1-1.9-10.6c19.4,3.2,38.9,6.3,58.3,9.3c-0.1-1.9-0.1-3.8-0.1-5.7
			c-20-4.3-40-8.6-59.9-13.1c-0.7-3.7-1.4-7.3-2.4-11c20.7,4,41.4,8.4,62.2,12.4c0.1-2.1,0.2-4.3,0.3-6.4
			c-21.6-5.3-43.2-10.1-64.8-15.4c-1.3-4-2.6-8-3.7-12.1c22.8,5.5,45.5,11.4,68.4,16.8c0.1-2.4,0.1-4.8,0.1-7.3
			c-24.2-7.7-48.8-14-73.2-21.3C63.7,86.3,62.1,82.3,60.7,78.2z M363.8,98c23.5-6,46.6-13.2,69.9-19.7c-1.7,4.1-2.6,8.4-4.4,12.4
			c-24.2,7.1-48.7,13.6-72.8,21v7.2c22.7-4.9,45.2-10.9,67.8-16.6c0.3,1.4,0.7,2.7,1.1,4.1c-0.5,0.2-1.5,0.7-2,1
			c-0.7,2.3-1.3,4.6-2,7c-21.5,5.2-43.1,10.3-64.7,15.3c0.1,2.2,0.1,4.5,0.1,6.7c20.6-4.3,41.2-8.2,61.7-12.5
			c-0.5,3.7-1.3,7.3-2,10.9c-20,4.8-40.3,8.7-60.3,13.4c0.1,1.8,0.1,3.7,0.2,5.5c19.5-3.1,39-6.2,58.4-9.4c-0.6,3.5-1.3,7.1-2,10.6
			c-19,3.1-38,6-57,9.3c0,1.9-0.1,3.8-0.1,5.6c18.6-1.8,37.1-3.7,55.7-5.4c-0.4,3.7-1,7.3-1.7,11c-18.1,1-36.2,3.6-54.3,3.9
			c-7.7-15.6-16.4-31.1-29.4-42.9c-11.1-9.1-21.4-19.8-35-25.3C315.9,110.9,339.9,104.1,363.8,98L363.8,98z M246.9,153.8
			c3.8,6.1,6.2,13,10.4,18.9c13.1,21.1,33.8,36.9,56.9,45.6c-7,0.7-14,0.5-21,0.2c-2.8-0.1-4.7-2.4-6.9-3.7
			c-15.7-10.9-31.1-23.9-39.2-41.7C246.4,166.8,246.5,160.2,246.9,153.8L246.9,153.8z M247.3,186.5c6.3,8.1,13.5,15.6,21,22.6
			c3.7,3.2,7.3,6.6,11.7,8.8c-4.1,1.4-8.6,0.8-12.9,0.5c-7.5-5-13.3-12-20-18.1C246.9,195.7,247.1,191.1,247.3,186.5L247.3,186.5z
			 M247.3,208.2c5.2,2.6,9.4,7.1,11.5,12.4l-11.7-0.3c0.1,4.2,0.3,8.4,0.3,12.6c-5.1-2.8-9.9-6.6-12.5-11.9
			c3.9-0.1,7.8-0.3,11.7-0.7C246.9,216.2,247,212.2,247.3,208.2z M179.8,220.4c6.7-0.1,13.4-0.4,20,0.2
			c17.3,7.7,30.2,22.6,40.9,37.8c2,3.3,5.2,6.4,5,10.6c0.2,6.2,0.2,12.4-0.5,18.5c-8.6-22.1-23.4-41.9-43.3-55
			C195.1,227.6,187.3,224.2,179.8,220.4L179.8,220.4z M213.3,220.8c4.1,0,8.1-0.2,12.1-0.2c1.8-0.3,2.8,1.5,4,2.5
			c5.4,5.7,11.4,11.1,15.8,17.7c1,4.1,0.7,8.5-0.1,12.7C236.6,240.7,225.1,230.5,213.3,220.8z"/>
		<path class="st1" d="M10.6,225.6c41.8,0.3,83.5-0.4,125.3-0.2c13.3,0.4,26.7,1.4,39.5,5.1c12,4.7,23.6,10.8,33.6,18.8
			c8.3,7.1,14.4,16.2,19.7,25.6c8.3,15.4,13.8,32.5,13.8,50.1c0,35.2,0,70.4-0.2,105.6c-3,0.1-6.1,0-9.1-0.1
			c0.7-37.9,1.7-75.9,0.1-113.9c-1.2-14.4-7.4-27.8-14.5-40.1c-4.9-8-10.1-16.2-17.7-21.9c-9.5-7.3-20.6-12.5-32.1-15.7
			c-15-4.7-31-3.9-46.5-3.8h-112C10.6,231.9,10.6,228.8,10.6,225.6L10.6,225.6z M321.9,229.5c16.1-3.7,32.7-4.4,49.1-4.2
			c37.4,0,74.8,0.6,112.2,0.2c0,3.2,0,6.3-0.2,9.5c-37.3,0.1-74.7,0.1-112,0c-15.1,0-30.6-0.8-45.2,3.5
			c-12.8,3.6-25.2,9.2-35.4,17.8c-5.9,5-10.1,11.6-14.2,18c-6.4,10.7-12,22.2-14.7,34.5c-1.6,6.8-1.1,13.9-1.6,20.9
			c-0.9,33.6,0,67.3,0.6,100.9c-3,0.1-6,0.1-9,0.2c-0.4-34-0.2-68.1-0.3-102.2c-0.6-24.5,8.7-48.6,23.2-68.1
			c7.9-11.1,19.7-18.5,31.6-24.5C311.1,233.7,316.2,230.8,321.9,229.5L321.9,229.5z"/>
		<path class="st1" d="M59.7,244.2c29.4,0,58.7,0,88.1,0.1c22.1,0.5,44,10.4,58.4,27.3c9.6,11.3,16.7,25.3,17.6,40.3
			c-0.1,22.1-0.1,44.2-0.5,66.3c-2.9,0.1-5.7,0.1-8.6,0.1c-0.1-11.3,0.1-22.6,0.2-33.9c-21.8-0.1-43.6,2.7-64.7,7.9
			c-23.2,5.3-45.6,13.5-68,21.5c-9.3,3.6-19,6.3-28.2,10.2c1.1-3.9,2.6-7.6,4-11.3c50.7-18.3,102.5-37.3,157-38.2
			c0.1-9.9,1.3-20-1-29.7c-5.2-18-17.3-34.2-34-42.9c-12.4-6.6-26.7-9.2-40.6-9c-26.6-0.1-53.2-0.2-79.8,0
			C59.6,249.9,59.6,247,59.7,244.2L59.7,244.2z M290.9,268.8c14.7-15.6,36.1-24.3,57.4-24.5c28.8-0.1,57.6-0.1,86.5-0.1
			c0,2.8,0.1,5.6,0.1,8.5c-24.4-0.3-48.9-0.1-73.3-0.1c-10.4,0-20.9,0.1-31,2.9c-15.7,3.9-30.1,13.2-39.2,26.6
			c-6,8.5-10.8,18.3-12,28.7c-0.5,7.8-0.1,15.6,0,23.4c54.4,1,106,20,156.5,38.1c1.5,4.3,4.1,8.4,4.1,13.1c-0.8-0.7-1.4-1.5-1.8-2.6
			c-38.5-13.3-76.6-29.1-117-35.5c-13.8-2-27.7-3.3-41.6-3.2c0,11.3,0.2,22.6,0.5,33.9h-8.8c0-20.5-0.4-41-0.6-61.6
			C270.1,298.7,278.8,281.6,290.9,268.8L290.9,268.8z"/>
		<path class="st1" d="M84.8,263.6c18.1-1.1,36.2-3.4,54.3-4.1c7.3,15.6,16.3,30.8,29,42.7c11.3,9.3,21.9,20.1,35.6,25.7
			c-11.7-0.3-23.2,1.3-34.7,3.5c-36.5,7.9-72.4,18.6-108.2,29.1c1.3-4.1,2.8-8.1,4-12.3c24.3-7.2,49-13.6,73.2-21.3
			c0-2.4-0.1-4.8-0.1-7.3C115,325,92.3,331,69.5,336.4c1.2-4,2.5-8,3.6-12c21.6-5.3,43.3-10.1,64.9-15.4c-0.1-2.1-0.1-4.3-0.3-6.4
			c-20.7,4.1-41.4,8.2-62.1,12.4c0.9-3.8,1.6-7.7,2.6-11.5c20-3.5,39.8-8.8,59.8-12.6c0-2-0.1-3.9-0.1-5.9
			c-19.4,3.3-38.9,6.4-58.4,9.4c0.7-3.5,1.4-6.9,2.1-10.4c18.9-3.1,37.9-6.3,56.9-9c0.1-2,0.1-4,0.2-5.9c-18.7,1.5-37.2,4-55.9,5.2
			C83.5,270.8,84.1,267.2,84.8,263.6z M324.9,302.8c13.5-11.8,22-28,30.2-43.7c18,1.9,36.1,3.1,54.1,4.7c0.4,3.6,0.9,7.2,1.6,10.8
			c-18.6-1.5-37.2-3.7-55.8-5.3c0.1,2,0.1,4,0.2,5.9c19,2.7,37.9,6,56.9,9c0.7,3.5,1.4,7,2,10.5c-19.5-3-38.9-6.1-58.4-9.4
			c0,2-0.1,3.9,0,5.9c20,4.3,40,8.5,60,13.1c0.7,3.7,1.6,7.3,2.4,11c-20.7-4.1-41.4-8.3-62.2-12.4c-0.1,2.2-0.2,4.3-0.3,6.4
			c21.6,5.3,43.3,10.2,64.8,15.4c1.4,3.9,2.6,8,3.6,12c-22.8-5.4-45.5-11.5-68.3-16.8c-0.1,2.4-0.1,4.8-0.1,7.3
			c24.2,7.6,48.8,14.2,73.2,21.2c1.2,4.2,2.7,8.2,4,12.4c-24.4-7.1-48.7-14.4-73.3-20.8c-22.8-5.7-45.8-12.2-69.5-12
			C303.6,322.4,313.9,311.9,324.9,302.8L324.9,302.8z"/>
	</g>
</g>
</svg>
