<?xml version="1.0" encoding="utf-8"?>
<!-- Generator: Adobe Illustrator 22.0.1, SVG Export Plug-In . SVG Version: 6.00 Build 0)  -->
<svg version="1.1" id="Слой_1" xmlns="http://www.w3.org/2000/svg" xmlns:xlink="http://www.w3.org/1999/xlink" x="0px" y="0px"
	 viewBox="0 0 214.6 181.8" style="enable-background:new 0 0 214.6 181.8;" xml:space="preserve">
<style type="text/css">
	.st0{fill:url(#SVGID_1_);}
</style>
<g id="Слой_x0020_1">
	<g id="_749896752">
		
			<linearGradient id="SVGID_1_" gradientUnits="userSpaceOnUse" x1="10097.6973" y1="-9512.3281" x2="11313.6367" y2="-15606.5176" gradientTransform="matrix(2.834630e-02 0 0 -2.834630e-02 -206.8267 -263.4222)">
			<stop  offset="0" style="stop-color:#1F3E73"/>
			<stop  offset="0.3098" style="stop-color:#244170"/>
			<stop  offset="0.5412" style="stop-color:#A2AEC0"/>
			<stop  offset="0.5804" style="stop-color:#26426F"/>
			<stop  offset="1" style="stop-color:#244170"/>
		</linearGradient>
		<path class="st0" d="M40.3,161.5c6.3,0.1,14.2-0.3,16.5-0.3l50.7-84.3l22.1,35c0.8,1.4,2.4,4.2,3.3,5l23.4-38.5l39.2,59.8
			c1.6,2.5,2.2,5,2.2,6.4c1.1,16.5-11.3,20.6-22.9,20.6l-81.5-0.1l-6.3,12.5c29.3-0.2,59-0.4,88.2-0.1c22,0.3,40.9-16.2,32.2-41.2
			c-1.5-4.3-4.7-8.5-7.1-12.3l-44.1-67.6l-23.6,36.8l-25.3-36.8l-57.8,92.6c-11,0-19.4,2.6-10.6-11.9l60.5-99
			c0.8-1.2,1.4-2.3,2.4-3.4c2.9-3.1,5.8-3.5,9-0.4c1.1,1.1,2,2.3,2.9,3.6l18.2,25.6l5.6-9.1l-15.4-22.3
			c-9.8-14.2-20.3-18.4-31.6-0.9L26.8,134.8c-0.7,1-1.2,2.1-1.7,3.2C20,149.6,25.7,161.2,40.3,161.5z M48.5,177
			c3.8-0.1,7.3-0.1,10.5-0.1c4.2-0.1,6.8-0.4,8.6-3.3l1.1-1.8l38.7-64.1l25.5,38.7l23.5-38.7c3.1,4.6,24.9,36.7,25.2,38.9
			c0.2,1.3-0.5,2.2-2.1,2.5h-2.8h-74.1c-2.1,4.4-5,8.5-7.2,12.9c21.2,0,42.5,0,63.7,0c5.4,0,11.3-0.1,16.7-0.3
			c3.5-0.1,6.7-0.5,8.8-1.5c8.1-3.7,11.4-13.6,6-22.2l-34.2-53.8l-23.5,39.2l-25.4-39.5l-40.9,68.4l-7.8,12l-7.9,0.4
			c-0.2,0-0.4,0-0.6,0c-13.2,0.3-32.5,0.4-31.2-20.5c0-0.6,0-0.5,0-1.1c0.2-1.6,0.8-4.2,2.4-6.9c19-30.4,38.7-65.1,58.8-95.6
			c4.3-6.5,10.8-17.9,16.8-22.4C115.3,5,126.9,34,139.5,50.6l5.7-9.9c-4.1-5.3-19.6-30.2-25.5-33.7c-11.4-6.7-25.5-5.2-33.9,7.7
			L12.6,127.2c-16.9,26-0.3,45.1,21.3,49.2C39,177.3,43.4,177.1,48.5,177z"/>
	</g>
</g>
</svg>
