<?xml version="1.0" encoding="utf-8"?>
<!-- Generator: Adobe Illustrator 22.0.1, SVG Export Plug-In . SVG Version: 6.00 Build 0)  -->
<svg version="1.1" id="Слой_1" xmlns="http://www.w3.org/2000/svg" xmlns:xlink="http://www.w3.org/1999/xlink" x="0px" y="0px"
	 viewBox="0 0 1181.9 179" style="enable-background:new 0 0 1181.9 179;" xml:space="preserve">
<style type="text/css">
	.st0{fill:#262626;}
	.st1{fill:#FF7700;}
</style>
<g id="Слой_x0020_1">
	<path class="st0" d="M438.9,123.8c0.4-0.8,0.1-61.3,0.2-67.8l0.1-23.2c6-1.4,17.3,1.7,22.6,4.9c2.6,1.5,3,1.8,5,3.6
		c2.6,2.3,3.8,3.5,5.8,6.7c0.9,1.4,1.6,2.9,2.3,4.7c1.2,3.2,2.2,8.6,2,12.1c-0.5,6-2.2,11.2-5.3,15.8c-1.7,2.5-4.5,5.4-6.9,7.2
		c-0.8,0.6-1.1,0.9-2,1.4c-0.7,0.4-1.6,1.1-2.3,1.3c0.2,1,11,18.5,13.3,22.1c0.5,0.8,1.3,2.6,2.1,3.1c1.6-1.2,3.6-2.1,5.2-3.3
		c0.9-0.7,1.6-1.2,2.5-1.9c2.3-1.8,6.3-5.4,8-7.4c0.5-0.5,0.5-0.7,1-1.2c0.7-0.7,1.5-2,2.1-2.4c0.7,0.5,2.6,3.2,3.7,4.3
		c2,2.3,4,3.9,6.3,6c0.7,0.6,1.5,1.3,2.3,1.8l10.1,6.1c3.8,1.9,8,3.1,12.2,4.2c1.5,0.4,5.4,1.2,6.9,1.2c0.9-0.8,10.7-20.1,12.7-23.8
		l3.9-7.4c0-0.1,0-0.1,0-0.1l-0.1-0.4c-0.9,0.2-1.3,0.4-2.1,0.7c-10.4,3-21.3-0.5-28.9-8.1c-13.2-13.1-9.9-37.3,7.7-46.1
		c17.4-8.7,37.2,0.6,42,18.5l16.9-32c-0.4-0.2-1.6-1.7-2.1-2.2c-1.9-1.9-4.8-4.5-6.9-6.1c-2.4-1.8-8.3-5.5-10.8-6.5
		c-1-0.4-2-0.9-3-1.3c-3.7-1.3-5.9-2.1-9.9-3c-3.4-0.8-11.4-1.8-15.9-1.3c-6.7,0.7-11.5,1.3-17.8,3.8c-1,0.4-2,0.7-3.1,1.2
		c-3.4,1.6-8,4.1-11,6.3c-1.7,1.3-3.2,2.4-4.8,3.9c-1.2,1.1-3,2.4-4.4,4.2c-0.7,0.9-1.2,1.5-2,2.4l-1.4,1.8c-0.4,0.4,0,0.3-0.7,0.5
		c-0.3-1.1-2.5-3.1-3.3-4.1c-7.3-8.2-16-13.6-26.5-17.1C458,4.7,453.1,4,445.5,4h-44.1v120.2C404.1,123.9,437.2,124.2,438.9,123.8z"
		/>
	<path class="st0" d="M904.9,122.6c0,0.5,0.1,0.7,0.7,0.7h46.6c0.5,0,0.7-0.1,0.7-0.7V74.4h22.3v48.2c0,0.5,0.1,0.7,0.7,0.7h46.6
		c0.5,0,0.7-0.1,0.7-0.7V3.7h-48v42.5h-22.3V3.7h-48L904.9,122.6L904.9,122.6z"/>
	<path class="st0" d="M768.2,38c0.2,1.4,9.9,18.4,11.5,21.4c9.6,17.8,19.8,35.4,29.2,53.1c0.9,1.8,1.9,3.5,2.9,5.3
		c0.4,0.7,2.6,4.9,3.1,5.4c0-2.6,0-5.2,0-7.8c0-1.8-0.3-2.3,0.7-3.1c0.5-0.4,0.5-0.3,1-0.8l3.2-2.7c0.4-0.3,0.6-0.6,0.9-0.9l3.2-2.7
		c3.2-2.6,9.9-8.8,12.5-10.9l6.4-5.4v34.5h46.6V3.7h-46.6v41.4c0,3.2,0.3,2.8-1.7,4.3l-9.8,7.9c-2.1,1.6-15.3,12.8-16.7,13.1
		c0-2.9,0.2-5.2,0.2-7.9V3.7h-46.9L768.2,38z"/>
	<path class="st0" d="M264,4.4v118.9c0,0.9,1.8,0.9,2.7,0.9h33.9V33.9h43.2v90h34.8V3.7H264.7C264.2,3.7,264,3.8,264,4.4L264,4.4z"
		/>
	<path class="st0" d="M702.5,53c-0.2,1.3-3.9,7.6-4.7,9.2c-1.4,2.7-13.8,26.1-14.4,26.7c-0.4,1.2-2.1,4.1-2.7,5.3
		c-1,1.8-1.8,3.5-2.8,5.2l-13.2,24.8l39.3-0.9l18.7-33.9l7.6-13.6l7.5,12.9c0.7,1.2,2.2,3.4,2.3,4.6c0.8,0.7,1.6,2.5,2.2,3.6
		l15.2,26.4h19.3h18.7L729.3,3l-14.1,26.6c-0.3,0.5-0.6,1-0.9,1.6L702.5,53z"/>
	<path class="st0" d="M1088.7,71.6c1-0.5,8.9,0,10.9-0.2l-0.3-23h-10.7c0-14.2-0.1-28.5,0-42.7c0-1.9,0.3-1.6-3.7-1.6
		c-2.1,0-3.3-0.3-5.2-0.2c-3.6,0-7.1,0-10.7,0c-3.8,0-6.8-0.2-10.5-0.2c-3.6,0-7.1,0-10.7,0v115.2c0,2.7-0.5,4.1,0.7,4.3h7.5
		c1,0,1.1-0.2,2.3-0.2h30.2L1088.7,71.6z"/>
	<path class="st0" d="M1111.7,48c-0.1,4.1,0,8.2,0,12.3c0,2.4-0.3,10.7,0.2,12.5l18.4,40.9c0.4,1,0.9,2,1.4,3.1l2.9,6.4h40.7
		c0-1.7-8.2-17.1-9.4-20.1l-19.5-39.7c-0.5-1-1.6-3-1.9-4c1.4-2,2.7-5,3.8-6.9c3.1-5.1,6.5-11.9,9.7-17.3l5.8-10.4
		c0.7-1.2,1.3-2.2,2-3.5c0.4-0.7,0.6-1,1-1.7c0.4-0.8,0.6-1.2,1-1.8l6.7-12.2c0.4-0.7,0.7-0.9,0.8-1.9h-40.9l-13.9,27.6
		c-1,2-1.8,3.7-2.8,5.6C1117.3,37.5,1112.3,47.5,1111.7,48z"/>
	<path class="st1" d="M609.7,25.3c-0.3,1.2-5.4,10.6-6.3,12.4l-44.8,85.5h17.5l22.5,0.1l0.1-0.2v-0.3l0.2-0.2
		c0.3-0.8,0.5-0.8,0.8-1.5l38.9-75.5c1.8-3.7,2.5-3.6,1.5-5.5c-0.7-1.3-2.5-4.3-2.7-5.5l-4-7.6c-0.7-1.2-1.3-2.4-2-3.7L621.3,4.1
		c-0.8,0.2-0.6,0.2-1,1l-9.1,17.5C610.6,23.6,610.3,24.5,609.7,25.3z"/>
	<path class="st1" d="M664.4,25.3c-0.3,1.1-3.8,8-4.6,9.6l-27.1,56.2l16.3,32.6c1-0.8,17.5-31.1,21-37.6c1.7-3.2,3.8-6.9,5.6-10.1
		l7.7,12.9c0.6-0.6,13-24,14.4-26.7c0.8-1.6,4.5-7.9,4.7-9.2l-5.2-9.2c-0.6-1-1.1-2-1.7-3.1L681,14.5c-0.3-0.6-0.5-1-0.9-1.6
		l-4.3-7.7c-0.5-0.8-0.3-1.1-1.2-1.3c-0.3,1.2-1.9,4-2.5,5.2c-0.4,0.9-0.7,1.7-1.2,2.7L664.4,25.3z"/>
	<path class="st1" d="M704,123.2h19.4h17.7c-0.1-1-5.7-10.9-6.4-12l-2.2-4.2c-0.8-0.6-4.2-7.3-5.1-8.8c-1-1.9-4.5-7.6-4.8-9
		L704,123.2z"/>
	<path class="st0" d="M264.4,143.1v-3.7h20.7v3.7h-8.4v34h-3.9v-34H264.4z M290.7,139.4h21.7v3.7h-17.9v11.8h17.7v3.7h-17.7v14.9
		h17.7v3.7h-21.5L290.7,139.4L290.7,139.4z M317,139.4h4.4l9.1,14.6l9.1-14.6h4.5l-11.3,18.2l12.1,19.5h-4.5l-9.8-15.9l-9.9,15.9
		h-4.5l12.1-19.5L317,139.4z M351.1,139.4h3.8v15.8h19.3v-15.8h3.8v37.7h-3.8v-18.2h-19.3v18.2h-3.8V139.4z M405.2,138.4
		c5.8,0,10.5,1.9,14.4,5.7s5.8,8.5,5.8,14.1c0,5.5-1.9,10.2-5.8,14.1c-3.9,3.9-8.6,5.8-14.1,5.8c-5.6,0-10.3-1.9-14.2-5.8
		c-3.9-3.8-5.8-8.4-5.8-13.9c0-3.6,0.9-7,2.6-10.1c1.8-3.1,4.2-5.5,7.2-7.3C398.4,139.3,401.7,138.4,405.2,138.4z M405.4,142.1
		c-2.8,0-5.4,0.7-8,2.2c-2.5,1.4-4.5,3.4-5.9,5.9s-2.1,5.2-2.1,8.2c0,4.5,1.6,8.2,4.7,11.3s6.9,4.6,11.3,4.6c2.9,0,5.7-0.7,8.2-2.1
		c2.5-1.4,4.5-3.4,5.9-5.8c1.4-2.4,2.1-5.2,2.1-8.2s-0.7-5.7-2.1-8.1c-1.4-2.4-3.4-4.4-5.9-5.8C411,142.9,408.3,142.1,405.4,142.1z
		 M463.8,177.1h-4.1l-12.6-29.2l-12.8,29.2h-4.1l16.5-37.7h0.9L463.8,177.1z M488.2,138.4c5.8,0,10.5,1.9,14.4,5.7s5.8,8.5,5.8,14.1
		c0,5.5-1.9,10.2-5.8,14.1c-3.9,3.9-8.6,5.8-14.1,5.8c-5.6,0-10.3-1.9-14.2-5.8c-3.9-3.8-5.8-8.4-5.8-13.9c0-3.6,0.9-7,2.6-10.1
		c1.8-3.1,4.2-5.5,7.2-7.3C481.4,139.3,484.7,138.4,488.2,138.4z M488.4,142.1c-2.8,0-5.4,0.7-8,2.2c-2.5,1.4-4.5,3.4-5.9,5.9
		s-2.1,5.2-2.1,8.2c0,4.5,1.6,8.2,4.7,11.3s6.9,4.6,11.3,4.6c2.9,0,5.7-0.7,8.2-2.1c2.5-1.4,4.5-3.4,5.9-5.8
		c1.4-2.4,2.1-5.2,2.1-8.2s-0.7-5.7-2.1-8.1c-1.4-2.4-3.4-4.4-5.9-5.8C494,142.9,491.3,142.1,488.4,142.1z M519.8,177.1H516v-37.7
		h19v3.7h-15.2V177.1z M570.3,177.1h-4v-29l-25,29h-0.9v-37.7h3.8v29.4l25.2-29.4h0.9V177.1z M609.4,177.1h-4v-29l-25,29h-0.9v-37.7
		h3.8v29.4l25.2-29.4h0.9V177.1z M646.2,177.1l5.2-37.7h0.8l15.4,30.9l15.3-30.9h0.6l5.4,37.7h-3.7l-3.8-27l-13.4,27h-1l-13.6-27.2
		l-3.6,27.2H646.2z M696.4,139.4h21.7v3.7h-17.9v11.8h17.7v3.7h-17.7v14.9h17.7v3.7h-21.5V139.4z M720.9,143.1v-3.7h20.7v3.7h-8.4
		v34h-3.9v-34H720.9z M762.6,139.4l17.7,37.7h-4.1l-5.9-12.4h-16.4l-5.9,12.4h-4.2l17.9-37.7H762.6z M762.2,147.3l-6.5,13.7h13
		L762.2,147.3z M816.9,177.1h-4.1l-12.6-29.2l-12.8,29.2h-4.1l16.5-37.7h0.9L816.9,177.1z M841.3,138.4c5.7,0,10.5,1.9,14.4,5.7
		s5.8,8.5,5.8,14.1c0,5.5-1.9,10.2-5.8,14.1c-3.9,3.9-8.6,5.8-14.1,5.8c-5.6,0-10.4-1.9-14.2-5.8c-3.9-3.8-5.8-8.4-5.8-13.9
		c0-3.6,0.9-7,2.6-10.1c1.8-3.1,4.2-5.5,7.2-7.3C834.5,139.3,837.8,138.4,841.3,138.4z M841.5,142.1c-2.8,0-5.5,0.7-8,2.2
		c-2.5,1.4-4.5,3.4-5.9,5.9s-2.1,5.2-2.1,8.2c0,4.5,1.6,8.2,4.7,11.3c3.1,3.1,6.9,4.6,11.3,4.6c2.9,0,5.7-0.7,8.2-2.1
		c2.5-1.4,4.5-3.4,5.9-5.8c1.4-2.4,2.1-5.2,2.1-8.2s-0.7-5.7-2.1-8.1c-1.4-2.4-3.4-4.4-5.9-5.8C847.1,142.9,844.4,142.1,841.5,142.1
		z M887.2,138.4c5.7,0,10.5,1.9,14.4,5.7s5.8,8.5,5.8,14.1c0,5.5-1.9,10.2-5.8,14.1c-3.9,3.9-8.6,5.8-14.1,5.8
		c-5.6,0-10.3-1.9-14.2-5.8c-3.9-3.8-5.8-8.4-5.8-13.9c0-3.6,0.9-7,2.6-10.1c1.8-3.1,4.2-5.5,7.2-7.3
		C880.4,139.3,883.7,138.4,887.2,138.4z M887.4,142.1c-2.8,0-5.5,0.7-8,2.2c-2.5,1.4-4.5,3.4-5.9,5.9s-2.1,5.2-2.1,8.2
		c0,4.5,1.6,8.2,4.7,11.3c3.1,3.1,6.9,4.6,11.3,4.6c2.9,0,5.7-0.7,8.2-2.1c2.5-1.4,4.5-3.4,5.9-5.8c1.4-2.4,2.1-5.2,2.1-8.2
		s-0.7-5.7-2.1-8.1c-1.4-2.4-3.4-4.4-5.9-5.8C892.9,142.9,890.3,142.1,887.4,142.1z M915,177.1v-37.7h19v3.7h-15.2v12.1h1.8
		c4.7,0,8.1,0.4,10.3,1.2c2.1,0.9,3.8,2.2,5,3.9c1.2,1.8,1.8,3.8,1.8,6c0,2.9-1.1,5.4-3.2,7.5c-2.2,2.2-5.2,3.3-9,3.3H915z
		 M918.9,158.9v14.5h4.6c2.7,0,4.8-0.3,6-0.8c1.3-0.5,2.3-1.4,3.1-2.5s1.1-2.4,1.1-3.8c0-1.7-0.5-3.2-1.6-4.5s-2.4-2-4-2.4
		s-4-0.6-7.1-0.6h-2.1V158.9z M945.3,139.4h7.5c4.3,0,7.3,0.2,8.8,0.5c2.2,0.5,3.9,1.6,5.3,3.3c1.4,1.6,2.1,3.7,2.1,6.2
		s-0.7,4.6-2,6.2c-1.3,1.6-3.2,2.7-5.5,3.3c-1.7,0.4-5,0.6-9.7,0.6h-2.7V177h-3.8L945.3,139.4L945.3,139.4z M949.1,143.1v12.8
		l6.4,0.1c2.6,0,4.5-0.2,5.7-0.7s2.2-1.2,2.8-2.3s1-2.2,1-3.5s-0.3-2.4-1-3.5s-1.6-1.8-2.7-2.2c-1.1-0.5-3-0.7-5.6-0.7L949.1,143.1
		L949.1,143.1z M992.1,139.4l17.7,37.7h-4.1l-5.9-12.4h-16.4l-5.9,12.4h-4.2l17.9-37.7H992.1z M991.6,147.3l-6.5,13.7h13
		L991.6,147.3z M1015.6,177.1v-37.7h19v3.7h-15.2v12.1h1.8c4.7,0,8.1,0.4,10.3,1.2c2.1,0.9,3.8,2.2,5,3.9c1.2,1.8,1.8,3.8,1.8,6
		c0,2.9-1.1,5.4-3.3,7.5c-2.2,2.2-5.2,3.3-9,3.3H1015.6z M1019.4,158.9v14.5h4.6c2.7,0,4.8-0.3,6-0.8c1.3-0.5,2.3-1.4,3.1-2.5
		c0.8-1.1,1.1-2.4,1.1-3.8c0-1.7-0.5-3.2-1.6-4.5c-1.1-1.2-2.4-2-4.1-2.4c-1.6-0.4-4-0.6-7.1-0.6h-2V158.9z M1063.9,138.4
		c5.7,0,10.5,1.9,14.4,5.7s5.8,8.5,5.8,14.1c0,5.5-1.9,10.2-5.8,14.1c-3.9,3.9-8.6,5.8-14.1,5.8c-5.6,0-10.4-1.9-14.2-5.8
		s-5.8-8.4-5.8-13.9c0-3.6,0.9-7,2.6-10.1c1.8-3.1,4.2-5.5,7.2-7.3C1057.1,139.3,1060.4,138.4,1063.9,138.4z M1064.1,142.1
		c-2.8,0-5.5,0.7-8,2.2c-2.5,1.4-4.5,3.4-5.9,5.9s-2.1,5.2-2.1,8.2c0,4.5,1.6,8.2,4.7,11.3s6.9,4.6,11.3,4.6c2.9,0,5.7-0.7,8.2-2.1
		c2.5-1.4,4.5-3.4,5.9-5.8c1.4-2.4,2.1-5.2,2.1-8.2s-0.7-5.7-2.1-8.1c-1.4-2.4-3.4-4.4-5.9-5.8
		C1069.7,142.9,1067,142.1,1064.1,142.1z M1088,143.1v-3.7h20.7v3.7h-8.4v34h-3.9v-34H1088z M1114.2,139.4h3.9v14.1l15.2-14.1h5.1
		l-18.3,16.9l19.7,20.8h-5.1l-16.7-17.6v17.6h-3.9v-37.7H1114.2z M1175.3,177.1h-3.9v-29l-25,29h-0.9v-37.7h3.8v29.4l25.2-29.4h0.9
		L1175.3,177.1L1175.3,177.1z"/>
	<g>
		<path class="st1" d="M99.6,144.1c-0.4,0.4,0.4,0.1-0.8,0.5L92,145c-2.4,0-4.9-0.4-7.1-0.6c-4.8-0.5-9.3-1.9-13.2-3.5
			c-2.1-0.9-3.8-1.7-5.5-2.6c-1.4-0.8-4.1-2.7-5.2-3.2l-11.4,11.4c-1.6,1.6-1.6,1.3-1.7,4l-0.2,17.3l22.5,9.1l13.1-14.1
			c4.9,0.3,11.7,0.8,16.7,0.1c0.7-0.1,1.4-0.3,1.8,0.1l13.2,13.6l22.8-9.2l-0.5-19.6c3.5-2,10.4-9.5,12.9-12.9l19.5,0.4l9.2-22.8
			l-14.1-13.2c-0.1-2.7,0.4-6,0.4-9.1c0-11-2.5-7.7,2.8-12.5l10.5-10.1l-9.3-22.8l-16.8,0.5c-2.9,0.1-2.5-0.3-4.2,1.5
			c-1.7,1.8-10.2,10.5-11.5,11.4c0.5,1.7,2.4,4,3.3,5.7c1,1.9,2.1,4,2.9,6.2c11,28.9-2.7,59.2-29.2,70.4
			C111.3,141.6,102.7,144.7,99.6,144.1z"/>
		<path class="st0" d="M47.8,121.9c-0.7-1.3-1.7-2.6-2.4-3.8c-6.1-10.1-8.7-22.7-7.3-34.6c3-24.9,23.6-45.2,48.5-47.7
			c7.7-0.8,14.3-0.1,21.2,1.9c9.6,2.8,15.1,7.3,16.1,7.6c3.7-3.6,7.5-7.6,11.5-11.6c1.7-1.7,1.5-1.4,1.5-4.3l0.2-16.6l-22.5-9.2
			c-1.2,0.8-8.6,8.9-10.3,10.8c-0.9,1-2.1,3-3.4,3.1C95,17,89.1,16.9,83.2,17.6c-0.1,0-0.3-0.1-0.4-0.2l-1.2-1
			c-0.4-0.4-0.8-0.8-1-1.1L69.5,3.9l-22.4,9.3c-0.6,2.4,0.3,16.2,0.4,19.5c-3.7,2.4-10.5,9.4-12.9,13.1l-8.2-0.2l-11.2-0.3L6,68.3
			L20.2,82c0,0,0,0,0,0.1c-0.1,0.9-1,3-0.8,8.8c0,2.2,0.8,6.8,0.7,8.5c-0.1,1-1.3,1.8-2,2.5L6.3,113.2l9.3,22.8l16.9-0.5
			c2,0,2.7-0.3,4.2-1.8C38.5,131.5,47,123.4,47.8,121.9z"/>
		<path class="st0" d="M95.8,115.3c-0.2,0.2,0.2,0.1-0.4,0.2l-3.1,0.2c-1.1,0-2.3-0.2-3.3-0.3c-2.2-0.2-4.3-0.9-6.1-1.6
			c-1-0.4-1.8-0.8-2.6-1.2c-0.6-0.4-1.9-1.3-2.4-1.5c-0.6,0.4-4.4,4.4-5.3,5.3c-0.7,0.7-0.7,0.6-0.8,1.8c-0.1,1.8-0.3,6.8-0.1,8
			l10.5,4.2l6.1-6.6c2.3,0.2,5.4,0.4,7.8,0c1.2-0.2,1.4,0.3,2.9,2.1c1.1,1.3,2.8,2.7,4,4.3c0.9-0.1,4.4-1.7,5.4-2.1
			c1.7-0.7,3.6-1.6,5.2-2.2c0.3-1.7-0.1-7-0.2-9.1c1.6-0.9,4.8-4.4,6-6l9.1,0.2l4.3-10.6c-1.2-1.2-2.2-2-3.3-3l-3.3-3.1
			c0-1.3,0.2-2.8,0.2-4.2c0-5.1-1.2-3.6,1.3-5.8l4.9-4.7c-0.1-0.8-1.7-4.3-2.1-5.3c-0.6-1.4-1.8-3.8-2.2-5.3l-7.8,0.3
			c-1.4,0-1.2-0.1-2,0.7s-4.7,4.9-5.3,5.3c0.2,0.8,1.1,1.9,1.5,2.6c0.5,0.9,1,1.9,1.3,2.9c5.1,13.4-1.2,27.5-13.6,32.8
			C101.3,114.1,97.2,115.6,95.8,115.3z"/>
		<path class="st1" d="M71.7,105c-0.3-0.6-0.8-1.2-1.1-1.8c-2.8-4.7-4-10.6-3.4-16.1c1.4-11.6,11-21,22.6-22.2
			c3.6-0.4,6.7,0,9.9,0.9c4.5,1.3,7,3.4,7.5,3.5c1.7-1.7,3.5-3.5,5.3-5.4c0.8-0.8,0.7-0.7,0.7-2c0-0.9,0-1.7,0.1-2.6
			c0.1-1.3,0.2-3.9,0-5.1l-10.5-4.3c-0.6,0.4-4,4.1-4.8,5c-0.4,0.5-1,1.4-1.6,1.5c-0.5,0.1-3.2-0.2-4.1-0.2c-2,0-4,0.5-4.6,0
			l-0.3-0.3c-0.2-0.2-0.4-0.4-0.5-0.5L81.7,50l-10.3,4.4c-0.3,1.1,0.1,7.5,0.2,9.1c-1.7,1.1-4.9,4.4-6,6.1l-9-0.2
			c-0.5,1-4.2,10.1-4.3,10.7c1.4,1.5,3.1,2.9,4.5,4.2c3.1,3,1.7,0.6,1.7,6.3c0,1,0.4,3.2,0.3,3.9c0,0.5-0.6,0.9-0.9,1.2
			c-1.5,1.4-4.4,4-5.5,5.3c0.1,0.9,0.9,2,1.2,2.6c0.1,0.3,0.4,1,0.5,1.4c0.8,2.6,1.8,4,2.6,6.6c1.8-0.1,3.6-0.1,5.5-0.2
			c3.1-0.1,3.3,0.2,4.3-0.9C67.4,109.4,71.3,105.7,71.7,105z"/>
	</g>
</g>
</svg>
