<?xml version="1.0" encoding="utf-8"?>
<!-- Generator: Adobe Illustrator 22.0.1, SVG Export Plug-In . SVG Version: 6.00 Build 0)  -->
<svg version="1.1" id="Слой_1" xmlns="http://www.w3.org/2000/svg" xmlns:xlink="http://www.w3.org/1999/xlink" x="0px" y="0px"
	 viewBox="0 0 922.5 391.9" style="enable-background:new 0 0 922.5 391.9;" xml:space="preserve">
<style type="text/css">
	.st0{fill:#262626;}
	.st1{fill:#FF7700;}
</style>
<g id="Слой_x0020_1">
	<path class="st0" d="M181.5,329c0.4-0.8,0.1-61.3,0.2-67.8l0.1-23.2c6-1.4,17.3,1.7,22.6,4.9c2.6,1.5,3,1.8,5,3.6
		c2.6,2.3,3.8,3.5,5.8,6.7c0.9,1.4,1.6,2.9,2.3,4.7c1.2,3.2,2.2,8.6,2,12.1c-0.5,6-2.2,11.2-5.3,15.8c-1.7,2.5-4.5,5.4-6.9,7.2
		c-0.8,0.6-1.1,0.9-2,1.4c-0.7,0.4-1.6,1.1-2.3,1.3c0.2,1,11,18.5,13.3,22.1c0.5,0.8,1.3,2.6,2.1,3.1c1.6-1.2,3.6-2.1,5.2-3.3
		c0.9-0.7,1.6-1.2,2.5-1.9c2.3-1.8,6.3-5.4,8-7.4c0.5-0.5,0.5-0.7,1-1.2c0.7-0.7,1.5-2,2.1-2.4c0.7,0.5,2.6,3.2,3.7,4.3
		c2,2.3,4,3.9,6.3,6c0.7,0.6,1.5,1.3,2.3,1.8l10.1,6.1c3.8,1.9,8,3.1,12.2,4.2c1.5,0.4,5.4,1.2,6.9,1.2c0.9-0.8,10.7-20.1,12.7-23.8
		l3.9-7.4c0-0.1,0-0.1,0-0.1l-0.1-0.4c-0.9,0.2-1.3,0.4-2.1,0.7c-10.4,3-21.3-0.5-28.9-8.1c-13.2-13.1-9.9-37.3,7.7-46.1
		c17.4-8.7,37.2,0.6,42,18.5l16.9-32c-0.4-0.2-1.6-1.7-2.1-2.2c-1.9-1.9-4.8-4.5-6.9-6.1c-2.4-1.8-8.3-5.5-10.8-6.5
		c-1-0.4-2-0.9-3-1.3c-3.7-1.3-5.9-2.1-9.9-3c-3.4-0.8-11.4-1.8-15.9-1.3c-6.7,0.7-11.5,1.3-17.8,3.8c-1,0.4-2,0.7-3.1,1.2
		c-3.4,1.6-8,4.1-11,6.3c-1.7,1.3-3.2,2.4-4.8,3.9c-1.2,1.1-3,2.4-4.4,4.2c-0.7,0.9-1.2,1.5-2,2.4l-1.4,1.8c-0.4,0.4,0,0.3-0.7,0.5
		c-0.3-1.1-2.5-3.1-3.3-4.1c-7.3-8.2-16-13.6-26.5-17.1c-6.6-2.2-11.5-2.9-19.1-2.9H144v120.2C146.7,329.1,179.8,329.4,181.5,329z"
		/>
	<path class="st0" d="M647.5,327.8c0,0.5,0.1,0.7,0.7,0.7h46.6c0.5,0,0.7-0.1,0.7-0.7v-48.2h22.3v48.2c0,0.5,0.1,0.7,0.7,0.7h46.6
		c0.5,0,0.7-0.1,0.7-0.7V208.9h-48v42.5h-22.3v-42.5h-48L647.5,327.8L647.5,327.8z"/>
	<path class="st0" d="M510.8,243.2c0.2,1.4,9.9,18.4,11.5,21.4c9.6,17.8,19.8,35.4,29.2,53.1c0.9,1.8,1.9,3.5,2.9,5.3
		c0.4,0.7,2.6,4.9,3.1,5.4c0-2.6,0-5.2,0-7.8c0-1.8-0.3-2.3,0.7-3.1c0.5-0.4,0.5-0.3,1-0.8l3.2-2.7c0.4-0.3,0.6-0.6,0.9-0.9l3.2-2.7
		c3.2-2.6,9.9-8.8,12.5-10.9l6.4-5.4v34.5H632V208.9h-46.6v41.4c0,3.2,0.3,2.8-1.7,4.3l-9.8,7.9c-2.1,1.6-15.3,12.8-16.7,13.1
		c0-2.9,0.2-5.2,0.2-7.9v-58.8h-46.9L510.8,243.2z"/>
	<path class="st0" d="M6.6,209.6v118.9c0,0.9,1.8,0.9,2.7,0.9h33.9v-90.3h43.2v90h34.8V208.9H7.3C6.8,208.9,6.6,209,6.6,209.6
		L6.6,209.6z"/>
	<path class="st0" d="M445.1,258.2c-0.2,1.3-3.9,7.6-4.7,9.2c-1.4,2.7-13.8,26.1-14.4,26.7c-0.4,1.2-2.1,4.1-2.7,5.3
		c-1,1.8-1.8,3.5-2.8,5.2l-13.2,24.8l39.3-0.9l18.7-33.9l7.6-13.6l7.5,12.9c0.7,1.2,2.2,3.4,2.3,4.6c0.8,0.7,1.6,2.5,2.2,3.6
		l15.2,26.4h19.3h18.7l-66.2-120.3l-14.1,26.6c-0.3,0.5-0.6,1-0.9,1.6L445.1,258.2z"/>
	<path class="st0" d="M831.3,276.8c1-0.5,8.9,0,10.9-0.2l-0.3-23h-10.7c0-14.2-0.1-28.5,0-42.7c0-1.9,0.3-1.6-3.7-1.6
		c-2.1,0-3.3-0.3-5.2-0.2c-3.6,0-7.1,0-10.7,0c-3.8,0-6.8-0.2-10.5-0.2c-3.6,0-7.1,0-10.7,0v115.2c0,2.7-0.5,4.1,0.7,4.3h7.5
		c1,0,1.1-0.2,2.3-0.2h30.2L831.3,276.8z"/>
	<path class="st0" d="M854.3,253.2c-0.1,4.1,0,8.2,0,12.3c0,2.4-0.3,10.7,0.2,12.5l18.4,40.9c0.4,1,0.9,2,1.4,3.1l2.9,6.4h40.7
		c0-1.7-8.2-17.1-9.4-20.1L889,268.6c-0.5-1-1.6-3-1.9-4c1.4-2,2.7-5,3.8-6.9c3.1-5.1,6.5-11.9,9.7-17.3l5.8-10.4
		c0.7-1.2,1.3-2.2,2-3.5c0.4-0.7,0.6-1,1-1.7c0.4-0.8,0.6-1.2,1-1.8l6.7-12.2c0.4-0.7,0.7-0.9,0.8-1.9H877l-13.9,27.6
		c-1,2-1.8,3.7-2.8,5.6C859.9,242.7,854.9,252.7,854.3,253.2z"/>
	<path class="st1" d="M352.3,230.5c-0.3,1.2-5.4,10.6-6.3,12.4l-44.8,85.5h17.5l22.5,0.1l0.1-0.2V328l0.2-0.2
		c0.3-0.8,0.5-0.8,0.8-1.5l38.9-75.5c1.8-3.7,2.5-3.6,1.5-5.5c-0.7-1.3-2.5-4.3-2.7-5.5l-4-7.6c-0.7-1.2-1.3-2.4-2-3.7l-10.1-19.2
		c-0.8,0.2-0.6,0.2-1,1l-9.1,17.5C353.2,228.8,352.9,229.7,352.3,230.5z"/>
	<path class="st1" d="M407,230.5c-0.3,1.1-3.8,8-4.6,9.6l-27.1,56.2l16.3,32.6c1-0.8,17.5-31.1,21-37.6c1.7-3.2,3.8-6.9,5.6-10.1
		l7.7,12.9c0.6-0.6,13-24,14.4-26.7c0.8-1.6,4.5-7.9,4.7-9.2l-5.2-9.2c-0.6-1-1.1-2-1.7-3.1l-14.5-26.2c-0.3-0.6-0.5-1-0.9-1.6
		l-4.3-7.7c-0.5-0.8-0.3-1.1-1.2-1.3c-0.3,1.2-1.9,4-2.5,5.2c-0.4,0.9-0.7,1.7-1.2,2.7L407,230.5z"/>
	<path class="st1" d="M446.6,328.4H466h17.7c-0.1-1-5.7-10.9-6.4-12l-2.2-4.2c-0.8-0.6-4.2-7.3-5.1-8.8c-1-1.9-4.5-7.6-4.8-9
		L446.6,328.4z"/>
	<path class="st0" d="M7,348.3v-3.7h20.7v3.7h-8.4v34h-3.9v-34H7z M33.3,344.6H55v3.7H37.1v11.8h17.7v3.7H37.1v14.9h17.7v3.7H33.3
		L33.3,344.6L33.3,344.6z M59.6,344.6H64l9.1,14.6l9.1-14.6h4.5l-11.3,18.2l12.1,19.5H83l-9.8-15.9l-9.9,15.9h-4.5l12.1-19.5
		L59.6,344.6z M93.7,344.6h3.8v15.8h19.3v-15.8h3.8v37.7h-3.8v-18.2H97.5v18.2h-3.8V344.6z M147.8,343.6c5.8,0,10.5,1.9,14.4,5.7
		c3.9,3.8,5.8,8.5,5.8,14.1c0,5.5-1.9,10.2-5.8,14.1c-3.9,3.9-8.6,5.8-14.1,5.8c-5.6,0-10.3-1.9-14.2-5.8c-3.9-3.8-5.8-8.4-5.8-13.9
		c0-3.6,0.9-7,2.6-10.1c1.8-3.1,4.2-5.5,7.2-7.3C141,344.5,144.3,343.6,147.8,343.6z M148,347.3c-2.8,0-5.4,0.7-8,2.2
		c-2.5,1.4-4.5,3.4-5.9,5.9s-2.1,5.2-2.1,8.2c0,4.5,1.6,8.2,4.7,11.3s6.9,4.6,11.3,4.6c2.9,0,5.7-0.7,8.2-2.1s4.5-3.4,5.9-5.8
		c1.4-2.4,2.1-5.2,2.1-8.2s-0.7-5.7-2.1-8.1c-1.4-2.4-3.4-4.4-5.9-5.8C153.6,348.1,150.9,347.3,148,347.3z M206.4,382.3h-4.1
		l-12.6-29.2l-12.8,29.2h-4.1l16.5-37.7h0.9L206.4,382.3z M230.8,343.6c5.8,0,10.5,1.9,14.4,5.7c3.9,3.8,5.8,8.5,5.8,14.1
		c0,5.5-1.9,10.2-5.8,14.1c-3.9,3.9-8.6,5.8-14.1,5.8c-5.6,0-10.3-1.9-14.2-5.8c-3.9-3.8-5.8-8.4-5.8-13.9c0-3.6,0.9-7,2.6-10.1
		c1.8-3.1,4.2-5.5,7.2-7.3C224,344.5,227.3,343.6,230.8,343.6z M231,347.3c-2.8,0-5.4,0.7-8,2.2c-2.5,1.4-4.5,3.4-5.9,5.9
		s-2.1,5.2-2.1,8.2c0,4.5,1.6,8.2,4.7,11.3s6.9,4.6,11.3,4.6c2.9,0,5.7-0.7,8.2-2.1s4.5-3.4,5.9-5.8c1.4-2.4,2.1-5.2,2.1-8.2
		s-0.7-5.7-2.1-8.1c-1.4-2.4-3.4-4.4-5.9-5.8C236.6,348.1,233.9,347.3,231,347.3z M262.4,382.3h-3.8v-37.7h19v3.7h-15.2V382.3z
		 M312.9,382.3h-4v-29l-25,29H283v-37.7h3.8V374l25.2-29.4h0.9V382.3z M352,382.3h-4v-29l-25,29h-0.9v-37.7h3.8V374l25.2-29.4h0.9
		V382.3z M388.8,382.3l5.2-37.7h0.8l15.4,30.9l15.3-30.9h0.6l5.4,37.7h-3.7l-3.8-27l-13.4,27h-1L396,355.1l-3.6,27.2H388.8z
		 M439,344.6h21.7v3.7h-17.9v11.8h17.7v3.7h-17.7v14.9h17.7v3.7H439V344.6z M463.5,348.3v-3.7h20.7v3.7h-8.4v34h-3.9v-34H463.5z
		 M505.2,344.6l17.7,37.7h-4.1l-5.9-12.4h-16.4l-5.9,12.4h-4.2l17.9-37.7H505.2z M504.8,352.5l-6.5,13.7h13L504.8,352.5z
		 M559.5,382.3h-4.1l-12.6-29.2L530,382.3h-4.1l16.5-37.7h0.9L559.5,382.3z M583.9,343.6c5.7,0,10.5,1.9,14.4,5.7
		c3.9,3.8,5.8,8.5,5.8,14.1c0,5.5-1.9,10.2-5.8,14.1c-3.9,3.9-8.6,5.8-14.1,5.8c-5.6,0-10.4-1.9-14.2-5.8c-3.9-3.8-5.8-8.4-5.8-13.9
		c0-3.6,0.9-7,2.6-10.1c1.8-3.1,4.2-5.5,7.2-7.3C577.1,344.5,580.4,343.6,583.9,343.6z M584.1,347.3c-2.8,0-5.5,0.7-8,2.2
		c-2.5,1.4-4.5,3.4-5.9,5.9s-2.1,5.2-2.1,8.2c0,4.5,1.6,8.2,4.7,11.3c3.1,3.1,6.9,4.6,11.3,4.6c2.9,0,5.7-0.7,8.2-2.1
		s4.5-3.4,5.9-5.8c1.4-2.4,2.1-5.2,2.1-8.2s-0.7-5.7-2.1-8.1c-1.4-2.4-3.4-4.4-5.9-5.8C589.7,348.1,587,347.3,584.1,347.3z
		 M629.8,343.6c5.7,0,10.5,1.9,14.4,5.7c3.9,3.8,5.8,8.5,5.8,14.1c0,5.5-1.9,10.2-5.8,14.1c-3.9,3.9-8.6,5.8-14.1,5.8
		c-5.6,0-10.3-1.9-14.2-5.8c-3.9-3.8-5.8-8.4-5.8-13.9c0-3.6,0.9-7,2.6-10.1c1.8-3.1,4.2-5.5,7.2-7.3
		C623,344.5,626.3,343.6,629.8,343.6z M630,347.3c-2.8,0-5.5,0.7-8,2.2c-2.5,1.4-4.5,3.4-5.9,5.9s-2.1,5.2-2.1,8.2
		c0,4.5,1.6,8.2,4.7,11.3c3.1,3.1,6.9,4.6,11.3,4.6c2.9,0,5.7-0.7,8.2-2.1s4.5-3.4,5.9-5.8c1.4-2.4,2.1-5.2,2.1-8.2
		s-0.7-5.7-2.1-8.1c-1.4-2.4-3.4-4.4-5.9-5.8C635.5,348.1,632.9,347.3,630,347.3z M657.6,382.3v-37.7h19v3.7h-15.2v12.1h1.8
		c4.7,0,8.1,0.4,10.3,1.2c2.1,0.9,3.8,2.2,5,3.9c1.2,1.8,1.8,3.8,1.8,6c0,2.9-1.1,5.4-3.2,7.5c-2.2,2.2-5.2,3.3-9,3.3H657.6z
		 M661.5,364.1v14.5h4.6c2.7,0,4.8-0.3,6-0.8c1.3-0.5,2.3-1.4,3.1-2.5c0.8-1.1,1.1-2.4,1.1-3.8c0-1.7-0.5-3.2-1.6-4.5s-2.4-2-4-2.4
		s-4-0.6-7.1-0.6h-2.1V364.1z M687.9,344.6h7.5c4.3,0,7.3,0.2,8.8,0.5c2.2,0.5,3.9,1.6,5.3,3.3c1.4,1.6,2.1,3.7,2.1,6.2
		s-0.7,4.6-2,6.2c-1.3,1.6-3.2,2.7-5.5,3.3c-1.7,0.4-5,0.6-9.7,0.6h-2.7v17.5h-3.8L687.9,344.6L687.9,344.6z M691.7,348.3v12.8
		l6.4,0.1c2.6,0,4.5-0.2,5.7-0.7s2.2-1.2,2.8-2.3s1-2.2,1-3.5s-0.3-2.4-1-3.5s-1.6-1.8-2.7-2.2c-1.1-0.5-3-0.7-5.6-0.7L691.7,348.3
		L691.7,348.3z M734.7,344.6l17.7,37.7h-4.1l-5.9-12.4H726l-5.9,12.4h-4.2l17.9-37.7H734.7z M734.2,352.5l-6.5,13.7h13L734.2,352.5z
		 M758.2,382.3v-37.7h19v3.7H762v12.1h1.8c4.7,0,8.1,0.4,10.3,1.2c2.1,0.9,3.8,2.2,5,3.9c1.2,1.8,1.8,3.8,1.8,6
		c0,2.9-1.1,5.4-3.3,7.5c-2.2,2.2-5.2,3.3-9,3.3H758.2z M762,364.1v14.5h4.6c2.7,0,4.8-0.3,6-0.8c1.3-0.5,2.3-1.4,3.1-2.5
		c0.8-1.1,1.1-2.4,1.1-3.8c0-1.7-0.5-3.2-1.6-4.5c-1.1-1.2-2.4-2-4.1-2.4c-1.6-0.4-4-0.6-7.1-0.6h-2V364.1z M806.5,343.6
		c5.7,0,10.5,1.9,14.4,5.7c3.9,3.8,5.8,8.5,5.8,14.1c0,5.5-1.9,10.2-5.8,14.1c-3.9,3.9-8.6,5.8-14.1,5.8c-5.6,0-10.4-1.9-14.2-5.8
		c-3.8-3.9-5.8-8.4-5.8-13.9c0-3.6,0.9-7,2.6-10.1c1.8-3.1,4.2-5.5,7.2-7.3C799.7,344.5,803,343.6,806.5,343.6z M806.7,347.3
		c-2.8,0-5.5,0.7-8,2.2c-2.5,1.4-4.5,3.4-5.9,5.9s-2.1,5.2-2.1,8.2c0,4.5,1.6,8.2,4.7,11.3s6.9,4.6,11.3,4.6c2.9,0,5.7-0.7,8.2-2.1
		s4.5-3.4,5.9-5.8c1.4-2.4,2.1-5.2,2.1-8.2s-0.7-5.7-2.1-8.1c-1.4-2.4-3.4-4.4-5.9-5.8C812.3,348.1,809.6,347.3,806.7,347.3z
		 M830.6,348.3v-3.7h20.7v3.7h-8.4v34H839v-34H830.6z M856.8,344.6h3.9v14.1l15.2-14.1h5.1l-18.3,16.9l19.7,20.8h-5.1l-16.7-17.6
		v17.6h-3.9v-37.7H856.8z M917.9,382.3H914v-29l-25,29h-0.9v-37.7h3.8V374l25.2-29.4h0.9L917.9,382.3L917.9,382.3z"/>
</g>
<g>
	<path class="st1" d="M467.9,144.3c-0.4,0.4,0.4,0.1-0.8,0.5l-6.8,0.4c-2.4,0-4.9-0.4-7.1-0.6c-4.8-0.5-9.3-1.9-13.2-3.5
		c-2.1-0.9-3.8-1.7-5.5-2.6c-1.4-0.8-4.1-2.7-5.2-3.2l-11.4,11.4c-1.6,1.6-1.6,1.3-1.7,4L416,168l22.5,9.1l13.1-14.1
		c4.9,0.3,11.7,0.8,16.7,0.1c0.7-0.1,1.4-0.3,1.8,0.1l13.2,13.6l22.8-9.2l-0.5-19.6c3.5-2,10.4-9.5,12.9-12.9l19.5,0.4l9.2-22.8
		L533,99.5c-0.1-2.7,0.4-6,0.4-9.1c0-11-2.5-7.7,2.8-12.5l10.5-10.1L537.5,45l-16.8,0.5c-2.9,0.1-2.5-0.3-4.2,1.5
		S506.3,57.5,505,58.4c0.5,1.7,2.4,4,3.3,5.7c1,1.9,2.1,4,2.9,6.2c11,28.9-2.7,59.2-29.2,70.4C479.6,141.8,471,144.9,467.9,144.3z"
		/>
	<path class="st0" d="M416.1,122.1c-0.7-1.3-1.7-2.6-2.4-3.8c-6.1-10.1-8.7-22.7-7.3-34.6c3-24.9,23.6-45.2,48.5-47.7
		c7.7-0.8,14.3-0.1,21.2,1.9c9.6,2.8,15.1,7.3,16.1,7.6c3.7-3.6,7.5-7.6,11.5-11.6c1.7-1.7,1.5-1.4,1.5-4.3l0.2-16.6l-22.5-9.2
		c-1.2,0.8-8.6,8.9-10.3,10.8c-0.9,1-2.1,3-3.4,3.1c-5.9-0.5-11.8-0.6-17.7,0.1c-0.1,0-0.3-0.1-0.4-0.2l-1.2-1
		c-0.4-0.4-0.8-0.8-1-1.1L437.8,4.1l-22.4,9.3c-0.6,2.4,0.3,16.2,0.4,19.5c-3.7,2.4-10.5,9.4-12.9,13.1l-8.2-0.2l-11.2-0.3l-9.2,23
		l14.2,13.7c0,0,0,0,0,0.1c-0.1,0.9-1,3-0.8,8.8c0,2.2,0.8,6.8,0.7,8.5c-0.1,1-1.3,1.8-2,2.5l-11.8,11.3l9.3,22.8l16.9-0.5
		c2,0,2.7-0.3,4.2-1.8C406.8,131.7,415.3,123.6,416.1,122.1z"/>
	<path class="st0" d="M464.1,115.5c-0.2,0.2,0.2,0.1-0.4,0.2l-3.1,0.2c-1.1,0-2.3-0.2-3.3-0.3c-2.2-0.2-4.3-0.9-6.1-1.6
		c-1-0.4-1.8-0.8-2.6-1.2c-0.6-0.4-1.9-1.3-2.4-1.5c-0.6,0.4-4.4,4.4-5.3,5.3c-0.7,0.7-0.7,0.6-0.8,1.8c-0.1,1.8-0.3,6.8-0.1,8
		l10.5,4.2l6.1-6.6c2.3,0.2,5.4,0.4,7.8,0c1.2-0.2,1.4,0.3,2.9,2.1c1.1,1.3,2.8,2.7,4,4.3c0.9-0.1,4.4-1.7,5.4-2.1
		c1.7-0.7,3.6-1.6,5.2-2.2c0.3-1.7-0.1-7-0.2-9.1c1.6-0.9,4.8-4.4,6-6l9.1,0.2l4.3-10.6c-1.2-1.2-2.2-2-3.3-3l-3.3-3.1
		c0-1.3,0.2-2.8,0.2-4.2c0-5.1-1.2-3.6,1.3-5.8l4.9-4.7c-0.1-0.8-1.7-4.3-2.1-5.3c-0.6-1.4-1.8-3.8-2.2-5.3l-7.8,0.3
		c-1.4,0-1.2-0.1-2,0.7c-0.8,0.8-4.7,4.9-5.3,5.3c0.2,0.8,1.1,1.9,1.5,2.6c0.5,0.9,1,1.9,1.3,2.9c5.1,13.4-1.2,27.5-13.6,32.8
		C469.6,114.3,465.5,115.8,464.1,115.5z"/>
	<path class="st1" d="M440,105.2c-0.3-0.6-0.8-1.2-1.1-1.8c-2.8-4.7-4-10.6-3.4-16.1c1.4-11.6,11-21,22.6-22.2
		c3.6-0.4,6.7,0,9.9,0.9c4.5,1.3,7,3.4,7.5,3.5c1.7-1.7,3.5-3.5,5.3-5.4c0.8-0.8,0.7-0.7,0.7-2c0-0.9,0-1.7,0.1-2.6
		c0.1-1.3,0.2-3.9,0-5.1l-10.5-4.3c-0.6,0.4-4,4.1-4.8,5c-0.4,0.5-1,1.4-1.6,1.5c-0.5,0.1-3.2-0.2-4.1-0.2c-2,0-4,0.5-4.6,0
		l-0.3-0.3c-0.2-0.2-0.4-0.4-0.5-0.5l-5.2-5.4l-10.3,4.4c-0.3,1.1,0.1,7.5,0.2,9.1c-1.7,1.1-4.9,4.4-6,6.1l-9-0.2
		c-0.5,1-4.2,10.1-4.3,10.7c1.4,1.5,3.1,2.9,4.5,4.2c3.1,3,1.7,0.6,1.7,6.3c0,1,0.4,3.2,0.3,3.9c0,0.5-0.6,0.9-0.9,1.2
		c-1.5,1.4-4.4,4-5.5,5.3c0.1,0.9,0.9,2,1.2,2.6c0.1,0.3,0.4,1,0.5,1.4c0.8,2.6,1.8,4,2.6,6.6c1.8-0.1,3.6-0.1,5.5-0.2
		c3.1-0.1,3.3,0.2,4.3-0.9C435.7,109.6,439.6,105.9,440,105.2z"/>
</g>
</svg>
