<?xml version="1.0" encoding="utf-8"?>
<!-- Generator: Adobe Illustrator 22.0.1, SVG Export Plug-In . SVG Version: 6.00 Build 0)  -->
<svg version="1.1" xmlns="http://www.w3.org/2000/svg" xmlns:xlink="http://www.w3.org/1999/xlink" x="0px" y="0px"
	 viewBox="0 0 853 219" style="enable-background:new 0 0 853 219;" xml:space="preserve">
<style type="text/css">
	.st0{fill:#666666;stroke:#000000;stroke-miterlimit:10;}
	.st1{fill:url(#SVGID_1_);}
	.st2{fill:url(#SVGID_2_);}
	.st3{fill:url(#SVGID_3_);}
</style>
<g id="Слой_2">
	<rect class="st0" width="853" height="219"/>
</g>
<g id="Слой_1">
	<g id="Слой_x0020_1">
		
			<linearGradient id="SVGID_1_" gradientUnits="userSpaceOnUse" x1="32241.3984" y1="24989.0293" x2="32183.3984" y2="18941.8594" gradientTransform="matrix(2.834630e-02 0 0 2.834630e-02 -526.6356 -507.8895)">
			<stop  offset="0" style="stop-color:#C7C7C7"/>
			<stop  offset="0.4392" style="stop-color:#E0E0E0"/>
			<stop  offset="1" style="stop-color:#C6C6C6"/>
		</linearGradient>
		<path class="st1" d="M183.5,197.6h-51.1v-125H92.3v51c0,20.9-1.1,36.3-3.3,46.2c-2.2,9.8-7.5,17.1-15.6,21.7
			c-8.2,4.6-21.4,6.9-39.6,6.9c-5.6,0-12-0.6-19.2-1.8V163h7.7c6.9,0,11.8-1.5,14.7-4.6c2.9-3,4.3-8.6,4.3-16.8V31.9h142.4v165.7
			H183.5z M199.2,114.9c0-27,7.5-48.1,22.6-63.2s36.1-22.6,63-22.6c27.6,0,48.8,7.4,63.8,22.2c14.9,14.8,22.4,35.6,22.4,62.2
			c0,19.4-3.3,35.2-9.8,47.6c-6.5,12.4-16,22-28.3,28.9c-12.4,6.9-27.7,10.3-46.1,10.3c-18.7,0-34.1-3-46.4-8.9
			c-12.2-6-22.2-15.4-29.8-28.3C203,150.4,199.2,134.2,199.2,114.9z M250.4,115c0,16.7,3.1,28.7,9.4,36c6.2,7.3,14.7,10.9,25.5,10.9
			c11,0,19.6-3.6,25.6-10.7c6.1-7.2,9.1-20,9.1-38.6c0-15.6-3.2-27-9.4-34.1c-6.3-7.2-14.9-10.8-25.7-10.8
			c-10.3,0-18.7,3.7-24.9,10.9C253.5,86,250.4,98.1,250.4,115z M386.5,31.9H454l25.7,100.9l25.8-100.9h67.2v165.7h-41.9V71.3
			l-32.3,126.3h-38L428.4,71.3v126.3h-41.9V31.9z M587.3,114.9c0-27,7.5-48.1,22.6-63.2s36.1-22.6,63-22.6
			c27.6,0,48.8,7.4,63.8,22.2c14.9,14.8,22.4,35.6,22.4,62.2c0,19.4-3.2,35.2-9.8,47.6c-6.5,12.4-16,22-28.3,28.9
			s-27.7,10.3-46.1,10.3c-18.7,0-34.1-3-46.4-8.9c-12.2-6-22.2-15.4-29.8-28.3C591.2,150.4,587.3,134.2,587.3,114.9z M638.5,115
			c0,16.7,3.1,28.7,9.3,36c6.3,7.3,14.7,10.9,25.5,10.9c11,0,19.6-3.6,25.6-10.7c6.1-7.2,9.1-20,9.1-38.6c0-15.6-3.2-27-9.5-34.1
			c-6.3-7.2-14.9-10.8-25.7-10.8c-10.3,0-18.7,3.7-24.9,10.9C641.6,86,638.5,98.1,638.5,115z"/>
		<g id="_900983280">
			
				<linearGradient id="SVGID_2_" gradientUnits="userSpaceOnUse" x1="46774.6289" y1="20067.2734" x2="46712.5273" y2="18723.4238" gradientTransform="matrix(2.834630e-02 0 0 2.834630e-02 -526.6356 -507.8895)">
				<stop  offset="0" style="stop-color:#C7C7C7"/>
				<stop  offset="0.4392" style="stop-color:#E0E0E0"/>
				<stop  offset="1" style="stop-color:#C6C6C6"/>
			</linearGradient>
			<path class="st2" d="M791.9,39.7v-9.8c0.5-0.1,3,0,3.7,0c1.1,0,2.3,0.1,3.3,0.4c2,0.6,2.9,2,2.9,4.5c0,5.3-4.2,4.9-8.1,4.9
				C793.2,39.7,792.5,39.8,791.9,39.7z M782.1,60.9h9.8V46.5c1-0.1,2.5,0,3.5,0c3.1,0.2,4.5,2,5.9,4.8l3.5,7.2
				c0.2,0.4,0.4,0.8,0.6,1.2c0.2,0.4,0.4,0.9,0.6,1.2h10.4c0-0.3-4.7-9.6-4.9-10c-0.8-1.7-1.7-3.4-2.7-4.7c-2.4-2.9-3.9-2.7-4.4-3.1
				c0.3-0.1,0.9-0.3,1.2-0.5c3-1.2,5.1-3.3,5.8-6.7c0.4-2.1,0.3-4.5-0.3-6.4c-1.8-6-9-6.7-14.7-6.7h-10.7c-1.2,0-2.5-0.1-3.6,0
				L782.1,60.9L782.1,60.9z"/>
			
				<linearGradient id="SVGID_3_" gradientUnits="userSpaceOnUse" x1="46783.8477" y1="20619.1543" x2="46684.2773" y2="18227.9844" gradientTransform="matrix(2.834630e-02 0 0 2.834630e-02 -526.6356 -507.8895)">
				<stop  offset="0" style="stop-color:#C7C7C7"/>
				<stop  offset="0.4392" style="stop-color:#E0E0E0"/>
				<stop  offset="1" style="stop-color:#C6C6C6"/>
			</linearGradient>
			<path class="st3" d="M796.6,11.2c5.6-0.4,11.5,1.2,16.1,3.6c2.3,1.2,3.9,2.4,5.9,4l1,0.9c0.3,0.3,0.7,0.6,1,1l0.9,1
				c0.1,0.1,0.3,0.4,0.5,0.6c1.7,2.1,3,3.8,4.3,6.5c2.1,4.4,2.9,7.5,3.2,12.5c0.3,4.4-0.7,9.4-2.3,13.4c-2.4,6-7.2,11.7-12.7,14.9
				c-4.6,2.7-9.1,4.3-15,4.6c-4.7,0.3-9.6-0.7-13.4-2.3c-4-1.7-6.9-3.7-9.6-6.2c-9-8.3-12.8-22.1-7.7-35c2.8-7,8.4-12.9,15.2-16.3
				C788.2,12.4,792,11.5,796.6,11.2z M832,43.9c0.7-19.2-14.3-34.5-32.6-35.2C790,8.4,781,11.9,774.8,18c-1,1-2.2,2.2-3.1,3.3
				c-0.3,0.4-0.6,0.8-0.9,1.2c-3.7,5-6.4,12.1-6.6,18.8c-0.1,2.7,0.1,5.3,0.6,7.9c0.5,2.3,1.1,4.6,2,6.5c1.5,3.4,2.6,5.2,4.7,8
				c1.3,1.7,3.7,4.2,5.3,5.3c0.4,0.3,0.8,0.6,1.2,0.9c1.5,1.2,3.3,2.3,5.3,3.2c4,1.9,8.5,3.2,13.6,3.4C816,77.2,831.3,62.3,832,43.9
				z"/>
		</g>
	</g>
</g>
</svg>
