<?xml version="1.0" encoding="utf-8"?>
<!-- Generator: Adobe Illustrator 22.0.1, SVG Export Plug-In . SVG Version: 6.00 Build 0)  -->
<svg version="1.1" id="Слой_1" xmlns="http://www.w3.org/2000/svg" xmlns:xlink="http://www.w3.org/1999/xlink" x="0px" y="0px"
	 viewBox="0 0 250.4 193" style="enable-background:new 0 0 250.4 193;" xml:space="preserve">
<style type="text/css">
	.st0{fill:#0306D6;}
</style>
<g id="Слой_x0020_1">
	<path class="st0" d="M181.9,10.8c10.3-1.8,21.1,0,30.4,4.7c0.2,9,0.2,18,0,27c-2-2.3-4.1-4.6-6.7-6.3c-6.2-4.1-13.9-5.6-21.2-4.1
		c-6.6,1.5-13.4,4.4-17.2,10.3c-5.2,8-6.8,18.4-3.4,27.4c-6.4,4.4-13.1,8.5-19.6,12.8c-5.2,3.3-10.3,6.7-15.5,9.9
		c-3.7-6.3-7.7-12.3-11.5-18.6c-2.8,1.6-5.4,3.5-8.2,5.2c-1.6-1.9-2.7-4.1-4.1-6.1c-4.8,2.8-9.4,6.1-14.2,9c-2.4,1.7-5,3.1-7.3,4.9
		c1.4,2,2.6,4.1,3.9,6.2c-15.1,9.8-30.2,19.5-45.3,29.3C32,128.8,21.9,135.6,11.6,142c0-7.8-0.1-15.6,0-23.4
		c10.4-6.6,20.7-13.4,31.1-20c7.7-5.2,15.7-10,23.4-15.2c-1.3-2.1-2.6-4.2-4-6.2c11.4-7.5,22.9-14.8,34.4-22.2
		c2.7-1.8,5.4-3.6,8.2-5.2c3,4.6,5.9,9.3,9,13.8c2.5-1.5,4.9-3.2,7.4-4.6c2.8,4.2,5.3,8.5,8.1,12.7c3.9-2.2,7.4-5,11.5-7.1
		c-0.1-2.8-0.2-5.6,0-8.4c0.6-9.3,3.9-18.4,9.5-25.9C157.6,19.9,169.3,12.8,181.9,10.8z"/>
	<path class="st0" d="M194.8,87.3c6.9-1,13.1-5,17.5-10.3c0.1,8.9,0.2,17.8,0,26.6c-5.9,2.7-12.1,4.6-18.6,5.2
		c-4,0.1-8.1,0.3-12-0.5c-4.3-0.7-8.3-2.2-12.3-3.6c-4.6,3.1-9.3,6-13.9,9c2.4,4.1,5,8,7.5,11.9c0.2,0.4,0.6,0.8,0.3,1.2
		c-1.8,1.4-4,2.2-5.8,3.7c-0.1,0.1-0.2,0.4-0.3,0.5c1.8,3.1,3.9,6,5.8,9.1c0.7,1.4,1.2,2.8,2.1,4.1c-5.6,3.9-11.5,7.4-17.2,11.2
		c-8.1,5.2-16.1,10.4-24.2,15.6c-0.6,0.3-1.3,1.1-1.9,0.4c-1.9-1.9-3.2-4.3-4.5-6.7c-2.1,1-3.9,2.3-5.8,3.5
		c-8.4,5.4-16.7,10.7-25,16.2c-0.9,0.6-1.9,0.4-2.9,0.4c-11.3-0.1-22.6,0.1-33.8-0.1c15.2-10,30.5-19.7,45.8-29.6
		c7.5-4.8,15-9.8,22.6-14.5c1.6,2.3,3,4.7,4.7,7c6.8-4.5,13.8-8.8,20.6-13.4c-1.4-2.4-2.9-4.7-4.4-7.1c2.7-1.9,5.5-3.5,8.2-5.4
		c-3.2-5.4-6.7-10.5-9.8-15.9c12-7.9,24.1-15.6,36.2-23.4C179.8,86.6,187.5,88.7,194.8,87.3z"/>
</g>
<g>
	<path class="st0" d="M189.9,12.2c26.1,0,47.4,21.3,47.4,47.4s-21.3,47.4-47.4,47.4c-7.5,0-14.8-1.8-21.5-5.2
		c1.6-0.7,3.1-1.6,4.6-2.8c1.9-1.5,6.3-5.4,9-10.4c2.6,0.7,5.3,1.1,8,1.1c16.6,0,30.1-13.5,30.1-30.1c0-16.6-13.5-30.1-30.1-30.1
		c-16.6,0-30.1,13.5-30.1,30.1c0,1.1,0.1,2.3,0.2,3.4c-1.7,0.4-3.3,1.5-4.4,2.9c-1,1.4-1.5,3-1.4,4.6c-0.7,0.1-1.4,0.3-2.1,0.5
		c-1.1,0.3-2.1,0.8-3,1.5c-0.2-0.4-0.4-0.8-0.5-1.2c-1.1-2.4-3-3.7-5.4-3.8c-0.4-2.6-0.7-5.3-0.7-8
		C142.5,33.4,163.7,12.2,189.9,12.2 M189.9,10.2c-27.3,0-49.4,22.1-49.4,49.4c0,3.5,0.4,6.9,1.1,10.2c0.5-0.2,1-0.3,1.5-0.3
		c1.5,0,2.9,0.8,3.7,2.6c0.4,0.9,1,2.2,1.7,3.7c1.1-1.3,2.6-2.3,4.2-2.9c1.3-0.4,2.7-0.6,4.1-0.6c-0.1-0.4-0.3-0.7-0.4-1.1
		c-0.9-3.2,2.2-6.5,5.2-6.5c0.3,0,0.5,0,0.8,0.1c-0.3-1.7-0.5-3.5-0.5-5.3c0-15.5,12.6-28.1,28.1-28.1c15.5,0,28.1,12.6,28.1,28.1
		c0,15.5-12.6,28.1-28.1,28.1c-3.2,0-6.2-0.5-9-1.5c-1.9,4.5-5.8,8.6-9.2,11.3c-2.9,2.4-5.8,3.5-8.6,3.7c7.7,5,16.9,7.9,26.7,7.9
		c27.3,0,49.4-22.1,49.4-49.4C239.2,32.3,217.1,10.2,189.9,10.2L189.9,10.2z"/>
</g>
</svg>
