<?xml version="1.0" encoding="utf-8"?>
<!-- Generator: Adobe Illustrator 22.0.1, SVG Export Plug-In . SVG Version: 6.00 Build 0)  -->
<svg version="1.1" id="Слой_1" xmlns="http://www.w3.org/2000/svg" xmlns:xlink="http://www.w3.org/1999/xlink" x="0px" y="0px"
	 viewBox="0 0 248.2 135.4" style="enable-background:new 0 0 248.2 135.4;" xml:space="preserve">
<style type="text/css">
	.st0{fill:#19519E;}
	.st1{fill:#FFFFFF;}
</style>
<g id="Слой_x0020_1">
	<rect x="5.1" y="2.3" class="st0" width="238.6" height="131.2"/>
	<g id="_2442401088">
		<path class="st1" d="M218.1,26.1V22c0.2,0,1.2,0,1.5,0c0.5,0,1,0,1.4,0.1c0.8,0.3,1.2,0.9,1.2,1.9c0,2.2-1.8,2-3.4,2
			C218.6,26.1,218.3,26.1,218.1,26.1z M213.9,35h4.1l0-6c0.4,0,1,0,1.5,0c1.3,0.1,1.9,0.9,2.5,2l1.5,3c0.1,0.2,0.1,0.3,0.3,0.5
			c0.1,0.2,0.1,0.3,0.2,0.5h4.4c0-0.1-2-4-2-4.2c-0.4-0.7-0.7-1.4-1.2-2c-1-1.2-1.6-1.2-1.8-1.3c0.1-0.1,0.4-0.2,0.5-0.2
			c1.2-0.5,2.1-1.4,2.4-2.8c0.2-0.9,0.1-1.9-0.1-2.7c-0.8-2.5-3.7-2.8-6.2-2.8h-4.5c-0.5,0-1,0-1.5,0L213.9,35z"/>
		<path class="st1" d="M220,14.2c2.4-0.1,4.8,0.5,6.7,1.5c1,0.5,1.6,1,2.5,1.7l0.4,0.4c0.1,0.1,0.3,0.3,0.4,0.4l0.4,0.4
			c0.1,0.1,0.1,0.2,0.2,0.2c0.7,0.9,1.3,1.6,1.8,2.7c0.9,1.8,1.2,3.1,1.4,5.2c0.1,1.8-0.3,3.9-1,5.6c-1,2.5-3,4.9-5.3,6.2
			c-1.9,1.2-3.8,1.8-6.3,1.9c-2,0.1-4-0.3-5.6-1c-1.7-0.7-2.9-1.6-4-2.6c-3.8-3.5-5.4-9.2-3.2-14.6c1.2-2.9,3.5-5.4,6.3-6.8
			C216.5,14.7,218.1,14.3,220,14.2z M234.8,27.9c0.3-8-6-14.5-13.7-14.7c-3.9-0.1-7.7,1.3-10.3,3.9c-0.4,0.4-1,0.9-1.3,1.4
			c-0.1,0.2-0.3,0.3-0.4,0.5c-1.6,2.1-2.7,5.1-2.7,7.9c0,1.2,0,2.2,0.3,3.3c0.2,1,0.5,1.9,0.8,2.7c0.6,1.4,1.1,2.2,2,3.4
			c0.5,0.7,1.6,1.7,2.2,2.2c0.2,0.1,0.3,0.3,0.5,0.4c0.7,0.5,1.4,1,2.2,1.3c1.6,0.8,3.5,1.4,5.7,1.4
			C228.1,41.8,234.6,35.6,234.8,27.9z"/>
	</g>
	<path class="st1" d="M61.3,66.4c0.1,0.2,2.8,0.4,3.2,0.5l9.6,1.2c12.6,1.5,25.2,3.1,37.7,4.5c0.1,0,0.3,0,0.4,0.1l0.3,0.1
		c0.2,1.2,0.2,2.5,0.2,3.7L61.4,70v4.2l50.8,6c0.1,0.5-0.8,3.1-1,3.6l-49.9-6c0,0.2,0,0.5-0.1,0.7c0,0.7,0.1,1.9,0,2.6
		c-0.1,0.5,0,0.4,0.4,0.4l20.8,2.4c2.2,0.3,4.3,0.4,6.4,0.7c0.5,0.1,1,0.1,1.6,0.2c2.9,0.4,5.8,0.7,8.8,1c0.3,0,0.6,0.1,0.8,0.1
		c2.1,0.3,4.3,0.5,6.4,0.7l2.4,0.3c0.3,0,0.6,0.1,0.9,0.1c0,0.3-0.5,1.3-0.6,1.6c-0.7,1.4-1.6,2.9-2.7,4c-0.3,0.3-0.4,0.5-0.7,0.7
		l-1,0.9c-0.2,0.2-0.4,0.3-0.6,0.5c-0.9,0.7-1.8,1.2-2.7,1.7c-0.9,0.5-2.1,1-3.1,1.4c-2.4,0.8-4.5,1.4-7.2,1.7
		c-1.2,0.2-2.4,0.3-3.6,0.3c-0.3,0-0.3,0.1-0.5,0.1c-0.3,0-0.7,0-1.1,0c-0.3,0.1-0.6,0.1-1,0.1c-0.8,0-1.4-0.1-2.2-0.1
		c-0.7,0-1.4-0.1-2.1-0.1c-0.3,0-0.7-0.1-1-0.1l-3-0.3c-0.7-0.1-1.3-0.2-1.9-0.3c-1.9-0.3-3.6-0.7-5.4-1.2c-2.2-0.5-4.3-1.2-6.3-2.1
		l-1.2-0.5c-0.3-0.1-0.5-0.2-0.8-0.3c-0.3-0.1-0.4-0.2-0.7-0.3c-0.3-0.1-0.5-0.3-0.8-0.4c-0.3-0.1-0.5-0.3-0.7-0.4
		c-1.6-0.8-3.3-1.9-4.8-3c-1.3-0.9-2.4-2-3.5-3.1c-0.1-0.1-0.1-0.2-0.2-0.3l-1.9-2c-3.3-3.2-9.2-8.6-14.7-6.9c-1,0.3-2.1,1-2.7,1.8
		c-0.1,0.1-0.2,0.2-0.3,0.3L30.5,81c-0.9,1.7-1.1,2.9-1.3,4.8v0v0.4c0,0.2,0,0.4,0.1,0.6c0.1,2.4,0.8,4.9,1.8,7
		c0.4,0.9,0.9,1.7,1.4,2.5c0.7,1.1,1.5,2.2,2.4,3.2l2.8,2.7c0.5,0.5,1,0.8,1.6,1.2c0.5,0.3,0.8,0.6,1.2,0.9c1.8,1.2,3.6,2.4,5.5,3.3
		c1.8,0.9,2.8,1.3,4.6,2.1l1.6,0.6c0.6,0.2,1.1,0.4,1.7,0.5c0.8,0.2,1.7,0.6,2.6,0.7l3.6,0.8c0.3,0.1,0.6,0.1,1,0.2
		c1.1,0.1,2.8,0.4,4,0.5l2,0.1c1.2,0.2,5.4,0,6.5,0l2-0.2c1.7-0.2,3.3-0.4,4.9-0.7c2.2-0.4,4.2-0.9,6.3-1.5l1.2-0.4
		c0.2-0.1,0.3-0.1,0.4-0.1c1.1-0.4,2.2-0.8,3.2-1.2c0.5-0.2,1-0.4,1.6-0.7c1.5-0.7,3-1.5,4.4-2.3c1.8-1,3.7-2.2,5.3-3.6
		c0.4-0.4,0.8-0.7,1.2-1c0.1-0.1,0.2-0.1,0.3-0.2c0.1-0.1,0.2-0.2,0.3-0.3c0.7-0.5,2.2-2.1,2.8-2.8c0.1-0.1,0.1-0.2,0.2-0.3
		c1.1-1.3,1.7-2,2.7-3.4c0.2-0.2,0.3-0.4,0.5-0.7l1.3-2.1c0.3-0.5,0.5-1,0.8-1.4c0.5-1,0.9-2,1.4-3c0.4-1,0.9-2.2,1.1-3.3
		c0.3-1.2,0.6-2.4,0.8-3.6c0.2-1.3,0.4-2.7,0.4-4.1c0-0.7,0.1-1.4,0.1-2.2c-0.1-1.4-0.1-2.8-0.3-4.1c-0.1-0.7-0.1-1.3-0.3-1.9
		l-15.4-2c-2.3-0.3-4.6-0.5-6.9-0.9l-5.2-0.7c-1.1-0.1-2.3-0.3-3.4-0.5c-1.2-0.1-2.3-0.3-3.5-0.4c-2.3-0.3-4.6-0.6-6.9-0.9
		c-3.5-0.5-6.9-0.8-10.3-1.3c-0.6-0.1-1.1-0.1-1.7-0.2c-0.5-0.1-1.2-0.2-1.8-0.2c0,0.8,0.1,1.7,0.1,2.4v1.9
		C61.3,66,61.3,66.1,61.3,66.4z M169.2,81.7c0.2-0.3,0.1-1.1,0.1-1.5l1.1-37.1c0-0.8,0.3-12.4,0.4-12.8c1.1-0.2,2.5-0.3,3.7-0.3
		l-1.6,51.6c0.3-0.1,0.6-0.1,1-0.1c0.4,0,0.7-0.1,1-0.1c0.8,0,1.3-0.1,2.1-0.1l1.6-51.1c1.2,0.1,2.6,0.5,3.6,0.8l-1.6,50.2
		c1,0,1.9-0.1,3-0.1c0.8,0,0.6-0.1,0.7-0.9c0.1-0.7,0-1.6,0-2.3c0-0.3,0.1-0.4,0.1-0.7c0-0.5,0-1.1,0-1.6c0.1-1.2,0.2-4.8,0.2-6
		c0-1,0.1-2,0.1-3l0.1-1.5c0-0.6,0.1-1,0.1-1.5c0-2,0.1-3.9,0.1-6c0-0.5,0.1-0.9,0.1-1.5l0.1-1.5c0-2.1,0.1-4,0.1-6.1l0.1-3
		c0.1-0.4,0-1.1,0-1.5l0.1-1.5c0-1,0.1-2,0.1-3c0-0.6,0.1-0.9,0.1-1.5l0.1-5.2c0-0.7-0.1-0.7,1.3-0.1c1.6,0.7,2.7,1.3,4,2.2
		c2.2,1.7,3.9,3.8,5.3,6.2c0.7,1.2,1.8,3.4,2.2,4.8c0.4,1.4,0.9,2.7,1.2,4.2c0.5,2.4,0.9,4.9,1.1,7.4c0,0.5,0,1,0.1,1.4
		c0.1,0.5,0.1,1,0.1,1.5c0,0.3,0,0.4,0.1,0.7c0,0.3,0,0.5,0,0.8c0,1.4-0.2,4.3-0.3,5.8c-0.3,2.6-0.7,4.9-1.2,7.3
		c-0.1,0.3-0.1,0.4-0.2,0.6c-0.2,0.8-0.4,1.7-0.7,2.4c-0.3,1-0.6,2-0.9,2.9c-0.5,1.3-1,2.6-1.6,3.8c-1,2.1-2.2,3.9-3.6,5.6
		c-0.1,0.2-0.2,0.3-0.4,0.4c-0.5,0.7-1.9,1.9-2.6,2.8l-0.4,0.4c-0.1,0.1-0.1,0.1-0.2,0.2c-0.1,0.1-0.1,0.1-0.2,0.2l-0.7,0.9
		c-0.2,0.3-0.5,0.6-0.7,0.9c-0.4,0.6-0.9,1.2-1.2,1.8c-0.4,0.7-0.8,1.3-1.1,2c-0.6,1.1-1,2.1-1.3,3.3c-0.7,2.4-0.6,5.4,1.2,7.3
		l0.4,0.4c0.2,0.2,0.2,0.3,0.4,0.4c1.5,1.1,2.7,1.4,4.5,1.7c0.3,0.1,1.1,0.1,1.4,0.1l1.4-0.1c1-0.1,2.2-0.3,3.1-0.7l3.8-1.6
		c1.3-0.8,2.5-1.7,3.7-2.7l0.7-0.7c2.7-2.6,4.7-5.7,6.4-9c1.3-2.6,2.4-5.5,3.2-8.3c0.1-0.3,0.1-0.4,0.1-0.7c0.5-1.5,1.4-6.2,1.4-7.8
		c0-0.9,0.1-1.9,0.2-2.9c0.1-1,0-5.1-0.1-6.1c-0.1-1.9-0.3-3.8-0.6-5.5l-1-5.1c-0.5-2.5-2.5-7.9-3.6-10.3c-0.2-0.4-0.3-0.7-0.5-1.1
		c-0.5-1-1-2-1.6-3c-0.2-0.3-0.4-0.7-0.6-1c-1.2-2.3-2.9-4.4-4.5-6.4c-0.5-0.6-1-1.1-1.4-1.6c-0.7-0.9-1.5-1.6-2.3-2.4l-1.6-1.5
		c-1.1-1-2.3-1.8-3.5-2.7c-1-0.7-2.2-1.5-3.3-2l-1-0.5c-0.5-0.3-1-0.5-1.6-0.7c-2.2-1-4.6-1.7-7.1-2.2c-0.9-0.2-1.7-0.3-2.6-0.4
		c-0.7-0.1-1.4-0.2-2.1-0.2c-0.4,0-0.5,0-0.7-0.1h-2.3c-0.8,0-1.6,0.1-2.3,0.1c-1.6,0.1-3.1,0.5-4.7,0.7c-0.4,0.1-0.3,0-0.4,0.4
		c0,0.3-0.1,0.4-0.1,0.7c0,0.2,0,0.6,0,0.8c-0.1,0.5,0,1-0.1,1.5l-0.1,3c0,0.3-0.1,0.4-0.1,0.7c0,0.3,0,0.5,0,0.8
		c0,0.3-0.1,0.3-0.1,0.7l-0.1,1.4c0,1.3-0.1,2.5-0.1,3.8c0,0.3,0,0.4-0.1,0.7c0,0.3,0,0.5,0,0.8c0,0.3-0.1,0.4-0.1,0.7l-0.1,2.3
		c0,1.2-0.1,2.5-0.2,3.7l-0.1,2.3c0,0.6-0.1,0.9-0.1,1.5c0,1.8-0.2,4.1-0.2,6c0,1.8-0.2,4.1-0.2,6c0,1.8-0.2,4.2-0.2,6
		c0,2-0.2,4-0.2,5.9l-0.1,1.5c0,0.3,0,0.5,0,0.7c0,0.3-0.1,0.4-0.1,0.7c0,0.3,0,0.5,0,0.8c0,0.3-0.1,0.4-0.1,0.7
		c0,0.6-0.1,1-0.1,1.5c0.8,0,1.6-0.1,2.4-0.2L169.2,81.7z M30.3,46.6c1-0.2,2-0.4,3-0.6l10.7-1.7c1.2-0.2,2.9-0.4,4-0.4
		c0.2,0,0.6,0,0.9-0.1l4.1-0.3c0.3,0,0.6,0,0.9,0c2.2-0.1,4.6-0.1,6.8,0.1l1.9,0.1c2.4,0.3,4.7,0.6,7.1,1.2c1.8,0.4,3.7,1,5.4,1.8
		l1,0.5c0.1,0.1,0.2,0.1,0.3,0.2c0.7,0.3,1.4,0.7,2,1.1l4.4,2.7c3.1,2.1,6.2,4.1,9.5,6c2.6,1.5,5.6,3,8.6,3.8
		c2.2,0.5,4.8,0.7,6.9-0.1c0.9-0.3,1.8-0.9,2.5-1.4c0.4-0.3,0.7-0.6,1-1c0.7-0.9,1.1-1.4,1.4-2.5c0.7-2,0.2-4.3-0.6-6.1
		c-0.7-1.5-1.5-2.9-2.4-4.3l-1.4-1.9c-0.6-0.8-1.4-1.7-2.1-2.4l-3.7-3.5c-1-1-2.2-1.9-3.3-2.7c-0.1-0.1-0.2-0.1-0.3-0.2
		c-2.2-1.5-3.4-2.4-5.8-3.6l-1.5-0.8c-3.1-1.5-8.5-3.3-11.7-3.8c-2-0.3-3.8-0.6-5.9-0.8c-2-0.1-3-0.2-5.2-0.2c-3.6,0-6.7,0.4-10,1
		c-1,0.2-2,0.5-3,0.7c-2,0.5-3.8,1.1-5.6,1.8c-0.2,0.1-0.4,0.1-0.7,0.3L45,31.7c-0.8,0.4-1.6,0.9-2.3,1.4c-2.4,1.5-5,3.6-6.9,5.6
		L35.6,39c-0.1,0.2-0.3,0.3-0.5,0.5c-0.1,0.1-0.1,0.1-0.2,0.3l-0.6,0.7c-1,1.2-1.4,1.8-2.4,3.2c-0.5,0.7-0.9,1.6-1.4,2.3
		C30.5,46.1,30.3,46.3,30.3,46.6z M128,70c0,1.3-0.1,2.7,0.1,4c0,0.2,0,0.3,0,0.5c0,0.2,0,0.7,0.1,0.9c0,0.3,0.1,0.7,0.1,1
		c0.1,1.8,0.4,3.7,0.8,5.4c0.3,1.4,0.6,2.8,1,4.2l0.5,1.6c0.2,0.5,0.3,1,0.5,1.6c0.8,2.1,1.4,3.7,2.5,5.8c1.6,3.3,3.5,6,5.8,8.8
		l0.9,1.1c0.2,0.2,0.3,0.3,0.5,0.5c0.6,0.7,2.1,2.2,2.9,2.8c0.1,0.1,0.1,0.1,0.3,0.2c0.2,0.2,0.4,0.3,0.6,0.5
		c0.7,0.7,1.6,1.2,2.4,1.8l1.9,1.2c0.7,0.4,1.3,0.7,2,1.1c0.3,0.1,1.2,0.7,1.5,0.7c-0.3-1.2-0.7-2.4-1-3.5l-1.8-7.3
		c-0.1-0.3-0.1-0.6-0.2-0.9l-1.2-5.6c-0.1-0.3-0.1-0.6-0.2-1c-0.1-0.4-0.1-0.6-0.1-1c-0.1-0.3-0.1-0.7-0.2-1l-0.3-2
		c-0.1-0.7-0.2-1.3-0.2-2c-0.1-0.7-0.1-1.4-0.2-2.1c0-0.2,0-0.4,0-0.6c-0.4-4-0.1-11.1,0.9-14.7c0.2-0.9,0.4-1.8,0.7-2.7
		c0.3-0.8,0.6-1.7,1-2.5c0.4-0.8,0.8-1.6,1.1-2.3l0.6-1.1c0.6-1.1,1.2-2.2,1.8-3.3l4.5-8.4c0.1-0.2,0.2-0.4,0.3-0.6
		c0.5-1.2,1-2.4,1.5-3.7c0.1-0.2,0.1-0.4,0.2-0.6c0.1-0.2,0.1-0.4,0.2-0.7c0.3-0.8,0.5-1.8,0.7-2.7c0.1-0.5,0.2-1,0.3-1.5
		c0.6-4.2-0.8-8-4.4-10.2c-1.9-1.2-4-1.1-6.2-0.5c-1.2,0.3-2.4,1-3.4,1.7c-1.1,0.7-1.9,1.4-2.8,2.1l-1.2,1c-0.3,0.3-2,2-2.4,2.4
		l-1.8,2.2c-0.3,0.4-0.6,0.7-0.9,1.1c-0.2,0.2-0.3,0.3-0.4,0.5c-0.1,0.2-0.3,0.4-0.4,0.6c-1.9,2.7-2.9,4.3-4.5,7.5
		c-1.8,4-2.9,8-3.6,12.4c-0.1,0.5-0.1,1.1-0.2,1.8c-0.1,0.6-0.1,1.2-0.2,1.8L128,70z"/>
</g>
</svg>
