<?xml version="1.0" encoding="utf-8"?>
<!-- Generator: Adobe Illustrator 22.0.1, SVG Export Plug-In . SVG Version: 6.00 Build 0)  -->
<svg version="1.1" id="Слой_1" xmlns="http://www.w3.org/2000/svg" xmlns:xlink="http://www.w3.org/1999/xlink" x="0px" y="0px"
	 viewBox="0 0 258.3 257.9" style="enable-background:new 0 0 258.3 257.9;" xml:space="preserve">
<style type="text/css">
	.st0{fill:url(#SVGID_1_);}
	.st1{fill:#FFFFFF;}
	.st2{display:none;fill:#F32111;}
	.st3{fill:#0012B8;fill-opacity:0.1412;}
</style>
<g id="Слой_x0020_1">
	
		<radialGradient id="SVGID_1_" cx="10273.8457" cy="-10914.1533" r="5655.48" gradientTransform="matrix(3.149585e-02 0 0 -3.149585e-02 -208.8683 -259.2103)" gradientUnits="userSpaceOnUse">
		<stop  offset="0" style="stop-color:#5BADF0"/>
		<stop  offset="1" style="stop-color:#0062BD"/>
	</radialGradient>
	<path class="st0" d="M129.6,4.9C198.3,4.9,254,60.6,254,129.3s-55.7,124.4-124.4,124.4S5.3,198,5.3,129.3S61,4.9,129.6,4.9z"/>
	<g id="_941506384">
		<path class="st1" d="M65.4,66.6c1.3-0.1,2.6-0.1,3.8,0c0.9,0.1,1.8,0.5,2.5,1c5.1,3.3,11,5.3,17,6.3c6.7,1.1,13.5,1.1,20.4,1.3
			c28.3,0.7,56.6,0.9,84.8,1.3c-0.4,0.7-0.7,1.4-1.1,2c-2-0.1-4.1,0-6.2,0c-36.3,0-72.5,0-108.8,0c-0.7,0-1.4,0-1.9-0.4
			c-0.4-0.3-0.7-0.7-1-1.1c-2.8-3-5.7-6-8.4-9.2C66.1,67.6,65.7,67.1,65.4,66.6z"/>
		<path class="st1" d="M80.1,91.1c5,0,9.9,0,14.9,0c29.3,0,58.6,0,87.8,0c0.9,0,1.9-0.1,2.9,0.1c-0.4,0.7-0.8,1.4-1.1,2.1
			c-2.8-0.1-5.6,0-8.4,0c-30.7,0.1-61.3,0.1-92,0c-1,0-2,0-2.9,0C80.9,92.6,80.5,91.9,80.1,91.1z"/>
		<path class="st1" d="M86.7,103c0.9-0.1,1.7-0.1,2.6-0.1c14.1,0,28.1,0,42.2,0c16,0,32,0,48,0.1c-0.4,0.7-0.8,1.4-1.2,2.2
			c-24.5,0.2-48.9,0-73.4,0.1c-4.8,0-9.5,0.1-14.3,0c-0.9,0-1.7-0.1-2.6,0.1C87.5,104.5,87.1,103.7,86.7,103z"/>
		<path class="st1" d="M92.1,112.9c27.3,0,54.5,0,81.8,0c-0.4,0.7-0.7,1.4-1.1,2.1c-25.5,0.2-51.1,0.2-76.6,0.2
			c-0.9,0-1.8,0-2.7,0.1C93,114.5,92.6,113.7,92.1,112.9z"/>
		<path class="st1" d="M96.7,121.2c24.2,0,48.4,0,72.6,0c-0.4,0.7-0.8,1.5-1.2,2.2c-0.9-0.1-1.8-0.1-2.7,0
			c-20.7,0.3-41.4,0-62.2,0.1c-1.8,0-3.5,0.1-5.3-0.1C97.6,122.7,97.1,122,96.7,121.2z"/>
		<path class="st1" d="M102.8,128.7c20.8,0.1,41.6-0.2,62.3,0.1c-0.4,0.7-0.7,1.4-1.1,2.1c-15.9,0-31.8,0-47.7,0
			c-4.4,0-8.7,0-13.1-0.1c-0.4,0-0.8,0-1.2,0.1c-0.4-0.7-0.8-1.4-1.2-2.2C101.5,128.7,102.1,128.7,102.8,128.7z"/>
		<path class="st1" d="M104.4,135.2c2.4,0,4.8,0,7.3,0c16.6,0,33.3,0,49.9,0c-0.3,0.7-0.7,1.3-1.1,2c-18.3,0-36.7,0-55,0
			C105.2,136.5,104.8,135.9,104.4,135.2z"/>
		<path class="st1" d="M110.6,141.2c15.9-0.1,31.8-0.1,47.7,0.1c-0.4,0.7-0.8,1.4-1.2,2.1c-16,0-32.1,0-48.2,0
			c-0.4-0.7-0.8-1.4-1.2-2.1C108.7,141.1,109.7,141.2,110.6,141.2z"/>
		<path class="st1" d="M110.7,146.6c1.2-0.1,2.3-0.1,3.5-0.1c12.9,0,25.8,0,38.7,0c0.8,0,1.6,0,2.4,0.1c-0.4,0.8-0.8,1.5-1.2,2.3
			c-1.7-0.1-3.3-0.1-5-0.1c-9.6,0-19.1,0-28.6,0c-2.8,0-5.7,0-8.5,0.1C111.5,148.1,111.1,147.3,110.7,146.6z"/>
		<path class="st1" d="M113.3,151.3c1.2,0.1,2.4,0,3.5,0c12,0.1,23.9-0.1,35.9,0.1c-0.4,0.8-0.9,1.5-1.2,2.3c-8.5,0-17,0-25.4,0
			c-3.8,0-7.6,0.1-11.4,0C114.2,152.9,113.7,152.1,113.3,151.3z"/>
		<path class="st1" d="M116,156.1c3-0.1,6.1-0.1,9.1-0.1c7.3,0,14.7,0,22,0c1,0,2,0,3,0.1c-0.4,0.7-0.8,1.4-1.2,2.1
			c-10.6,0-21.2,0.1-31.8,0C116.7,157.5,116.3,156.8,116,156.1z"/>
		<path class="st1" d="M118.2,160.3c9.8-0.1,19.7,0,29.6-0.1c-0.4,0.7-0.8,1.4-1.2,2.2c-9.1,0-18.2,0.1-27.2-0.1
			C119,161.6,118.6,161,118.2,160.3z"/>
		<path class="st1" d="M120.4,164.2c6.3,0,12.6-0.1,18.8,0c2.2,0,4.3,0.1,6.4,0c-0.5,0.8-0.9,1.5-1.3,2.3c-6.8-0.1-13.6,0-20.4-0.1
			c-0.8,0-1.6-0.1-2.4,0C121.2,165.7,120.8,165,120.4,164.2z"/>
		<path class="st1" d="M122.4,167.9c3.5-0.1,7,0,10.5,0c3.5,0,7.1-0.1,10.7,0c-0.4,0.7-0.8,1.5-1.2,2.3c-1.4-0.1-2.8,0-4.2,0
			c-4.8,0-9.6,0-14.5,0C123.2,169.4,122.8,168.6,122.4,167.9z"/>
		<path class="st1" d="M124.4,171.5c0.9-0.1,1.8-0.1,2.7-0.1c3.9,0,7.9,0,11.8,0c0.9,0,1.8,0,2.7,0.1c-0.4,0.7-0.8,1.4-1.2,2.1
			c-4,0.1-8,0.1-12,0.1c-1,0-1.9,0-2.9-0.1C125.2,172.9,124.8,172.2,124.4,171.5z"/>
		<path class="st1" d="M126.2,174.7c1.6,0.1,3.3,0,4.9,0c2.9,0,5.8,0,8.8,0c-0.4,0.7-0.8,1.5-1.2,2.2c-3.7-0.1-7.5-0.1-11.2,0
			C127,176.2,126.6,175.4,126.2,174.7z"/>
		<path class="st1" d="M127.9,177.7h10.3c-0.4,0.7-0.8,1.5-1.2,2.2h-7.9C128.6,179.2,128.3,178.5,127.9,177.7z"/>
	</g>
	<g id="_2.svg">
		<g id="PathID_1">
			<g>
				<path class="st1" d="M68.3,191.6L80.8,179l5.2,4.2c1,0.9,1.8,1.7,2.2,2.5c0.4,0.8,0.5,1.6,0.4,2.4c-0.2,0.9-0.5,1.5-1.1,2.1
					c-0.5,0.5-1.2,0.9-2,1.1c-0.8,0.2-1.6,0.2-2.6-0.1c0.6,0.9,0.9,1.8,0.8,2.7c-0.1,0.9-0.5,1.7-1.2,2.5c-0.6,0.6-1.3,1-2.1,1.3
					c-0.8,0.3-1.5,0.4-2.2,0.3c-0.7-0.1-1.4-0.3-2.1-0.6c-0.8-0.4-1.6-0.9-2.5-1.6L68.3,191.6L68.3,191.6z M77.4,185.8l3,2.4
					c0.8,0.7,1.4,1.1,1.9,1.3c0.6,0.3,1.2,0.3,1.7,0.2c0.5-0.1,1-0.4,1.5-0.8c0.4-0.4,0.7-0.9,0.7-1.4c0.1-0.5,0-1-0.3-1.4
					c-0.3-0.5-0.9-1.1-1.9-1.9l-2.8-2.2L77.4,185.8L77.4,185.8z M71.6,191.6l3.5,2.8c0.6,0.5,1,0.8,1.3,1c0.5,0.3,1,0.5,1.4,0.5
					c0.5,0.1,0.9,0,1.4-0.1c0.5-0.2,0.9-0.5,1.3-0.9c0.5-0.5,0.7-1,0.8-1.6c0.1-0.6-0.1-1.1-0.4-1.6c-0.3-0.5-0.9-1.1-1.8-1.9
					l-3.2-2.6L71.6,191.6z"/>
			</g>
		</g>
		<g id="PathID_2">
		</g>
		<g id="PathID_3">
			<polygon class="st1" points="88.3,206 95.9,190.5 98.2,191.4 95.1,197.7 104,201.3 107,195 109.3,195.9 101.7,211.4 99.5,210.5 
				103.1,203.1 94.2,199.6 90.6,206.9 			"/>
		</g>
		<g id="PathID_4">
		</g>
		<g id="PathID_5">
			<polygon class="st1" points="115.7,197.8 117.9,198 116.4,211.4 127.8,198.9 130.3,199.1 128.4,216 126.1,215.8 127.6,202.5 
				116.2,214.9 113.8,214.7 			"/>
		</g>
		<g id="PathID_6">
		</g>
		<g id="PathID_7">
			<polygon class="st1" points="136.9,198.9 139.1,198.5 142.3,211.6 148.8,196.6 151.3,196.1 155.2,212.7 153,213.1 149.9,200 
				143.3,215 140.9,215.5 			"/>
		</g>
		<g id="PathID_8">
		</g>
		<g id="PathID_9">
			<g>
				<path class="st1" d="M166.5,208.6l-9.4-14.7l6.1-3.2c1.1-0.6,1.9-0.9,2.6-1.1c0.9-0.3,1.7-0.4,2.4-0.3c0.8,0,1.5,0.3,2.2,0.7
					c0.7,0.4,1.3,1,1.8,1.7c0.8,1.2,1,2.6,0.7,3.9c-0.3,1.3-1.6,2.6-3.9,3.8l-4.1,2.2l3.8,6L166.5,208.6L166.5,208.6z M163.7,199.8
					l4.2-2.2c1.4-0.7,2.2-1.5,2.5-2.2s0.2-1.6-0.4-2.4c-0.4-0.6-0.9-1-1.6-1.3c-0.6-0.3-1.2-0.3-1.9-0.1c-0.4,0.1-1.1,0.4-2.1,0.9
					l-4.1,2.2L163.7,199.8z"/>
			</g>
		</g>
		<g id="PathID_10">
		</g>
		<g id="PathID_11">
			<g>
				<path class="st1" d="M185.9,197.1l-8.8-16.3l1.8-1.8l18.9,6.4l-1.9,1.9l-5.6-2l-5.4,5.2l2.8,4.8L185.9,197.1L185.9,197.1z
					 M184,188.8l4.3-4.2l-5.1-1.9c-1.6-0.6-2.8-1.1-3.8-1.5c0.7,0.9,1.4,1.9,2,2.9L184,188.8z"/>
			</g>
		</g>
		<g id="PathID_12">
		</g>
	</g>
	<path class="st2" d="M14.8,130.6c0-3.6,0.1-7.4,0.4-10.9c0.1-0.6,0.1-1,0.1-1.7l1.3-9.3c0.7-3.9,1.6-7.7,2.7-11.5
		c0.8-2.8,1.6-5.4,2.6-8l3.1-7.5c0.9-2,1.8-3.9,2.9-5.8c0.2-0.4,0.4-0.7,0.6-1.2c1.2-2.3,2.5-4.5,3.9-6.7c1.9-2.9,3.8-5.6,5.8-8.3
		l6.1-7.3c0,0,0,0,0.1-0.1l10.2-10c1.6-1.3,3.2-2.7,4.9-4l5.1-3.7c2.7-2,5.8-3.7,8.7-5.4c1.9-1.1,3.9-2.1,5.9-3.1l2.4-1.2
		c1.6-0.8,3.3-1.4,4.9-2.1c0.4-0.2,0.8-0.3,1.2-0.5c0.5-0.2,0.8-0.3,1.3-0.5c6.4-2.4,12.6-4.1,19.4-5.4c2.1-0.4,4.1-0.6,6.2-1
		c2-0.3,4.5-0.6,6.5-0.6c2.2-0.1,4.3-0.3,6.8-0.3h4.9c1.5,0,3.5,0.3,5,0.3l4.9,0.4c0.5,0,1.2,0.1,1.6,0.2c2,0.3,4.1,0.5,6.1,0.9
		c4.8,0.9,9.5,2,14.1,3.5c4.8,1.6,9.6,3.4,14,5.5c4.3,2.1,8.5,4.4,12.6,6.9l4.3,2.9c2.4,1.7,4.7,3.5,7,5.3l1.4,1.2
		c0.2,0.2,0.3,0.2,0.5,0.4l5.6,5.1c0,0,0.2,0.2,0.2,0.2l3.3,3.3c1,1,1.9,2.2,2.9,3.2c0.2,0.2,0.2,0.3,0.4,0.5c0.3,0.3,0.5,0.6,0.8,1
		c3.1,3.7,5.9,7.6,8.6,11.7l3.1,5c1,1.8,2.2,3.8,3.1,5.7c0.2,0.5,0.4,0.8,0.6,1.2c1.2,2.4,2.3,4.9,3.3,7.4c1.3,3.5,2.6,6.9,3.6,10.5
		l1.5,5.6c0.5,1.9,0.9,3.8,1.2,5.8l1.3,9.3c0.1,0.5,0.1,1.1,0.1,1.6c0.2,2.7,0.4,5.8,0.4,8.5l-0.6,13.2c-0.7,7-2.1,14-4.1,20.7
		c-0.3,0.9-0.5,1.8-0.8,2.7c-1.5,4.3-2.9,8.6-5,12.8c-0.4,0.9-0.7,1.6-1.1,2.4c-2.7,5.4-5.7,10.6-9.2,15.6c-1.6,2.4-3.4,4.8-5.3,7
		l-12.6,13.1c-0.2,0.2-0.3,0.2-0.5,0.4l-2.9,2.5c-1.6,1.4-3.3,2.6-5,3.9l-2.1,1.5c-5.8,3.9-11.7,7.5-18.1,10.3l-10.1,4.1
		c-3.5,1.2-7.2,2.3-11,3.2c-2.9,0.7-5.8,1.2-8.8,1.8l-6.3,0.8c-6.3,0.7-14.8,0.8-21.1,0.1c-2.7-0.3-5.2-0.5-8-0.9
		c-1.1-0.2-2-0.3-3-0.5c-5.3-0.9-11.9-2.6-16.9-4.4c-0.9-0.3-1.7-0.6-2.6-0.9c-0.9-0.4-1.7-0.7-2.6-1c-2.5-1-4.9-2-7.4-3.3l-4.6-2.4
		c-2.3-1.2-4.6-2.6-6.8-4c-3.6-2.4-8.1-5.3-11.3-8.2c-0.3-0.3-0.7-0.6-1-0.9l-3.8-3.3c-0.2-0.2-0.3-0.3-0.4-0.4l-0.5-0.4
		c-0.3-0.3-0.6-0.5-0.9-0.9l-6.1-6.3c-0.2-0.1-0.3-0.2-0.4-0.4l-0.9-1c-4.3-5-8.2-10.2-11.6-15.9c-0.5-0.8-0.9-1.5-1.4-2.3l-1.9-3.4
		c-1-1.7-2.1-4.2-2.9-6c-4-8.6-6.7-17.6-8.5-27C15.5,144,14.8,136.7,14.8,130.6z M10.6,133.2v-5.8c0-1.3,0.1-2.4,0.1-3.6
		c0-1.3,0.3-5.2,0.5-6.8l0.6-4.9c0.3-1.6,0.4-3.2,0.8-4.6c0.2-1,0.4-2,0.6-3c0.8-4,1.8-7.8,3.1-11.6l5.1-13.1c0.7-1.7,1.5-3.4,2.4-5
		l6.8-11.5l5.4-7.4c0.3-0.4,0.5-0.7,0.8-1l1.6-2c0.6-0.7,1.1-1.3,1.7-2l11-11c6.2-5.2,9.8-8.1,16.8-12.4c8.4-5.2,18.4-9.6,27.9-12.4
		l5.7-1.5c2-0.5,4-0.9,6-1.3c2-0.4,10.4-1.7,12.9-1.7c1.1,0,2.3-0.2,3.4-0.2c1.2,0,2.2-0.1,3.5-0.1h4.4c1.3,0,2.4,0.1,3.6,0.1
		c1.4,0,5.2,0.3,6.8,0.5c6.3,0.7,12.4,1.8,18.5,3.4c3.7,1,7.4,2.3,11,3.6l5.1,2.1c0.9,0.4,1.6,0.7,2.5,1.1c2.7,1.1,7.4,3.6,9.7,5
		l4.6,2.8c0.8,0.5,1.4,0.9,2.2,1.4l2.2,1.5c1.5,1,2.8,2,4.2,3.1l4,3.2l9.6,9c0,0,0,0,0,0.1l1.5,1.6c1,1.2,2.2,2.3,3.2,3.5l2.9,3.5
		c1.6,2.1,3.2,4.1,4.6,6.3l2.2,3.3c2.4,3.8,4.5,7.7,6.5,11.7l1.2,2.4c1.1,2.6,2.3,5.1,3.2,7.7c1.3,3.6,2.6,7.3,3.6,11
		c0.2,1,0.5,2,0.7,2.9c0.3,1,0.5,2,0.7,3.1c0.2,0.9,0.4,2,0.6,3c0.5,2.6,0.9,5.3,1.2,8c0.1,0.5,0.1,1,0.2,1.6
		c0.2,1.6,0.5,5.4,0.5,6.7c0,1.2,0.1,2.2,0.1,3.5v4.5c0,3.5-0.3,6.9-0.6,10.4l-0.4,3.2c-0.2,2.2-0.6,4.2-1,6.3c-0.6,3-1.2,6-2,8.9
		c-2.1,7.3-4.6,14.5-8,21.3c-2.7,5.4-5.4,9.9-8.8,15l-3.1,4.3c-1.8,2.4-3.8,4.7-5.7,7c-1.1,1.3-2.4,2.5-3.5,3.8
		c-0.8,1-2.2,2.4-3.2,3.3c0,0,0,0-0.1,0.1l-0.4,0.3c-1.2,1.1-2.3,2.2-3.5,3.2l-6.3,5.2c-3.5,2.9-8.1,5.7-12,8.1
		c-3.7,2.2-7.5,4.1-11.4,5.9c-4.1,1.9-8.4,3.4-12.6,4.8c-8.2,2.7-17.1,4.5-25.8,5.2l-12.5,0.4c-1.3,0-2.4-0.1-3.6-0.1
		c-1.1,0-2.3-0.2-3.4-0.2c-1.8,0-6.6-0.6-8.4-0.9c-0.6-0.1-1.1-0.2-1.6-0.3l-6.1-1.1c-7-1.4-15.6-4.1-22.2-7.1
		c-0.4-0.2-0.8-0.4-1.2-0.5l-3.8-1.8c-2.2-1.1-4.4-2.3-6.6-3.5c-0.2-0.1-0.3-0.1-0.6-0.3c-3.8-2.3-7.5-4.7-11.1-7.3l-5.1-4
		c-0.3-0.3-0.7-0.5-1-0.8l-2-1.7c-1.4-1.2-2.7-2.6-4-3.7c0,0-0.1,0-0.1-0.1l-13.4-15.3c-1.6-2.1-3-4.3-4.5-6.5
		c-0.5-0.8-0.9-1.5-1.4-2.3l-7.5-14.5c-1.1-2.6-2.2-5.2-3.1-7.9c-1.2-3.6-2.4-7.3-3.3-11.3c-0.3-1-0.5-2-0.7-3.1
		c-0.7-3.1-1.2-6.3-1.6-9.4C11.2,141.8,10.8,136.3,10.6,133.2z"/>
	<path class="st1" d="M24.6,131.4v-4.3c0-1.2,0.1-2,0.1-3.1l0.2-3c0.2-2,0.3-3.8,0.6-5.8c0.1-1,0.3-1.8,0.4-2.8
		c0.4-2.7,1-5.4,1.6-8.1c0.5-1.8,0.9-3.3,1.4-5c0.5-1.7,1-3.3,1.6-4.9c1.5-4.6,3.6-9.1,5.8-13.5c0.2-0.4,0.3-0.7,0.6-1
		c0.2-0.3,0.3-0.7,0.5-1c2.3-4,4.7-8,7.5-11.8l2.8-3.6c1.2-1.5,2.6-2.9,3.7-4.4c0.7-1,2-2,2.8-3l7.4-6.9l5.8-4.6
		c3.4-2.6,7.1-4.8,10.8-7c2.4-1.4,5-2.6,7.5-3.8c2.7-1.4,6.3-2.8,9.2-3.7c0.9-0.3,1.6-0.6,2.4-0.8c0.8-0.3,1.6-0.5,2.4-0.8
		c4.3-1.4,11.4-2.8,16-3.4c6-0.8,10.3-0.9,16.4-0.9c1.2,0,2,0.1,3.1,0.1c1.5,0,7.3,0.6,8.8,0.8c1,0.1,1.8,0.2,2.8,0.4
		c4.1,0.6,9.2,1.7,13.1,3c0.9,0.3,1.6,0.5,2.4,0.8c5.5,1.8,10.8,4.1,15.9,6.6l7.1,4.1c3.1,1.9,6.6,4.3,9.5,6.6
		c1.4,1.2,3.1,2.3,4.4,3.7l1.7,1.5c0.6,0.5,1,1.1,1.7,1.6c0,0,0.1,0,0.1,0.1l0.3,0.2c0,0,0,0,0.1,0l2.8,2.9c0.5,0.6,1.1,1,1.6,1.6
		l0.9,1c0,0,0,0,0.1,0.1l3.5,4.1c1.9,2.4,3.7,4.9,5.5,7.4c1.7,2.6,3.3,5.2,4.9,8c3.6,6.4,6.3,13.3,8.5,20.4c0.8,2.5,1.4,5.1,2,7.7
		c1,4.7,1.6,9.2,2,14c0.3,3.4,0.3,7.1,0.3,10.7c0,1.2-0.1,2-0.1,3.1c0,0.7-0.1,0.9-0.1,1.5c-0.1,3.9-0.9,8.9-1.6,12.8
		c-0.1,0.9-0.4,1.8-0.5,2.6c-0.7,3.4-1.7,6.8-2.7,10.1c-1.8,5.7-4,10.6-6.6,15.9c-0.2,0.4-0.3,0.7-0.6,1l-3.5,6.1
		c-0.2,0.3-0.4,0.7-0.6,1c-1.2,2.1-3.7,5.6-5.3,7.6c-0.5,0.6-0.9,1.2-1.4,1.8c-0.5,0.6-1,1.2-1.5,1.8c-1.4,1.8-3,3.4-4.6,5
		c-0.1,0.1-0.1,0.1-0.1,0.2l-0.1,0.1c0,0-0.1,0-0.1,0.1l-0.2,0.2c0,0,0,0.1-0.1,0.1c-1.1,1.2-2.4,2.3-3.5,3.4l-3.4,3
		c-0.2,0.2-0.2,0.2-0.4,0.3c-1.8,1.6-3.8,3.1-5.8,4.6c-0.6,0.5-1.2,0.9-1.9,1.4c-1.2,0.9-2.5,1.8-3.8,2.6c-1.4,0.8-2.6,1.8-4,2.5
		l-3.1,1.7c-2.1,1.1-4.3,2.2-6.5,3.2c-0.4,0.2-0.8,0.3-1.1,0.5c-3.8,1.7-7.8,3.2-11.8,4.3c-0.8,0.2-1.6,0.5-2.5,0.7L152,232
		c-0.5,0.1-0.8,0.2-1.3,0.3c-8.4,1.7-14.5,2.1-23.2,2.1c-1.2,0-2-0.1-3.1-0.1c-1.6,0-7.7-0.7-8.8-0.8c-1-0.1-1.8-0.3-2.8-0.4
		c-6.2-0.9-12.2-2.6-18-4.6c-1.6-0.5-3.1-1.2-4.6-1.8l-3.3-1.4c-2.6-1.1-5.2-2.3-7.5-3.7l-7.1-4.2c-2.3-1.4-4.5-3.1-6.6-4.7
		c-3-2.2-6-4.8-8.6-7.5l-2.5-2.4c0,0,0,0,0-0.1l-0.1-0.1c-1.1-1.3-2.6-2.6-3.7-4l-1.5-1.7c-0.5-0.6-1-1.1-1.4-1.7
		c-1.8-2.3-4.6-5.9-6.1-8.4c-1-1.7-2.2-3.3-3.1-5l-5.4-10.7c-0.7-1.5-1.3-2.9-1.9-4.5c-1.7-4.9-3.4-9.8-4.4-15
		c-0.6-2.7-1-5.4-1.4-8.2C25,139.4,24.6,135.5,24.6,131.4z M20.4,126.5c0,6.9,0.1,11,1,17.9c0.3,1.8,0.6,3.9,0.9,5.7l1.2,5.5
		c0.3,1.6,0.9,3.6,1.4,5.2c0.7,2.1,1.3,4.2,2.1,6.2c0.2,0.5,0.3,0.8,0.5,1.2c0.1,0.4,0.3,0.8,0.4,1.2l3.6,8.1c1,2.2,2.2,4.4,3.5,6.5
		l2.5,4.1c0.5,0.7,0.9,1.3,1.3,2l7.9,10.4l7.3,7.7c1.1,1,2.4,2.1,3.5,3.1c0.3,0.3,0.6,0.5,0.9,0.8c0.2,0.2,0.3,0.2,0.5,0.4l1.3,1.1
		c0.4,0.3,0.6,0.5,0.9,0.7l3.7,2.9c2,1.4,3.9,2.8,5.9,4.1c0.7,0.5,1.3,0.9,2,1.3c2.4,1.5,5,2.7,7.5,4.1l5.7,2.7
		c2.4,1,4.8,1.9,7.2,2.8c1.6,0.6,3.4,1.1,5,1.6c2.6,0.9,5.3,1.5,7.9,2.1c6.3,1.4,14.2,2.5,20.8,2.5c7.4,0,10.4-0.1,17.8-1
		c2.8-0.3,5.6-0.8,8.4-1.5c0.9-0.2,1.8-0.5,2.8-0.7c2.6-0.5,5.2-1.4,7.7-2.2l7.3-2.7c2.7-1.1,5.4-2.3,8-3.6c0.2-0.1,0.4-0.2,0.6-0.3
		c0.2-0.1,0.3-0.2,0.6-0.3l2.7-1.4c2-1.1,3.9-2.2,5.7-3.4c3.7-2.4,7.2-4.9,10.6-7.7c0.3-0.3,0.6-0.5,0.9-0.8l2.6-2.3
		c0.4-0.3,0.5-0.5,0.9-0.8c1.2-1,6.2-6.1,6.9-6.9l0.3-0.3c0.1-0.1,0.1-0.1,0.2-0.2c1.5-1.5,4.2-4.8,5.3-6.4l4.2-5.8
		c0.5-0.7,0.9-1.3,1.3-2l5.4-9.5c0.2-0.4,0.4-0.7,0.6-1.1c0.2-0.4,0.4-0.7,0.5-1.1l1.6-3.4c0.3-0.7,0.7-1.5,1-2.3
		c0.3-0.7,0.7-1.6,0.9-2.4c0.3-0.9,0.6-1.6,0.9-2.5c3-9,5.2-17.7,5.9-27.3c0.3-4,0.3-8.1,0.3-12.1c0-2.2-0.2-4.2-0.3-6.3
		c0-0.9-0.2-2.1-0.3-3c-1-8.3-2.8-16.6-5.6-24.3c-1.2-3.3-2.4-6.4-3.8-9.5c-3.1-6.6-6.8-13-11.1-18.8c-0.3-0.3-0.5-0.6-0.7-0.9
		c-0.3-0.4-0.4-0.6-0.7-1c-1.3-1.8-3-3.9-4.5-5.5l-2.4-2.6c-0.3-0.3-0.4-0.6-0.8-0.9c-0.6-0.6-1.1-1.1-1.7-1.7
		c-1.1-1.2-2.5-2.6-3.7-3.6l-2.2-1.9c-0.9-0.8-1.8-1.6-2.7-2.3c-1.9-1.5-3.7-3-5.7-4.3c-1.4-0.9-2.6-1.8-4-2.6l-3.1-1.9
		c-3.2-1.9-6.5-3.6-9.8-5.2l-4.6-2c-10.3-4.1-21-6.9-32.2-7.7c-4-0.3-8.1-0.3-12.1-0.3c-9.7,0-24.9,2.8-33.6,6.2
		c-0.4,0.2-0.8,0.3-1.2,0.4c-0.4,0.1-0.7,0.3-1.2,0.5c-2.4,0.9-4.8,1.9-7.1,2.9l-6.5,3.3c-3.5,2-7,4.1-10.3,6.4
		c-2.4,1.7-7.8,5.8-10.1,8.1c-0.4,0.4-0.5,0.5-0.9,0.8c-0.3,0.2-0.5,0.5-0.8,0.8c-0.3,0.3-0.6,0.5-0.9,0.8l-3.3,3.3
		c-1.1,1.1-2,2.4-3.1,3.5L46,59c-0.3,0.4-0.4,0.5-0.7,0.9c-0.3,0.4-0.5,0.6-0.7,0.9c-2.5,3.1-4.8,6.3-6.9,9.7
		c-0.5,0.7-0.9,1.3-1.3,2l-2.5,4.2c-0.4,0.7-0.8,1.4-1.2,2.2c-0.1,0.2-0.1,0.3-0.2,0.5l-3,6.3c-0.3,0.8-0.7,1.5-1,2.3l-1.4,3.6
		c-1.8,4.6-3.1,9.4-4.1,14.2c-0.6,2.8-1.2,5.6-1.5,8.5c-0.3,2-0.8,5.5-0.8,7.4c0,0.7-0.1,1-0.1,1.6
		C20.5,124.4,20.4,125.3,20.4,126.5z"/>
	<path class="st3" d="M252.1,107.7c0.4,0,0.1,0.8,0.2,1.2c1.1,6.6,1.7,13.5,1.7,20.4c0,68.7-55.7,124.4-124.4,124.4
		c-52.2,0-96.9-32.2-115.4-77.9c-0.4-1-0.8-2.1-1.2-3.1c-0.1-0.3-0.6-0.7-0.3-0.9C65.2,129.4,142.4,106.1,252.1,107.7z"/>
</g>
</svg>
